<svg id="header-illustration" xmlns="http://www.w3.org/2000/svg" width="718.508" height="349.729" viewBox="0 0 718.508 349.729">
  <g id="Group_199" data-name="Group 199" transform="translate(277.979 175.914)">
    <path id="Path_2390" data-name="Path 2390" d="M543.89,1351.567a173.627,173.627,0,0,1,6.156,19.642h94.007a173.627,173.627,0,0,1,6.156-19.642l-9.508-8.653H553.458Z" transform="translate(-543.89 -1342.914)" fill="#2b71b5"/>
  </g>
  <g id="Group_200" data-name="Group 200" transform="translate(286.817 218.556)">
    <path id="Path_2391" data-name="Path 2391" d="M553.328,1399.667h87.443c.072-5.95.251-11.041.6-14.111H552.728C553.076,1388.626,553.256,1393.717,553.328,1399.667Z" transform="translate(-552.728 -1385.556)" fill="#28a17f"/>
  </g>
  <g id="Group_201" data-name="Group 201" transform="translate(218.587 193.683)">
    <path id="Path_2392" data-name="Path 2392" d="M491.66,1360.683l20.84,17.559-9.1,7.314L484.5,1368.7Z" transform="translate(-484.498 -1360.683)" fill="#28a17f"/>
  </g>
  <g id="Group_202" data-name="Group 202" transform="translate(231.681 171.515)">
    <path id="Path_2393" data-name="Path 2393" d="M511.751,1338.515l23.341,20.8-15.464,13.127L497.592,1353.2Z" transform="translate(-497.592 -1338.515)" fill="#2b71b5"/>
  </g>
  <g id="Group_203" data-name="Group 203" transform="translate(415.107 193.683)">
    <path id="Path_2394" data-name="Path 2394" d="M701.858,1360.683l-20.84,17.559,9.1,7.314,18.9-16.855Z" transform="translate(-681.018 -1360.683)" fill="#28a17f"/>
  </g>
  <g id="Group_204" data-name="Group 204" transform="translate(392.516 171.515)">
    <path id="Path_2395" data-name="Path 2395" d="M681.767,1338.515l-23.341,20.8,15.463,13.127,22.037-19.241Z" transform="translate(-658.427 -1338.515)" fill="#2b71b5"/>
  </g>
  <g id="Group_205" data-name="Group 205" transform="translate(38.062 62.157)">
    <rect id="Rectangle_89" data-name="Rectangle 89" width="23.927" height="57.424" fill="#b6c2d5"/>
  </g>
  <g id="Group_206" data-name="Group 206" transform="translate(61.989 76.009)">
    <rect id="Rectangle_90" data-name="Rectangle 90" width="23.927" height="43.572" fill="#9baac5"/>
  </g>
  <g id="Group_207" data-name="Group 207" transform="translate(150.614 36.565)">
    <path id="Path_2396" data-name="Path 2396" d="M433.134,1259.6c-1.245,0-2.575-.063-4-.195-8.823-.81-11.255-1.261-11.354-1.28a1.542,1.542,0,0,1,.571-3.03c.024,0,2.466.449,11.065,1.239,12.8,1.174,16.424-2.964,21.16-12.024,3.745-7.164,3.338-20.971,3.1-29.22-.033-1.143-.064-2.176-.08-3.068-.073-4.232-1.713-5.651-1.782-5.71a1.56,1.56,0,0,1-.236-2.154,1.526,1.526,0,0,1,2.118-.288c.295.222,2.884,2.33,2.984,8.1.015.881.046,1.9.079,3.031.251,8.55.673,22.861-3.446,30.74C449.107,1253.775,445.06,1259.6,433.134,1259.6Z" transform="translate(-416.525 -1203.565)" fill="#123047"/>
  </g>
  <path id="Path_2397" data-name="Path 2397" d="M405.522,1256.191c-7.551,0-10.675-8.847-11.276-13.75-.027-.249-2.41-22.7-3.284-41.168a17.541,17.541,0,0,1,5.049-13.446c10.511-10.944,33.525-11.629,40.326-11.592h.346c17.036,0,26.765-8.74,26.862-8.829a1.545,1.545,0,0,1,2.407.411c7.971,15,7.375,25.983-1.822,33.564-6.181,5.1-19.674,5.326-31.579,5.529-6.728.114-13.083.222-16.116,1.285-4.542,1.593-5.675,7.923-5.856,9.176a1.543,1.543,0,0,1-1.526,1.321h-1.145a3.331,3.331,0,0,0-3.327,3.328v6.884a3.331,3.331,0,0,0,3.319,3.326,1.54,1.54,0,0,1,1.535,1.647l-1.416,20.822a1.541,1.541,0,0,1-1.368,1.427A9.963,9.963,0,0,1,405.522,1256.191Z" transform="translate(-265.911 -1167)" fill="#1f394d"/>
  <path id="Path_2398" data-name="Path 2398" d="M435.661,1179.316c-13.274,0-29.876,2.787-37.425,10.647a14.562,14.562,0,0,0-4.193,11.164c.869,18.377,3.243,40.739,3.267,40.962.011.088,1.382,10.441,7.728,10.992l1.223-17.98a6.427,6.427,0,0,1-4.765-6.2v-6.884a6.419,6.419,0,0,1,6.269-6.41c.642-2.981,2.506-8.522,7.65-10.326,3.5-1.227,9.8-1.334,17.083-1.459,10.836-.184,24.321-.413,29.67-4.823,7.671-6.323,8.3-15.272,1.917-28.074-3.56,2.643-13.115,8.437-27.77,8.39Z" transform="translate(-265.911 -1167)" fill="#fee7bf"/>
  <g id="Group_208" data-name="Group 208" transform="translate(131.975 16.454)">
    <path id="Path_2399" data-name="Path 2399" d="M399.43,1204c-.051,0-.1,0-.153-.008a1.539,1.539,0,0,1-1.384-1.676,15.765,15.765,0,0,1,10.126-12.541c7.336-2.861,15.659-3.136,23-3.378,6.909-.228,13.434-.443,17.711-2.755a1.542,1.542,0,1,1,1.466,2.713c-4.915,2.657-11.793,2.884-19.075,3.124-7.443.246-15.139.5-21.984,3.169a12.689,12.689,0,0,0-8.176,9.965A1.546,1.546,0,0,1,399.43,1204Z" transform="translate(-397.886 -1183.454)" fill="#fabf62"/>
  </g>
  <g id="Group_209" data-name="Group 209" transform="translate(44.243 68.003)">
    <path id="Path_2400" data-name="Path 2400" d="M315.936,1246.566a5.781,5.781,0,1,1,5.782-5.782A5.789,5.789,0,0,1,315.936,1246.566Zm0-8.479a2.7,2.7,0,1,0,2.7,2.7A2.7,2.7,0,0,0,315.936,1238.087Z" transform="translate(-310.154 -1235.003)" fill="#123047"/>
  </g>
  <g id="Group_210" data-name="Group 210" transform="translate(68.17 85.087)">
    <path id="Path_2401" data-name="Path 2401" d="M339.863,1263.65a5.781,5.781,0,1,1,5.782-5.781A5.788,5.788,0,0,1,339.863,1263.65Zm0-8.479a2.7,2.7,0,1,0,2.7,2.7A2.7,2.7,0,0,0,339.863,1255.171Z" transform="translate(-334.081 -1252.087)" fill="#1f394d"/>
  </g>
  <g id="Group_211" data-name="Group 211" transform="translate(37.275 99.569)">
    <path id="Path_2402" data-name="Path 2402" d="M327.144,1269.653H304.728a1.542,1.542,0,0,1,0-3.084h22.416a1.542,1.542,0,0,1,0,3.084Z" transform="translate(-303.186 -1266.569)" fill="#123047"/>
  </g>
  <g id="Group_212" data-name="Group 212" transform="translate(37.275 107.902)">
    <path id="Path_2403" data-name="Path 2403" d="M327.144,1277.986H304.728a1.542,1.542,0,0,1,0-3.084h22.416a1.542,1.542,0,0,1,0,3.084Z" transform="translate(-303.186 -1274.902)" fill="#123047"/>
  </g>
  <g id="Group_213" data-name="Group 213" transform="translate(136.509 86.052)">
    <path id="Path_2404" data-name="Path 2404" d="M422.744,1284.723c-.045,0-.091,0-.136-.006-4.5-.4-17.129-10.42-19.614-12.425a1.544,1.544,0,0,1-.557-1.433l2.519-16.5a1.542,1.542,0,1,1,3.049.465l-2.384,15.618c5.453,4.34,14.248,10.705,17.093,11.178,1.637-.415,11.325-4.581,13.558-10l-1.1-13.629a1.542,1.542,0,0,1,3.075-.247l1.123,13.978a1.564,1.564,0,0,1-.086.644C436.653,1279.721,424.253,1284.723,422.744,1284.723Z" transform="translate(-402.42 -1253.052)" fill="#123047"/>
  </g>
  <g id="Group_214" data-name="Group 214" transform="translate(124.623 96.254)">
    <path id="Path_2405" data-name="Path 2405" d="M410.887,1301.095a1.54,1.54,0,0,1-.83-.244c-7.958-5.09-17.4-15.068-19.22-23.535a9.451,9.451,0,0,1,1.013-7.373c4.424-6.775,10.74-6.765,13.462-5.816a1.542,1.542,0,0,1-1.009,2.915c-.249-.083-5.7-1.8-9.87,4.587a6.515,6.515,0,0,0-.58,5.039c1.353,6.293,8.541,15.2,16.654,20.781l10.988-15.173a1.542,1.542,0,0,1,2.256-.263l14.988,12.912c2.853-3,10.861-12.3,8.695-20.017-1.92-6.846-10.373-8.582-10.458-8.6a1.542,1.542,0,0,1,.586-3.028c.423.081,10.4,2.095,12.842,10.794,3.113,11.1-9.967,23.557-10.525,24.081a1.542,1.542,0,0,1-2.063.045l-14.807-12.757-10.872,15.013A1.54,1.54,0,0,1,410.887,1301.095Z" transform="translate(-390.534 -1263.254)" fill="#123047"/>
  </g>
  <g id="Group_215" data-name="Group 215" transform="translate(79.611 156.573)">
    <path id="Path_2406" data-name="Path 2406" d="M372.983,1458.382a1.542,1.542,0,0,1-1.455-1.033l-24.98-71.368a18.385,18.385,0,0,1,3.488-18.119l38.155-43.76a1.542,1.542,0,0,1,2.325,2.026l-38.154,43.761a15.29,15.29,0,0,0-2.9,15.072l24.979,71.369a1.543,1.543,0,0,1-1.455,2.052Z" transform="translate(-345.522 -1323.573)" fill="#123047"/>
  </g>
  <g id="Group_216" data-name="Group 216" transform="translate(206.644 243.719)">
    <path id="Path_2407" data-name="Path 2407" d="M474.1,1458.382h-.011a1.543,1.543,0,0,1-1.531-1.553s.13-19.539.242-44.575a1.541,1.541,0,0,1,1.542-1.535h.007a1.543,1.543,0,0,1,1.535,1.549c-.111,25.04-.242,44.582-.242,44.582A1.543,1.543,0,0,1,474.1,1458.382Z" transform="translate(-472.555 -1410.719)" fill="#123047"/>
  </g>
  <g id="Group_217" data-name="Group 217" transform="translate(181.872 109.476)">
    <path id="Path_2408" data-name="Path 2408" d="M474.339,1381.68h0a1.543,1.543,0,0,1-1.538-1.546c.079-32.057.161-65.206-.24-72.819-.834-15.809-23.708-27.808-23.939-27.927a1.542,1.542,0,1,1,1.416-2.739c1.007.52,24.677,12.948,25.6,30.5.406,7.7.325,40.889.245,72.988A1.542,1.542,0,0,1,474.339,1381.68Z" transform="translate(-447.783 -1276.476)" fill="#123047"/>
  </g>
  <g id="Group_218" data-name="Group 218" transform="translate(155.291 114.639)">
    <path id="Path_2409" data-name="Path 2409" d="M422.744,1440a1.541,1.541,0,0,1-1.542-1.542V1283.181a1.542,1.542,0,0,1,3.084,0v155.274A1.541,1.541,0,0,1,422.744,1440Z" transform="translate(-421.202 -1281.639)" fill="#123047"/>
  </g>
  <g id="Group_219" data-name="Group 219" transform="translate(100.753 180.829)">
    <path id="Path_2410" data-name="Path 2410" d="M377.686,1458.382a1.466,1.466,0,0,1-.161-.009,1.543,1.543,0,0,1-1.375-1.693c2.056-19.821-9.356-106.237-9.472-107.108a1.542,1.542,0,0,1,3.058-.405c.474,3.568,11.575,87.649,9.481,107.831A1.541,1.541,0,0,1,377.686,1458.382Z" transform="translate(-366.664 -1347.829)" fill="#123047"/>
  </g>
  <g id="Group_221" data-name="Group 221" transform="translate(68.569 140.173)">
    <path id="Path_2412" data-name="Path 2412" d="M339.863,1317.938a5.383,5.383,0,1,1,5.383-5.382A5.388,5.388,0,0,1,339.863,1317.938Zm0-7.681a2.3,2.3,0,1,0,2.3,2.3A2.3,2.3,0,0,0,339.863,1310.257Z" transform="translate(-334.48 -1307.173)" fill="#97a3ac"/>
  </g>
  <g id="Shirt_buttons" data-name="Shirt buttons">
    <g id="Group_220" data-name="Group 220" transform="translate(140.916 145.995)">
      <path id="Path_2411" data-name="Path 2411" d="M412.21,1323.761a5.383,5.383,0,1,1,5.383-5.383A5.389,5.389,0,0,1,412.21,1323.761Zm0-7.681a2.3,2.3,0,1,0,2.3,2.3A2.3,2.3,0,0,0,412.21,1316.08Z" transform="translate(-406.827 -1312.995)" fill="#6f8494"/>
    </g>
    <g id="Group_222" data-name="Group 222" transform="translate(140.916 168.159)">
      <path id="Path_2413" data-name="Path 2413" d="M412.21,1345.925a5.383,5.383,0,1,1,5.383-5.383A5.389,5.389,0,0,1,412.21,1345.925Zm0-7.682a2.3,2.3,0,1,0,2.3,2.3A2.3,2.3,0,0,0,412.21,1338.243Z" transform="translate(-406.827 -1335.159)" fill="#6f8494"/>
    </g>
    <g id="Group_223" data-name="Group 223" transform="translate(140.916 190.323)">
      <path id="Path_2414" data-name="Path 2414" d="M412.21,1368.09a5.383,5.383,0,1,1,5.383-5.384A5.39,5.39,0,0,1,412.21,1368.09Zm0-7.683a2.3,2.3,0,1,0,2.3,2.3A2.3,2.3,0,0,0,412.21,1360.407Z" transform="translate(-406.827 -1357.323)" fill="#6f8494"/>
    </g>
    <g id="Group_224" data-name="Group 224" transform="translate(140.916 212.487)">
      <path id="Path_2415" data-name="Path 2415" d="M412.21,1390.254a5.383,5.383,0,1,1,5.383-5.384A5.39,5.39,0,0,1,412.21,1390.254Zm0-7.683a2.3,2.3,0,1,0,2.3,2.3A2.3,2.3,0,0,0,412.21,1382.571Z" transform="translate(-406.827 -1379.487)" fill="#6f8494"/>
    </g>
    <g id="Group_225" data-name="Group 225" transform="translate(140.916 234.651)">
      <path id="Path_2416" data-name="Path 2416" d="M412.21,1412.418a5.383,5.383,0,1,1,5.383-5.384A5.39,5.39,0,0,1,412.21,1412.418Zm0-7.683a2.3,2.3,0,1,0,2.3,2.3A2.3,2.3,0,0,0,412.21,1404.735Z" transform="translate(-406.827 -1401.651)" fill="#6f8494"/>
    </g>
    <g id="Group_226" data-name="Group 226" transform="translate(169.881 157.455)">
      <path id="Path_2417" data-name="Path 2417" d="M449.549,1350.081a13.773,13.773,0,0,1-13.757-13.758V1326a1.542,1.542,0,0,1,1.542-1.542h15.992a1.542,1.542,0,1,1,0,3.084h-14.45v8.784A10.685,10.685,0,0,0,449.549,1347a1.542,1.542,0,0,1,0,3.084Z" transform="translate(-435.792 -1324.455)" fill="#6f8494"/>
    </g>
    <g id="Group_227" data-name="Group 227" transform="translate(169.881 150.781)">
      <path id="Path_2418" data-name="Path 2418" d="M453.326,1320.865H437.334a1.542,1.542,0,1,1,0-3.084h15.992a1.542,1.542,0,1,1,0,3.084Z" transform="translate(-435.792 -1317.781)" fill="#6f8494"/>
    </g>
    <g id="Group_228" data-name="Group 228" transform="translate(191.079 147.003)">
      <path id="Path_2419" data-name="Path 2419" d="M458.532,1399.579a1.542,1.542,0,0,1-1.542-1.542v-82.492a1.542,1.542,0,0,1,3.084,0v82.492A1.542,1.542,0,0,1,458.532,1399.579Z" transform="translate(-456.99 -1314.003)" fill="#6f8494"/>
    </g>
  </g>
  <g id="Group_229" data-name="Group 229" transform="translate(87.548 277.095)">
    <path id="Path_2420" data-name="Path 2420" d="M355,1455.66a1.542,1.542,0,0,1-.8-2.862l14.061-8.481a1.542,1.542,0,0,1,1.592,2.641l-14.06,8.48A1.529,1.529,0,0,1,355,1455.66Z" transform="translate(-353.459 -1444.095)" fill="#1f394d"/>
  </g>
  <g id="Group_230" data-name="Group 230" transform="translate(18.134 117.701)">
    <path id="Path_2421" data-name="Path 2421" d="M285.587,1379.548a1.541,1.541,0,0,1-1.542-1.542v-91.763a1.541,1.541,0,0,1,1.542-1.542h87.486a1.542,1.542,0,0,1,0,3.084H287.129v90.221A1.541,1.541,0,0,1,285.587,1379.548Z" transform="translate(-284.045 -1284.701)" fill="#1f394d"/>
  </g>
  <g id="Group_231" data-name="Group 231" transform="translate(38.954 131.01)">
    <path id="Path_2422" data-name="Path 2422" d="M330.922,1331.863H306.408a1.542,1.542,0,0,1-1.543-1.542v-30.769a1.542,1.542,0,0,1,1.543-1.542h45.418a1.542,1.542,0,0,1,0,3.085H307.95v27.684h22.972a1.542,1.542,0,1,1,0,3.084Z" transform="translate(-304.865 -1298.01)" fill="#1f394d"/>
  </g>
  <g id="Group_232" data-name="Group 232" transform="translate(38.954 170.468)">
    <path id="Path_2423" data-name="Path 2423" d="M306.408,1371.321a1.542,1.542,0,0,1-1.543-1.542V1339.01a1.542,1.542,0,0,1,1.543-1.542h19.477a1.542,1.542,0,0,1,0,3.084H307.95v29.227A1.542,1.542,0,0,1,306.408,1371.321Z" transform="translate(-304.865 -1337.468)" fill="#1f394d"/>
  </g>
  <g id="Group_233" data-name="Group 233" transform="translate(0 209.464)">
    <path id="Path_2424" data-name="Path 2424" d="M292.8,1491.544H267.453a1.542,1.542,0,0,1-1.542-1.542v-112a1.542,1.542,0,0,1,1.542-1.542H317a1.542,1.542,0,0,1,0,3.084H268.995v108.911H292.8a1.542,1.542,0,0,1,0,3.085Z" transform="translate(-265.911 -1376.464)" fill="#1f394d"/>
  </g>
  <g id="Group_234" data-name="Group 234" transform="translate(10.41 224.912)">
    <path id="Path_2425" data-name="Path 2425" d="M331.929,1428.41H277.863a1.542,1.542,0,0,1-1.542-1.542v-33.414a1.542,1.542,0,0,1,1.542-1.542h35.428a1.542,1.542,0,1,1,0,3.084H279.4v30.33h52.524a1.542,1.542,0,1,1,0,3.084Z" transform="translate(-276.321 -1391.912)" fill="#1f394d"/>
  </g>
  <g id="Group_235" data-name="Group 235" transform="translate(10.41 264.629)">
    <path id="Path_2426" data-name="Path 2426" d="M302.545,1476.095H277.863a1.541,1.541,0,0,1-1.542-1.542v-41.382a1.541,1.541,0,0,1,1.542-1.542h60.446a1.542,1.542,0,1,1,0,3.084H279.4v38.3h23.14a1.542,1.542,0,0,1,0,3.084Z" transform="translate(-276.321 -1431.629)" fill="#1f394d"/>
  </g>
  <g id="Group_236" data-name="Group 236" transform="translate(571.221 135.669)">
    <path id="Path_2427" data-name="Path 2427" d="M934.717,1417.871a1.543,1.543,0,0,1-1.542-1.543V1305.754h-94.5a1.543,1.543,0,0,1,0-3.085h96.043a1.542,1.542,0,0,1,1.542,1.542v112.117A1.542,1.542,0,0,1,934.717,1417.871Z" transform="translate(-837.132 -1302.669)" fill="#1f394d"/>
  </g>
  <g id="Group_237" data-name="Group 237" transform="translate(273.396 50.254)">
    <path id="Path_2428" data-name="Path 2428" d="M546.138,1299.331a1.543,1.543,0,0,1-1.021-2.7c4.234-3.736,5.029-9.691,5.151-12.613a11.806,11.806,0,0,1-10.715-5.164,1.543,1.543,0,0,1,1.182-2.375c.041-.006,7.5-1.122,11.193-20.164,4.82-24.852,13.768-37.2,28.161-38.849,11.265-1.3,17.72,3.719,17.99,3.934a1.542,1.542,0,0,1-1.915,2.417c-.1-.073-5.829-4.426-15.724-3.288-12.86,1.477-20.958,13.035-25.485,36.373-2.909,15-8.3,20.074-11.477,21.786a8.21,8.21,0,0,0,7.928,1.995,1.543,1.543,0,0,1,1.937,1.373c.033.437.733,10.783-6.185,16.889A1.539,1.539,0,0,1,546.138,1299.331Z" transform="translate(-539.307 -1217.254)" fill="#1e384c"/>
  </g>
  <g id="Group_238" data-name="Group 238" transform="translate(329.666 50.254)">
    <path id="Path_2429" data-name="Path 2429" d="M648.1,1299.331a1.539,1.539,0,0,1-1.02-.385c-6.919-6.106-6.218-16.452-6.184-16.889a1.54,1.54,0,0,1,1.936-1.373,8.242,8.242,0,0,0,7.921-2c-3.179-1.715-8.562-6.791-11.47-21.782-4.527-23.338-12.625-34.9-25.486-36.373-10.007-1.154-15.663,3.241-15.718,3.285a1.542,1.542,0,1,1-1.919-2.414c.269-.214,6.719-5.228,17.989-3.934,14.393,1.652,23.341,14,28.162,38.849,3.693,19.042,11.151,20.158,11.226,20.167a1.571,1.571,0,0,1,1.229.879,1.538,1.538,0,0,1-.082,1.493,11.821,11.821,0,0,1-10.714,5.164c.122,2.922.916,8.877,5.151,12.613a1.543,1.543,0,0,1-1.021,2.7Z" transform="translate(-595.577 -1217.254)" fill="#1e384c"/>
  </g>
  <g id="Group_240" data-name="Group 240" transform="translate(291.675 128.303)">
    <path id="Path_2433" data-name="Path 2433" d="M597.119,1325.315c-33.037,0-39.438-27.865-39.5-28.147a1.541,1.541,0,0,1,3.013-.653c.231,1.05,5.989,25.716,36.485,25.716a1.542,1.542,0,0,1,0,3.084Z" transform="translate(-557.586 -1295.303)" fill="#123047"/>
  </g>
  <g id="Group_241" data-name="Group 241" transform="translate(148.598 122.596)">
    <path id="Path_2434" data-name="Path 2434" d="M416.051,1447.18a1.542,1.542,0,0,1-1.094-2.628c4.926-4.967,18.284-20.135,35.2-39.337,33.4-37.92,79.135-89.855,93.235-100.795,21.219-16.466,43.078-14.82,44-14.746a1.544,1.544,0,0,1,1.383,1.838c-1.511,7.583-9.421,13.221-9.757,13.457a1.542,1.542,0,0,1-1.775-2.521c.065-.047,5.935-4.243,7.993-9.752a67.178,67.178,0,0,0-39.95,14.16c-13.869,10.762-59.5,62.569-92.811,100.4-16.945,19.241-30.33,34.439-35.321,39.47A1.535,1.535,0,0,1,416.051,1447.18Z" transform="translate(-414.509 -1289.596)" fill="#123047"/>
  </g>
  <g id="Group_242" data-name="Group 242" transform="translate(167.991 166.145)">
    <path id="Path_2435" data-name="Path 2435" d="M435.445,1450.322a1.542,1.542,0,0,1-1.088-2.635c.477-.475,47.963-47.647,73.678-67.87,25.591-20.124,53.014-45.991,53.288-46.25a1.541,1.541,0,1,1,2.118,2.24c-.274.261-27.8,26.224-53.5,46.434-25.574,20.112-72.933,67.159-73.409,67.633A1.542,1.542,0,0,1,435.445,1450.322Z" transform="translate(-433.902 -1333.145)" fill="#123047"/>
  </g>
  <g id="Group_243" data-name="Group 243" transform="translate(123.412 276.854)">
    <path id="Path_2436" data-name="Path 2436" d="M437.965,1459.389a1.75,1.75,0,0,1-.189-.011,1.543,1.543,0,0,1-1.344-1.714c.009-.08.575-5.356-2.569-8.42-2.064-2.012-5.358-2.709-9.786-2.08-15.723,2.24-25.292,3.142-25.387,3.151-.684.043-6.182.586-6.283,7.555a1.563,1.563,0,0,1-1.564,1.519,1.543,1.543,0,0,1-1.52-1.565c.116-8.015,6.034-10.429,9.146-10.584.028-.005,9.531-.9,25.173-3.129,5.44-.779,9.61.215,12.392,2.942,4.237,4.152,3.494,10.7,3.46,10.98A1.542,1.542,0,0,1,437.965,1459.389Z" transform="translate(-389.323 -1443.854)" fill="#1f394d"/>
  </g>
  <g id="Group_244" data-name="Group 244" transform="translate(329.596 124.586)">
    <path id="Path_2437" data-name="Path 2437" d="M597.049,1312.47a1.542,1.542,0,0,1,0-3.084c18.034,0,25.621-16.711,25.7-16.879a1.542,1.542,0,0,1,2.821,1.245C625.483,1293.94,617.069,1312.47,597.049,1312.47Z" transform="translate(-595.507 -1291.586)" fill="#123047"/>
  </g>
  <g id="Group_245" data-name="Group 245" transform="translate(329.596 128.303)">
    <path id="Path_2438" data-name="Path 2438" d="M597.049,1325.315a1.542,1.542,0,0,1,0-3.084c30.5,0,36.254-24.666,36.484-25.716a1.542,1.542,0,0,1,3.015.653C636.487,1297.45,630.087,1325.315,597.049,1325.315Z" transform="translate(-595.507 -1295.303)" fill="#123047"/>
  </g>
  <g id="Group_246" data-name="Group 246" transform="translate(364.332 166.144)">
    <path id="Path_2439" data-name="Path 2439" d="M746.655,1438.487a1.534,1.534,0,0,1-1.075-.436c-15.263-14.827-43.529-41.793-61.353-55.81-25.7-20.21-53.226-46.173-53.5-46.434a1.541,1.541,0,1,1,2.118-2.24c.275.259,27.7,26.128,53.289,46.25,17.935,14.1,46.29,41.153,61.6,56.022a1.542,1.542,0,0,1-1.075,2.648Z" transform="translate(-630.243 -1333.144)" fill="#123047"/>
  </g>
  <g id="Group_247" data-name="Group 247" transform="translate(276.437 183.025)">
    <path id="Path_2440" data-name="Path 2440" d="M641.37,1446.94H552.728a1.542,1.542,0,0,1-1.541-1.589c.014-.471,1.419-47.185.009-59.622-1.8-15.881-8.671-33.421-8.74-33.6a1.542,1.542,0,1,1,2.868-1.132c.289.731,7.088,18.085,8.937,34.381,1.3,11.486.3,50.013.055,58.474h85.467c-.241-8.461-1.247-46.988.055-58.474,1.849-16.3,8.648-33.65,8.936-34.381a1.542,1.542,0,1,1,2.869,1.132c-.07.175-6.939,17.715-8.74,33.6-1.411,12.437-.006,59.151.008,59.622a1.541,1.541,0,0,1-1.541,1.589Z" transform="translate(-542.348 -1350.025)" fill="#123047"/>
  </g>
  <g id="Group_248" data-name="Group 248" transform="translate(285.275 276.856)">
    <path id="Path_2441" data-name="Path 2441" d="M641.343,1459.389H552.728a1.542,1.542,0,0,1-1.542-1.542V1445.4a1.542,1.542,0,0,1,1.542-1.542h88.615a1.542,1.542,0,0,1,1.542,1.542v12.449A1.543,1.543,0,0,1,641.343,1459.389Zm-87.073-3.084H639.8v-9.365H554.27Z" transform="translate(-551.186 -1443.856)" fill="#123047"/>
  </g>
  <g id="Group_249" data-name="Group 249" transform="translate(399.955 9.1)">
    <path id="Path_2442" data-name="Path 2442" d="M708.034,1290.256c-.025,0-.05,0-.077,0-37.757-1.856-42.035-27.448-42.074-27.707a1.54,1.54,0,0,1,.856-1.617c9.009-4.349,15.779-19.944,18.11-41.716,2.535-23.671,14.259-32.79,19.218-33.316a13.162,13.162,0,0,1,7.529,1.378,36.606,36.606,0,0,1,25.08-11.123c18.347-.918,30.173,10.1,43.3,28.178,2.892,3.984,5.172,7.261,7.184,10.152,8.329,11.972,9.831,14.129,20.114,16.443a1.544,1.544,0,0,1,1.193,1.318c.045.37,4,37.066-40.285,48.521a1.542,1.542,0,1,1-.773-2.985c37.956-9.819,38.421-38.143,38.082-44.1-10.5-2.541-12.848-5.915-20.862-17.433-2-2.879-4.275-6.143-7.149-10.1-14.977-20.627-25.609-27.668-40.651-26.91-15.658.791-23.628,10.883-23.706,10.986a1.547,1.547,0,0,1-2.189.261,9.475,9.475,0,0,0-6.546-1.515c-3.422.363-14.123,8.6-16.476,30.578-2.394,22.348-9.2,38.112-18.758,43.595,1.17,4.612,7.712,22.5,38.951,24.036a1.542,1.542,0,0,1-.075,3.082Z" transform="translate(-665.866 -1176.1)" fill="#1f394d"/>
  </g>
  <path id="Path_2443" data-name="Path 2443" d="M771.215,1285.805c-.411-1.406-4.154-13.85-9.215-17.478-3.721-2.668-9.18-7.512-10.678-8.855l-4.538-26.189.394-.113a4.2,4.2,0,0,0,3-4.677l-1.076-6.974c5.1,3.135,6.868,5.411,6.893,5.444a1.542,1.542,0,0,0,2.486-1.826c-.213-.29-5.432-7.179-23.984-13.722-18.946-6.681-21.045-17.858-21.071-18.013a1.542,1.542,0,0,0-3.047.475,16.031,16.031,0,0,0,2.089,5.191,9.6,9.6,0,0,0-7.86,5.325c-2.883,6.1-4.937,32.73,11.38,50a1.555,1.555,0,0,0,.175.159,12.569,12.569,0,0,0,7.9,2.506c.463,0,.927-.019,1.389-.054.164,2.708.18,8.531-2.128,13.145a1.542,1.542,0,0,0,1.121,2.21,29.946,29.946,0,0,0,4.419.29c5.772,0,15.8-1.365,21.4-9.985,2.232,1.977,6.651,5.815,9.935,8.169,3.557,2.55,7.017,12.3,8.051,15.835a1.542,1.542,0,0,0,2.961-.864Z" transform="translate(-265.911 -1167)" fill="#123047"/>
  <path id="Path_2444" data-name="Path 2444" d="M726.954,1269.517a32.779,32.779,0,0,0,1.567-12.97,37.079,37.079,0,0,0,10.915-4.537,1.543,1.543,0,0,0-1.67-2.594,33.809,33.809,0,0,1-11.008,4.336,1.141,1.141,0,0,0-.115,0,1.51,1.51,0,0,0-.176.042c-2.945.435-5.953.175-8.32-1.611-14.976-15.953-13.32-41.038-10.75-46.476,1.872-3.961,6.66-3.665,6.9-3.645a1.7,1.7,0,0,0,.247-.005c3.234,4.018,8.927,8.736,18.925,12.262a90.772,90.772,0,0,1,12.211,5.251l1.449,9.388a1.117,1.117,0,0,1-.8,1.242l-1.729.492a1.541,1.541,0,0,0-1.1,1.746l4.773,27.542C742.959,1269.448,731.563,1269.8,726.954,1269.517Z" transform="translate(-265.911 -1167)" fill="#e7f1f9"/>
  <g id="Group_250" data-name="Group 250" transform="translate(428.473 102.297)">
    <path id="Path_2445" data-name="Path 2445" d="M720.418,1324.847c-19.824,0-25.893-17.818-25.958-18.016a1.543,1.543,0,0,1,.623-1.769c.059-.04,6.528-4.453,13.383-18.285,7.4-14.926,15.487-17.328,15.826-17.423a1.542,1.542,0,0,1,.841,2.968c-.131.041-7.222,2.344-13.9,15.825-5.743,11.587-11.242,16.908-13.451,18.731,1.67,3.961,8.986,17.835,28.675,14.327a1.542,1.542,0,0,1,.539,3.036A37.585,37.585,0,0,1,720.418,1324.847Z" transform="translate(-694.384 -1269.297)" fill="#123047"/>
  </g>
  <g id="Group_251" data-name="Group 251" transform="translate(440.984 152.042)">
    <path id="Path_2446" data-name="Path 2446" d="M708.437,1368.857a1.542,1.542,0,0,1-1.542-1.542v-46.731a1.542,1.542,0,0,1,3.084,0v46.731A1.542,1.542,0,0,1,708.437,1368.857Z" transform="translate(-706.895 -1319.042)" fill="#123047"/>
  </g>
  <g id="Group_252" data-name="Group 252" transform="translate(468.646 98.916)">
    <path id="Path_2447" data-name="Path 2447" d="M736.1,1282.166a1.542,1.542,0,0,1-.235-3.066c7.722-1.2,14.889-5.463,21.3-12.668a1.542,1.542,0,0,1,2.3,2.051c-6.9,7.753-14.686,12.351-23.133,13.665A1.6,1.6,0,0,1,736.1,1282.166Z" transform="translate(-734.557 -1265.916)" fill="#123047"/>
  </g>
  <g id="Group_253" data-name="Group 253" transform="translate(448.96 108.721)">
    <path id="Path_2448" data-name="Path 2448" d="M721.862,1281.093a1.555,1.555,0,0,1-.453-.068,27.707,27.707,0,0,1-5.8-2.445,1.543,1.543,0,0,1,1.6-2.636,25.22,25.22,0,0,0,5.1,2.133,1.542,1.542,0,0,1-.453,3.016Z" transform="translate(-714.871 -1275.721)" fill="#123047"/>
  </g>
  <g id="Group_254" data-name="Group 254" transform="translate(458.167 110.262)">
    <ellipse id="Ellipse_76" data-name="Ellipse 76" cx="4.659" cy="6.926" rx="4.659" ry="6.926" fill="#0d2333"/>
  </g>
  <g id="Group_255" data-name="Group 255" transform="translate(440.984 232.421)">
    <path id="Path_2449" data-name="Path 2449" d="M708.437,1438.484a1.542,1.542,0,0,1-1.542-1.542v-35.979a1.542,1.542,0,0,1,3.084,0v35.979A1.542,1.542,0,0,1,708.437,1438.484Z" transform="translate(-706.895 -1399.421)" fill="#123047"/>
  </g>
  <g id="Group_261" data-name="Group 261" transform="translate(681.033 253.622)">
    <path id="Path_2457" data-name="Path 2457" d="M966.495,1427.781a1.49,1.49,0,0,1-.348-.04c-10.944-2.524-17.921-4.053-17.991-4.068a1.542,1.542,0,0,1,.661-3.012c.068.014,7.061,1.547,18.024,4.075a1.542,1.542,0,0,1-.346,3.045Z" transform="translate(-946.944 -1420.622)" fill="none"/>
  </g>
  <g id="Group_262" data-name="Group 262" transform="translate(502.281 176.768)">
    <path id="Path_2458" data-name="Path 2458" d="M769.735,1435.343a1.542,1.542,0,0,1-1.543-1.542V1345.31a1.542,1.542,0,0,1,3.085,0V1433.8A1.542,1.542,0,0,1,769.735,1435.343Z" transform="translate(-768.192 -1343.768)" fill="#123047"/>
  </g>
  <g id="Group_263" data-name="Group 263" transform="translate(484.078 167.404)">
    <path id="Path_2459" data-name="Path 2459" d="M751.531,1417.62a1.541,1.541,0,0,1-1.542-1.542v-80.132a1.542,1.542,0,0,1,3.084,0v80.132A1.541,1.541,0,0,1,751.531,1417.62Z" transform="translate(-749.989 -1334.404)" fill="#123047"/>
  </g>
  <g id="Group_272" data-name="Group 272" transform="translate(577.602 145.744)">
    <path id="Path_2468" data-name="Path 2468" d="M923.552,1342.777H876.958a1.542,1.542,0,0,1,0-3.084H922.01v-23.865H845.055a1.542,1.542,0,0,1,0-3.084h78.5a1.542,1.542,0,0,1,1.542,1.542v26.949A1.542,1.542,0,0,1,923.552,1342.777Z" transform="translate(-843.513 -1312.744)" fill="#1f394d"/>
  </g>
  <g id="Group_273" data-name="Group 273" transform="translate(618.068 178.254)">
    <path id="Path_2469" data-name="Path 2469" d="M923.552,1375.287H904.159a1.542,1.542,0,0,1,0-3.084H922.01v-23.865H885.521a1.542,1.542,0,0,1,0-3.084h38.031a1.542,1.542,0,0,1,1.542,1.542v26.949A1.542,1.542,0,0,1,923.552,1375.287Z" transform="translate(-883.979 -1345.254)" fill="#1f394d"/>
  </g>
  <g id="Group_274" data-name="Group 274" transform="translate(635.697 210.763)">
    <path id="Path_2470" data-name="Path 2470" d="M923.552,1401.881a1.541,1.541,0,0,1-1.542-1.542v-19.492H903.15a1.542,1.542,0,1,1,0-3.084h20.4a1.542,1.542,0,0,1,1.542,1.542v21.034A1.542,1.542,0,0,1,923.552,1401.881Z" transform="translate(-901.608 -1377.763)" fill="#1f394d"/>
  </g>
  <g id="Group_275" data-name="Group 275" transform="translate(603.628 153.552)">
    <path id="Path_2471" data-name="Path 2471" d="M875.446,1332.367a5.907,5.907,0,1,1,5.908-5.908A5.914,5.914,0,0,1,875.446,1332.367Zm0-8.731a2.823,2.823,0,1,0,2.824,2.823A2.826,2.826,0,0,0,875.446,1323.636Z" transform="translate(-869.539 -1320.552)" fill="#97a3ac"/>
  </g>
  <g id="Group_276" data-name="Group 276" transform="translate(110.486 269.913)">
    <path id="Path_2472" data-name="Path 2472" d="M418.662,1444.447h-.011c-6.173-.043-37.2-.479-41.781-4.88a1.542,1.542,0,1,1,2.137-2.224c2.707,2.6,24.825,3.918,39.666,4.02a1.542,1.542,0,0,1-.011,3.084Z" transform="translate(-376.397 -1436.913)" fill="#123047"/>
  </g>
  <g id="Group_277" data-name="Group 277" transform="translate(173.952 273.55)">
    <path id="Path_2473" data-name="Path 2473" d="M447.128,1444.637c-2.872,0-5.3-.157-5.829-.193a1.542,1.542,0,0,1,.212-3.077c2.937.2,11.2.47,14.11-.706a1.542,1.542,0,0,1,1.156,2.86C454.557,1444.417,450.532,1444.637,447.128,1444.637Z" transform="translate(-439.863 -1440.55)" fill="#123047"/>
  </g>
  <g id="Group_278" data-name="Group 278" transform="translate(191.578 256.501)">
    <path id="Path_2474" data-name="Path 2474" d="M463.435,1458.382A1.544,1.544,0,0,1,462,1457.4l-4.4-11.2a1.546,1.546,0,0,1-.105-.627l.841-20.593a1.542,1.542,0,0,1,3.082.125l-.828,20.269,4.285,10.9a1.541,1.541,0,0,1-.872,2A1.513,1.513,0,0,1,463.435,1458.382Z" transform="translate(-457.489 -1423.501)" fill="#1f394d"/>
  </g>
  <g id="Group_279" data-name="Group 279" transform="translate(13.768 289.305)">
    <path id="Path_2475" data-name="Path 2475" d="M982.35,1503.465H281.221a1.543,1.543,0,0,1-1.106-2.617l42.817-44.076a1.54,1.54,0,0,1,1.106-.467h615.5a1.54,1.54,0,0,1,1.106.467l42.816,44.076a1.543,1.543,0,0,1-1.106,2.617Zm-697.481-3.084H978.7l-39.82-40.992H324.69Z" transform="translate(-279.679 -1456.305)" fill="#1f394d" stroke="#1f394d" stroke-width="1"/>
  </g>
  <g id="Group_280" data-name="Group 280" transform="translate(13.768 333.381)">
    <path id="Path_2476" data-name="Path 2476" d="M969.085,1516.729h-674.6a14.823,14.823,0,0,1-14.807-14.806,1.542,1.542,0,0,1,1.542-1.542H982.35a1.542,1.542,0,0,1,1.542,1.542A14.823,14.823,0,0,1,969.085,1516.729Zm-686.221-13.264a11.741,11.741,0,0,0,11.622,10.18h674.6a11.739,11.739,0,0,0,11.621-10.18Z" transform="translate(-279.679 -1500.381)" fill="#1f394d"/>
  </g>
  <g id="Group_287" data-name="Group 287" transform="translate(224.912 298.623)">
    <path id="Path_2483" data-name="Path 2483" d="M509.492,1467.166H627.615l18.638,18.638H492.365Z" transform="translate(-490.823 -1465.623)" fill="#1f394d"/>
    <path id="Path_2484" data-name="Path 2484" d="M646.252,1487.345H492.365a1.541,1.541,0,0,1-1.135-2.585l17.126-18.638a1.545,1.545,0,0,1,1.136-.5H627.614a1.544,1.544,0,0,1,1.091.452l18.637,18.638a1.541,1.541,0,0,1-1.09,2.632Zm-150.376-3.084H642.529l-15.553-15.553H510.169Z" transform="translate(-490.823 -1465.623)" fill="#1f394d"/>
  </g>
  <g id="Group_288" data-name="Group 288" transform="translate(50.75 311.867)">
    <path id="Path_2485" data-name="Path 2485" d="M330.166,1480.409H404.99L395.4,1490H318.2Z" transform="translate(-316.661 -1478.867)" fill="#1f394d"/>
    <path id="Path_2486" data-name="Path 2486" d="M395.4,1491.544H318.2a1.543,1.543,0,0,1-.965-2.746l11.964-9.592a1.546,1.546,0,0,1,.965-.339H404.99a1.542,1.542,0,0,1,1.09,2.633l-9.591,9.592A1.542,1.542,0,0,1,395.4,1491.544Zm-72.808-3.085H394.76l6.508-6.508H330.709Z" transform="translate(-316.661 -1478.867)" fill="#1f394d"/>
  </g>
  <g id="Group_289" data-name="Group 289" transform="translate(113.023 302.989)">
    <path id="Path_2487" data-name="Path 2487" d="M401.078,1485.863a1.542,1.542,0,0,1-1.091-2.632l1.28-1.28H380.476a1.541,1.541,0,0,1-1.09-2.632l8.877-8.878a1.546,1.546,0,0,1,1.091-.452h81.939a1.543,1.543,0,0,1,1.09,2.633l-12.761,12.761a1.539,1.539,0,0,1-1.089.451l-57.455.029Zm-16.879-7H404.99a1.542,1.542,0,0,1,1.09,2.633l-1.277,1.277,53.09-.027,9.677-9.676H389.992Z" transform="translate(-378.934 -1469.989)" fill="#1f394d"/>
  </g>
  <g id="Group_309" data-name="Group 309" transform="translate(339.461 122.595)">
    <path id="Path_2508" data-name="Path 2508" d="M767.237,1435.343a1.536,1.536,0,0,1-1.149-.514c-6.465-7.225-14.767-16.651-24.38-27.568-33.317-37.83-78.947-89.642-92.818-100.405a67.177,67.177,0,0,0-39.951-14.16c2.058,5.526,7.928,9.7,7.993,9.751a1.541,1.541,0,1,1-1.773,2.522c-.337-.236-8.248-5.874-9.757-13.457a1.543,1.543,0,0,1,1.382-1.838c.919-.077,22.776-1.721,44,14.746,14.1,10.942,59.841,62.88,93.241,100.8,9.609,10.91,17.907,20.333,24.363,27.549a1.542,1.542,0,0,1-1.149,2.57Z" transform="translate(-605.372 -1289.595)" fill="#123047"/>
  </g>
  <g id="Group_290" data-name="Group 290" transform="translate(363.561 302.023)">
    <path id="Path_2488" data-name="Path 2488" d="M694.736,1483.567H642.475a1.542,1.542,0,0,1,0-3.084h45.857l-16.383-8.376H631.014a1.542,1.542,0,0,1,0-3.084h41.307a1.546,1.546,0,0,1,.7.169l22.416,11.459a1.543,1.543,0,0,1-.7,2.916Z" transform="translate(-629.472 -1469.023)" fill="#1f394d"/>
  </g>
  <g id="Group_291" data-name="Group 291" transform="translate(430.515 301.803)">
    <path id="Path_2489" data-name="Path 2489" d="M697.968,1471.951l12.551,12.551h97.824l-14.155-14.155Z" transform="translate(-696.426 -1468.803)" fill="#1f394d"/>
    <path id="Path_2490" data-name="Path 2490" d="M808.343,1486.044H710.52a1.546,1.546,0,0,1-1.091-.452l-12.551-12.551a1.541,1.541,0,0,1,1.065-2.632l96.219-1.6a1.514,1.514,0,0,1,1.116.452l14.156,14.155a1.541,1.541,0,0,1-1.091,2.632Zm-97.185-3.084h93.463L793.56,1471.9l-91.929,1.533Z" transform="translate(-696.426 -1468.803)" fill="#1f394d"/>
  </g>
  <g id="Group_292" data-name="Group 292" transform="translate(529.59 304.164)">
    <path id="Path_2491" data-name="Path 2491" d="M889.927,1492.887H805.6a1.54,1.54,0,0,1-1.087-.448l-6.884-6.843a1.542,1.542,0,0,1,2.173-2.188l6.434,6.4h78.735l-22.594-15.555H797.043a1.542,1.542,0,1,1,0-3.084h65.811a1.542,1.542,0,0,1,.874.272l27.074,18.639a1.542,1.542,0,0,1-.875,2.812Z" transform="translate(-795.501 -1471.164)" fill="#1f394d"/>
  </g>
  <g id="Group_293" data-name="Group 293" transform="translate(598.6 306.368)">
    <path id="Path_2492" data-name="Path 2492" d="M928.81,1487.88H882.655a1.542,1.542,0,1,1,0-3.084h42.433l-8.346-8.344H866.054a1.542,1.542,0,1,1,0-3.084h51.327a1.543,1.543,0,0,1,1.09.451l11.43,11.429a1.541,1.541,0,0,1-1.091,2.632Z" transform="translate(-864.511 -1473.368)" fill="#1f394d"/>
  </g>
  <g id="Group_294" data-name="Group 294" transform="translate(655.595 298.623)">
    <path id="Path_2493" data-name="Path 2493" d="M933.5,1468.708H923.048a1.542,1.542,0,0,1,0-3.085H933.5a1.542,1.542,0,0,1,0,3.085Z" transform="translate(-921.506 -1465.623)" fill="#1f394d"/>
  </g>
  <g id="Group_301" data-name="Group 301" transform="translate(213.578 298.623)">
    <path id="Path_2500" data-name="Path 2500" d="M481.03,1486.748a1.541,1.541,0,0,1-1.235-2.463l13.432-18.04a1.542,1.542,0,1,1,2.473,1.841l-13.432,18.04A1.538,1.538,0,0,1,481.03,1486.748Z" transform="translate(-479.489 -1465.623)" fill="#416e91"/>
  </g>
  <g id="Group_302" data-name="Group 302" transform="translate(201.764 298.623)">
    <path id="Path_2501" data-name="Path 2501" d="M469.216,1486.748a1.542,1.542,0,0,1-1.236-2.463l13.433-18.04a1.542,1.542,0,1,1,2.473,1.841l-13.432,18.04A1.541,1.541,0,0,1,469.216,1486.748Z" transform="translate(-467.675 -1465.623)" fill="#416e91"/>
  </g>
  <g id="table_hightlights" data-name="table hightlights">
    <g id="Group_295" data-name="Group 295" transform="translate(631.29 312.082)">
      <path id="Path_2494" data-name="Path 2494" d="M911.21,1482.166H898.743a1.542,1.542,0,0,1,0-3.084H911.21a1.542,1.542,0,0,1,0,3.084Z" transform="translate(-897.201 -1479.082)" fill="#97a3ac"/>
    </g>
    <g id="Group_296" data-name="Group 296" transform="translate(561.399 312.082)">
      <path id="Path_2495" data-name="Path 2495" d="M862.6,1482.166h-33.75a1.542,1.542,0,0,1,0-3.084H862.6a1.542,1.542,0,0,1,0,3.084Z" transform="translate(-827.31 -1479.082)" fill="#97a3ac"/>
    </g>
    <g id="Group_297" data-name="Group 297" transform="translate(561.399 317.796)">
      <path id="Path_2496" data-name="Path 2496" d="M867.8,1487.88H828.852a1.542,1.542,0,0,1,0-3.084H867.8a1.542,1.542,0,0,1,0,3.084Z" transform="translate(-827.31 -1484.796)" fill="#97a3ac"/>
    </g>
    <g id="Group_298" data-name="Group 298" transform="translate(463.257 308.882)">
      <path id="Path_2497" data-name="Path 2497" d="M770.5,1478.966H730.71a1.542,1.542,0,0,1,0-3.084H770.5a1.542,1.542,0,0,1,0,3.084Z" transform="translate(-729.168 -1475.882)" fill="#97a3ac"/>
    </g>
    <g id="Group_299" data-name="Group 299" transform="translate(248.335 304.669)">
      <path id="Path_2498" data-name="Path 2498" d="M621.067,1474.753H515.789a1.542,1.542,0,1,1,0-3.084H621.067a1.542,1.542,0,0,1,0,3.084Z" transform="translate(-514.246 -1471.669)" fill="#97a3ac"/>
    </g>
    <g id="Group_300" data-name="Group 300" transform="translate(265.63 311.343)">
      <path id="Path_2499" data-name="Path 2499" d="M595.208,1481.427H533.083a1.542,1.542,0,0,1,0-3.084h62.125a1.542,1.542,0,0,1,0,3.084Z" transform="translate(-531.541 -1478.343)" fill="#97a3ac"/>
    </g>
    <g id="Group_303" data-name="Group 303" transform="translate(135.501 322.928)">
      <path id="Path_2502" data-name="Path 2502" d="M416.051,1493.012h-13.1a1.542,1.542,0,1,1,0-3.084h13.1a1.542,1.542,0,0,1,0,3.084Z" transform="translate(-401.412 -1489.928)" fill="#97a3ac"/>
    </g>
    <g id="Group_304" data-name="Group 304" transform="translate(142.05 308.698)">
      <path id="Path_2503" data-name="Path 2503" d="M441.4,1478.782H409.5a1.542,1.542,0,1,1,0-3.084h31.9a1.542,1.542,0,0,1,0,3.084Z" transform="translate(-407.961 -1475.698)" fill="#97a3ac"/>
    </g>
  </g>
  <g id="Group_306" data-name="Group 306" transform="translate(620.168 209.718)">
    <path id="Path_2505" data-name="Path 2505" d="M887.956,1380.47a1.876,1.876,0,1,1,1.876-1.876A1.878,1.878,0,0,1,887.956,1380.47Z" transform="translate(-886.079 -1376.718)" fill="#fff"/>
  </g>
  <g id="Group_307" data-name="Group 307" transform="translate(585.51 197.925)">
    <path id="Path_2506" data-name="Path 2506" d="M853.3,1368.678a1.876,1.876,0,1,1,1.876-1.877A1.878,1.878,0,0,1,853.3,1368.678Z" transform="translate(-851.421 -1364.925)" fill="#fff"/>
  </g>
  <g id="Lady_Right" data-name="Lady Right">
    <g id="lady_on_right" data-name="lady on right">
      <g id="Group_256" data-name="Group 256" transform="translate(628.584 216.013)">
        <path id="Path_2452" data-name="Path 2452" d="M934.716,1459.389a1.542,1.542,0,0,1-1.271-2.413c5.319-7.769,11.5-28.157,13.139-33.776-25.807-8.229-50.645-36.412-51.709-37.63a1.542,1.542,0,0,1,2.323-2.029c.259.3,26.268,29.8,51.716,37.144a1.542,1.542,0,0,1,1.057,1.9c-.3,1.087-7.531,26.716-13.981,36.136A1.542,1.542,0,0,1,934.716,1459.389Z" transform="translate(-894.495 -1383.013)" fill="#123047"/>
      </g>
      <g id="Group_258" data-name="Group 258" transform="translate(574.495 211.983)">
        <path id="Path_2454" data-name="Path 2454" d="M854.04,1459.389h-.074a1.543,1.543,0,0,1-1.468-1.614c1.481-31.361-11.891-76.355-12.026-76.805a1.542,1.542,0,1,1,2.954-.887c.137.457,13.658,45.957,12.153,77.837A1.543,1.543,0,0,1,854.04,1459.389Z" transform="translate(-840.406 -1378.983)" fill="#123047"/>
      </g>
      <g id="Group_259" data-name="Group 259" transform="translate(584.924 256.143)">
        <path id="Path_2455" data-name="Path 2455" d="M859.464,1431.352a34.535,34.535,0,0,1-7.447-.77,1.542,1.542,0,0,1,.719-3c.13.03,13.207,3.041,21.721-4.081a1.542,1.542,0,0,1,1.978,2.367C871.114,1430.318,864.477,1431.352,859.464,1431.352Z" transform="translate(-850.835 -1423.143)" fill="#123047"/>
      </g>
      <g id="Group_260" data-name="Group 260" transform="translate(600.351 260.128)">
        <path id="Path_2456" data-name="Path 2456" d="M912.051,1459.389a1.534,1.534,0,0,1-.34-.038c-10.3-2.316-43.454-28.362-44.861-29.469a1.542,1.542,0,1,1,1.908-2.424c.339.267,34.01,26.72,43.63,28.884a1.542,1.542,0,0,1-.337,3.047Z" transform="translate(-866.262 -1427.128)" fill="#123047"/>
      </g>
      <g id="Group_264" data-name="Group 264" transform="translate(463.257 261.252)">
        <path id="Path_2460" data-name="Path 2460" d="M730.71,1459.389a1.542,1.542,0,0,1-1.542-1.542v-14.589a1.54,1.54,0,0,1,.313-.931c7.771-10.254,84.189-13.712,92.877-14.073a1.542,1.542,0,1,1,.128,3.082c-32.955,1.367-83.535,5.807-90.234,12.5v14.013A1.542,1.542,0,0,1,730.71,1459.389Z" transform="translate(-729.168 -1428.252)" fill="#123047"/>
      </g>
      <g id="Group_265" data-name="Group 265" transform="translate(537.837 175.858)">
        <path id="Path_2461" data-name="Path 2461" d="M808.346,1367.964a1.506,1.506,0,0,1-.211-.015,1.541,1.541,0,0,1-1.319-1.736c2.076-15.221-2.629-20.727-2.676-20.78a1.542,1.542,0,0,1,2.271-2.086c.236.254,5.76,6.42,3.46,23.283A1.541,1.541,0,0,1,808.346,1367.964Z" transform="translate(-803.748 -1342.858)" fill="#123047"/>
      </g>
      <g id="Group_268" data-name="Group 268" transform="translate(487.278 267.272)">
        <path id="Path_2464" data-name="Path 2464" d="M757.576,1459.389h-.041a1.545,1.545,0,0,1-1.5-1.582c.157-5.968.29-15.481.018-17.227a5.85,5.85,0,0,0-2.2-3.5,1.542,1.542,0,0,1,1.745-2.542,8.929,8.929,0,0,1,3.506,5.568c.4,2.58.058,16.231.018,17.779A1.543,1.543,0,0,1,757.576,1459.389Z" transform="translate(-753.189 -1434.272)" fill="#123047"/>
      </g>
      <g id="Group_269" data-name="Group 269" transform="translate(469.784 275.767)">
        <path id="Path_2465" data-name="Path 2465" d="M752.286,1445.851H737.238a1.542,1.542,0,1,1,0-3.084h15.048a1.542,1.542,0,0,1,0,3.084Z" transform="translate(-735.695 -1442.767)" fill="#123047"/>
      </g>
      <g id="Group_270" data-name="Group 270" transform="translate(469.784 281.748)">
        <path id="Path_2466" data-name="Path 2466" d="M752.286,1451.833H737.238a1.542,1.542,0,1,1,0-3.085h15.048a1.542,1.542,0,0,1,0,3.085Z" transform="translate(-735.695 -1448.748)" fill="#123047"/>
      </g>
      <g id="Group_271" data-name="Group 271" transform="translate(433.579 277.845)">
        <path id="Path_2467" data-name="Path 2467" d="M701.032,1459.389a1.542,1.542,0,0,1-1.542-1.542v-3.086a9.927,9.927,0,0,1,9.917-9.916h21.3a1.542,1.542,0,0,1,0,3.084h-21.3a6.84,6.84,0,0,0-6.833,6.832v3.086A1.542,1.542,0,0,1,701.032,1459.389Z" transform="translate(-699.49 -1444.845)" fill="#123047"/>
      </g>
      <g id="Group_308" data-name="Group 308" transform="translate(489.716 145.743)">
        <path id="Path_2507" data-name="Path 2507" d="M786.987,1355.439c-17.563,0-29.992-24.005-31.173-32.763-.773-5.728,1.089-9.025,1.168-9.163a1.542,1.542,0,0,1,2.676,1.533c-.032.061-1.4,2.644-.787,7.218,1.083,8.027,13.284,31.444,29.548,30.028,6.39-.564,11.483-3.16,14.729-7.509,3.28-4.394,4.092-9.751,3.459-12.871a1.542,1.542,0,0,1,3.022-.614c.791,3.9-.141,10.148-4.01,15.329-2.639,3.537-7.72,7.925-16.93,8.737C788.117,1355.415,787.549,1355.439,786.987,1355.439Z" transform="translate(-755.627 -1312.743)" fill="#123047"/>
      </g>
      <path id="Path_2453" data-name="Path 2453" d="M824.569,1439.324a1.543,1.543,0,0,1-1.487-1.138c-.584-2.142-14.319-52.645-16.266-66.854l-.059-.449a15.066,15.066,0,0,1,3.675-11.811,15.231,15.231,0,0,1,11.4-5.137h2a1.542,1.542,0,0,1,0,3.085h-2a12.138,12.138,0,0,0-9.091,4.1,11.979,11.979,0,0,0-2.925,9.394l.053.405c1.919,14.009,16.045,65.939,16.187,66.462a1.54,1.54,0,0,1-1.083,1.892A1.494,1.494,0,0,1,824.569,1439.324Z" transform="translate(-265.911 -1167)" fill="#123047"/>
    </g>
    <g id="hair">
      <g id="hair_right" data-name="hair right">
        <path id="Path_2450" data-name="Path 2450" d="M896.036,1386.1H896c-.428-.01-10.821-.361-41.887-9.38-24.5-7.113-30.8-18.619-36.9-29.748a89.991,89.991,0,0,0-5.975-9.864c-6.836-9.4-20.261-12.039-32.106-14.369a109.506,109.506,0,0,1-13.486-3.212A23.006,23.006,0,0,1,750,1300.836a1.537,1.537,0,0,1,.151-.83c.271-.552,6.864-13.582,26.788-17.333,19.1-3.6,40.752-3.949,56.491,20.708,14.512,22.735,25.7,32.666,49.942,49.242,16.346,11.178,14.3,31.255,14.2,32.1A1.542,1.542,0,0,1,896.036,1386.1Z" transform="translate(-265.911 -1167)" fill="#1f394d"/>
        <path id="Path_2451" data-name="Path 2451" d="M753.127,1300.984a19.948,19.948,0,0,0,13.508,15.62,107.309,107.309,0,0,0,13.088,3.1c12.4,2.44,26.458,5.2,34,15.582a92.316,92.316,0,0,1,6.187,10.2c6.062,11.063,11.788,21.512,35.058,28.268,24.188,7.022,35.785,8.726,39.611,9.133.112-4.687-.6-19.272-12.956-27.719-24.625-16.839-36-26.943-50.8-50.128-14.713-23.049-34.32-22.917-53.32-19.338C761.033,1288.806,754.355,1298.886,753.127,1300.984Z" transform="translate(-265.911 -1167)" fill="#ffefd3"/>
      </g>
      <g id="hair_strand" data-name="hair strand" transform="translate(490.864 132.394)">
        <path id="Path_2462" data-name="Path 2462" d="M845.978,1365.319a1.543,1.543,0,0,1-.625-.132c-.373-.165-9.2-4.109-12.574-8.242a84.213,84.213,0,0,1-9.839-15.331c-3.163-5.984-5.663-10.709-12.739-16.112-6.412-4.9-14.029-6.495-22.85-8.345-3.942-.827-8.018-1.682-12.314-2.9-14.495-4.1-18.007-12.391-18.149-12.743a1.542,1.542,0,0,1,2.854-1.168c.055.127,3.258,7.3,16.136,10.943,4.192,1.187,8.215,2.031,12.106,2.848,8.806,1.847,17.122,3.591,24.089,8.912,7.613,5.813,10.385,11.054,13.594,17.121a81.557,81.557,0,0,0,9.5,14.821c2.419,2.963,9.076,6.327,11.437,7.374a1.542,1.542,0,0,1-.626,2.952Z" transform="translate(-756.775 -1299.394)" fill="#ffc55e"/>
      </g>
      <g id="Group_267" data-name="Group 267" transform="translate(571.138 157.959)">
        <path id="Path_2463" data-name="Path 2463" d="M887.157,1373.756a1.542,1.542,0,0,1-1.513-1.248c-.016-.081-1.942-8.877-14.432-16.385-13.572-8.157-32.9-27.712-33.72-28.54a1.542,1.542,0,0,1,2.2-2.164c.2.2,19.875,20.105,33.11,28.061,13.758,8.271,15.792,18.029,15.873,18.44a1.543,1.543,0,0,1-1.221,1.808A1.479,1.479,0,0,1,887.157,1373.756Z" transform="translate(-837.049 -1324.959)" fill="#fabf62"/>
      </g>
    </g>
  </g>
  <g id="Group_310" data-name="Group 310" transform="translate(47.558 107.9)">
    <path id="Path_2509" data-name="Path 2509" d="M356.361,1458.382a1.541,1.541,0,0,1-1.381-.853l-40-80.105a14.49,14.49,0,0,1,.869-14.418c9.7-14.681,33.5-50.479,44.807-65.757,14.569-19.681,30.4-22.232,31.068-22.331a1.542,1.542,0,0,1,.457,3.05c-.155.024-15.292,2.537-29.045,21.116-11.266,15.218-35.023,50.961-44.714,65.623a11.4,11.4,0,0,0-.683,11.339l40,80.1a1.543,1.543,0,0,1-1.378,2.232Z" transform="translate(-313.469 -1274.9)" fill="#123047"/>
  </g>
  <g id="face">
    <path id="Path_2432" data-name="Path 2432" d="M597.119,1312.47c-20.019,0-28.435-18.53-28.517-18.718a1.542,1.542,0,0,1,2.82-1.247c.307.689,7.719,16.881,25.7,16.881a1.542,1.542,0,0,1,0,3.084Z" transform="translate(-265.911 -1167)" fill="#123047"/>
    <path id="Path_2430" data-name="Path 2430" d="M627.963,1255.4c-.145-.071-14.548-7.224-23.434-13.007a11.587,11.587,0,0,1-5.355-7.162c1.017-2.274,1.616-3.771,1.7-3.985a1.542,1.542,0,1,0-2.867-1.136c-.077.194-7.837,19.6-17.749,29.973-10.58,11.074-17.17,12.465-17.222,12.476a1.542,1.542,0,0,0,.267,3.06,1.67,1.67,0,0,0,.271-.023c.177-.032,2.752-.53,7.166-3.37a26.6,26.6,0,0,0,52.875-4.152v-11.418c1.8.925,2.938,1.488,2.978,1.508a1.542,1.542,0,0,0,1.369-2.764Z" transform="translate(-265.911 -1167)" fill="#1f394d"/>
    <path id="Path_2431" data-name="Path 2431" d="M620.532,1255.615v12.454a23.516,23.516,0,0,1-46.933,2.155,73.181,73.181,0,0,0,8.89-8.016c6.283-6.577,11.6-16.3,14.879-23.1a15.773,15.773,0,0,0,5.479,5.863c5.335,3.471,12.591,7.412,17.675,10.075C620.526,1255.236,620.532,1255.425,620.532,1255.615Z" transform="translate(-265.911 -1167)" fill="#e7f1f9"/>
  </g>
</svg>
