<svg id="iconStar" xmlns="http://www.w3.org/2000/svg" width="21" height="20" viewBox="0 0 21 20">
  <g id="Dribbble-Light-Preview" transform="translate(-99 -320)">
    <g id="icons" transform="translate(56 160)">
      <path id="star_favorite-_1499_" data-name="star_favorite-[#1499]" d="M60.556,172.206a1.877,1.877,0,0,0-.547,1.669l.677,3.916a1.9,1.9,0,0,1-2.758,1.988l-3.544-1.849a1.92,1.92,0,0,0-1.769,0l-3.544,1.849a1.9,1.9,0,0,1-2.758-1.988l.677-3.916a1.877,1.877,0,0,0-.547-1.669l-2.867-2.773a1.883,1.883,0,0,1,1.053-3.217l3.963-.571a1.9,1.9,0,0,0,1.431-1.032l1.772-3.562a1.908,1.908,0,0,1,3.409,0l1.772,3.562a1.9,1.9,0,0,0,1.431,1.032l3.963.571a1.883,1.883,0,0,1,1.053,3.217Z" fill-rule="evenodd"/>
    </g>
  </g>
</svg>
