<svg xmlns="http://www.w3.org/2000/svg" width="767.572" height="265.733" viewBox="0 0 767.572 265.733">
  <g id="illustration-start-learn" transform="translate(-83.792 -1355.116)">
    <path id="Path_2567" data-name="Path 2567" d="M106.368,1808.227v-14.984a1.242,1.242,0,0,0-1.243-1.242H83.792v2.485h20.091v12.5H83.792v2.485h21.334A1.243,1.243,0,0,0,106.368,1808.227Z" transform="translate(0 -230.036)" fill="#1c3e58"/>
    <g id="Group_369" data-name="Group 369" transform="translate(156.293 1565.345)">
      <path id="Path_2568" data-name="Path 2568" d="M238.128,1813.227a1.242,1.242,0,0,1-1.243-1.243v-11.6a1.243,1.243,0,0,1,2.485,0v11.6A1.242,1.242,0,0,1,238.128,1813.227Z" transform="translate(-236.885 -1799.139)" fill="#1c3e58"/>
    </g>
    <g id="Group_370" data-name="Group 370" transform="translate(118.444 1565.345)">
      <path id="Path_2569" data-name="Path 2569" d="M158.2,1812.862a1.242,1.242,0,0,1-1.243-1.242v-11.239a1.243,1.243,0,0,1,2.485,0v11.239A1.242,1.242,0,0,1,158.2,1812.862Z" transform="translate(-156.962 -1799.139)" fill="#1c3e58"/>
    </g>
    <g id="Group_371" data-name="Group 371" transform="translate(160.667 1567.675)">
      <path id="Path_2570" data-name="Path 2570" d="M266.687,1815.817H247.363a1.242,1.242,0,0,1-1.243-1.243V1805.3a1.243,1.243,0,0,1,1.243-1.243h19.324a1.243,1.243,0,0,1,1.243,1.243v9.274A1.242,1.242,0,0,1,266.687,1815.817Zm-18.081-2.485h16.839v-6.789H248.605Z" transform="translate(-246.12 -1804.058)" fill="#1c3e58"/>
    </g>
    <g id="Group_372" data-name="Group 372" transform="translate(83.792 1576.719)">
      <rect id="Rectangle_112" data-name="Rectangle 112" width="114.847" height="7.812" fill="#2b71b5"/>
    </g>
    <path id="Path_2571" data-name="Path 2571" d="M324.919,1820.554a1.242,1.242,0,0,0-1.242,1.242v44.13h2.485V1821.8A1.243,1.243,0,0,0,324.919,1820.554Z" transform="translate(-126.281 -245.077)" fill="#1c3e58"/>
    <path id="Path_2572" data-name="Path 2572" d="M341.125,1820.554a1.243,1.243,0,0,0-1.243,1.242v44.13h2.485V1821.8A1.243,1.243,0,0,0,341.125,1820.554Z" transform="translate(-134.812 -245.077)" fill="#1c3e58"/>
    <path id="Path_2573" data-name="Path 2573" d="M1263.575,1886.729H1087.322a1.367,1.367,0,0,0-1.367,1.367v12.666h2.734v-11.3h173.519v11.3h2.734V1888.1A1.367,1.367,0,0,0,1263.575,1886.729Z" transform="translate(-527.561 -279.913)" fill="#1c3e58"/>
    <g id="Group_373" data-name="Group 373" transform="translate(767.564 1593.236)">
      <path id="Path_2574" data-name="Path 2574" d="M1562.4,1874.243a1.242,1.242,0,0,1-1.242-1.243c0-6.872-6.961-12.462-15.518-12.462s-15.518,5.591-15.518,12.462a1.242,1.242,0,1,1-2.485,0c0-8.241,8.076-14.947,18-14.947s18,6.705,18,14.947A1.242,1.242,0,0,1,1562.4,1874.243Z" transform="translate(-1527.634 -1858.053)" fill="#1c3e58"/>
    </g>
    <g id="Group_374" data-name="Group 374" transform="translate(806.211 1597.932)">
      <path id="Path_2575" data-name="Path 2575" d="M1610.484,1879.977a1.242,1.242,0,0,1-1.242-1.243v-6.4a1.242,1.242,0,0,1,1.064-1.23l21.654-3.127a1.242,1.242,0,1,1,.355,2.459l-20.589,2.974v5.319A1.242,1.242,0,0,1,1610.484,1879.977Z" transform="translate(-1609.242 -1867.969)" fill="#1c3e58"/>
    </g>
    <g id="Group_375" data-name="Group 375" transform="translate(837.679 1562.615)">
      <path id="Path_2576" data-name="Path 2576" d="M1676.931,1845.1a1.242,1.242,0,0,1-1.243-1.242v-49.226a1.242,1.242,0,0,1,2.485,0v49.226A1.242,1.242,0,0,1,1676.931,1845.1Z" transform="translate(-1675.688 -1793.395)" fill="#1c3e58"/>
    </g>
    <g id="Group_376" data-name="Group 376" transform="translate(826.722 1565.808)">
      <path id="Path_2577" data-name="Path 2577" d="M1653.8,1848.654c-.034,0-.068,0-.1,0a1.243,1.243,0,0,1-1.137-1.34l3.78-46.032a1.243,1.243,0,1,1,2.477.2l-3.78,46.032A1.243,1.243,0,0,1,1653.8,1848.654Z" transform="translate(-1652.553 -1800.136)" fill="#1c3e58"/>
    </g>
    <g id="Group_380" data-name="Group 380" transform="translate(567.071 1403.723)">
      <g id="Group_377" data-name="Group 377" transform="translate(47.19 44.195)">
        <path id="Path_2578" data-name="Path 2578" d="M1203.922,1551.117l1.568,12.59C1204.924,1559.131,1203.922,1551.117,1203.922,1551.117Z" transform="translate(-1203.922 -1551.117)" fill="#144f80"/>
      </g>
      <g id="Group_378" data-name="Group 378" transform="translate(48.758 56.785)">
        <path id="Path_2579" data-name="Path 2579" d="M1207.241,1577.776l-.009-.075.009.075Z" transform="translate(-1207.232 -1577.702)" fill="#144f80"/>
      </g>
      <g id="Group_379" data-name="Group 379">
        <path id="Path_2580" data-name="Path 2580" d="M1157.222,1554.222c8.04-3.883,9.046-16.768,9.046-16.768l.175-.4c-7.185-3.487-12.117-10.864-13.039-19.425-.029-.274-.169-1.419-.361-2.972,0,0-2.461-.187-5.471-3.878-3.186-3.906-1.987-9.319-1.987-9.319a28.7,28.7,0,0,0,5.882.532c9.936-.754,26.177-22.27,26.177-22.27l20.74,11.992v5.1a8.275,8.275,0,0,1,0,16.537v3.351a22.506,22.506,0,0,1-14.936,21.192l.134.226s1.006,12.22,9.047,16.1c5.588,2.7,15.94,6.307,22.778,13.9,2.925-6.652,5.788-19.054,4.722-41.72-2.01-42.759-6.67-58.017-22.019-63.681s-20.831,0-20.831,0-2.038-5.665-11.983-4.842-37.1,11.238-39.833,40.84-4.283,69.621-21.186,72.179c0,0,9.39,9.181,25.254,5.049C1134.772,1562.731,1149.988,1557.716,1157.222,1554.222Z" transform="translate(-1104.276 -1457.795)" fill="#144f80"/>
      </g>
    </g>
    <g id="Group_383" data-name="Group 383" transform="translate(439.828 1465.98)">
      <g id="Group_381" data-name="Group 381">
        <path id="Path_2581" data-name="Path 2581" d="M836.837,1615.952a1.242,1.242,0,0,1-.789-2.2c10.58-8.682,11.263-23.136,11.269-23.281a1.242,1.242,0,1,1,2.483.1c-.025.638-.742,15.722-12.176,25.105A1.237,1.237,0,0,1,836.837,1615.952Z" transform="translate(-835.593 -1589.274)" fill="#1c3e58"/>
      </g>
      <g id="Group_382" data-name="Group 382" transform="translate(34.521 0)">
        <path id="Path_2582" data-name="Path 2582" d="M921.452,1615.953a1.237,1.237,0,0,1-.787-.282c-11.434-9.383-12.151-24.467-12.176-25.105a1.243,1.243,0,0,1,2.483-.1h0c.006.145.715,14.621,11.268,23.281a1.242,1.242,0,0,1-.789,2.2Z" transform="translate(-908.488 -1589.274)" fill="#1c3e58"/>
      </g>
    </g>
    <path id="Path_2583" data-name="Path 2583" d="M878.87,1687.346s1.268-10.826-8.954-21.38c-8.644-8.926-35.471-23.509-41.783-26.88-.133,14.771-9.924,26.7-21.99,26.7s-21.858-11.926-21.99-26.7c-6.312,3.37-33.139,17.954-41.783,26.88-10.222,10.554-8.954,21.38-8.954,21.38Z" transform="translate(-341.95 -149.526)" fill="#2b71b5"/>
    <path id="Path_2584" data-name="Path 2584" d="M877.484,1687.208a1.167,1.167,0,0,1-.146-.009,1.243,1.243,0,0,1-1.09-1.377c.018-.168,1.007-10.44-8.612-20.372-7.89-8.147-31.691-21.36-39.727-25.707-.986,14.457-11.042,25.9-23.154,25.9s-22.168-11.445-23.155-25.9c-8.035,4.347-31.835,17.559-39.726,25.707-9.7,10.015-8.624,20.268-8.613,20.37a1.243,1.243,0,0,1-2.468.289c-.054-.466-1.215-11.536,9.3-22.389,8.63-8.911,34.4-23,42.091-27.111a1.242,1.242,0,0,1,1.828,1.085c.126,14.042,9.433,25.466,20.748,25.466s20.622-11.424,20.747-25.466a1.243,1.243,0,0,1,1.828-1.085c7.692,4.107,33.462,18.2,42.09,27.111,10.511,10.853,9.35,21.922,9.3,22.389A1.244,1.244,0,0,1,877.484,1687.208Z" transform="translate(-340.563 -148.145)" fill="#1c3e58"/>
    <g id="Group_384" data-name="Group 384" transform="translate(199.726 1538.692)">
      <path id="Path_2585" data-name="Path 2585" d="M329.839,1776.311a1.242,1.242,0,0,1-1.243-1.242V1744.1a1.242,1.242,0,0,1,1.243-1.242H346.01a1.242,1.242,0,1,1,0,2.485H331.081v29.731A1.242,1.242,0,0,1,329.839,1776.311Z" transform="translate(-328.596 -1742.853)" fill="#1c3e58"/>
    </g>
    <g id="Group_385" data-name="Group 385" transform="translate(188.314 1568.908)">
      <path id="Path_2586" data-name="Path 2586" d="M418.981,1813.4a11.129,11.129,0,0,1-4.193-6.716H304.5v7.812H419.346v-.843C419.225,1813.565,419.1,1813.486,418.981,1813.4Z" transform="translate(-304.5 -1806.682)" fill="#1c3e58"/>
    </g>
    <g id="Group_386" data-name="Group 386" transform="translate(123.753 1565.345)">
      <path id="Path_2587" data-name="Path 2587" d="M169.418,1811.766a1.242,1.242,0,0,1-.484-2.387l1.205-.508a8.2,8.2,0,0,0,5.024-7.571v-.918a1.243,1.243,0,0,1,2.485,0v.918a10.679,10.679,0,0,1-6.544,9.86l-1.205.508A1.243,1.243,0,0,1,169.418,1811.766Z" transform="translate(-168.174 -1799.139)" fill="#1c3e58"/>
    </g>
    <g id="Group_387" data-name="Group 387" transform="translate(142.989 1565.345)">
      <path id="Path_2588" data-name="Path 2588" d="M217.023,1811.766a1.243,1.243,0,0,1-.482-.1l-1.205-.508a10.679,10.679,0,0,1-6.544-9.86v-.918a1.243,1.243,0,0,1,2.485,0v.918a8.2,8.2,0,0,0,5.024,7.571l1.205.508a1.242,1.242,0,0,1-.483,2.387Z" transform="translate(-208.792 -1799.139)" fill="#1c3e58"/>
    </g>
    <g id="Group_388" data-name="Group 388" transform="translate(248.755 1516.593)">
      <path id="Path_2589" data-name="Path 2589" d="M459.471,1709.986c.006-.1.015-.2.015-.3a5.277,5.277,0,0,0-5.277-5.276l-.058,0a6.432,6.432,0,0,0-11.576-2.982c-.242-.024-.487-.036-.735-.036a6.943,6.943,0,0,0-7.092,6.784,6.5,6.5,0,0,0,.261,1.8Z" transform="translate(-433.506 -1697.552)" fill="#4088da"/>
      <path id="Path_2590" data-name="Path 2590" d="M458.09,1709.847H433.629a1.242,1.242,0,0,1-1.194-.9,7.777,7.777,0,0,1-.31-2.148,8.194,8.194,0,0,1,8.335-8.026l.17,0a7.672,7.672,0,0,1,13.174,3.086,6.529,6.529,0,0,1,5.544,6.446c0,.1-.006.2-.013.295l0,.072A1.243,1.243,0,0,1,458.09,1709.847Zm-23.447-2.485h22.108a4.042,4.042,0,0,0-3.892-3.088,1.252,1.252,0,0,1-1.321-1.083,5.188,5.188,0,0,0-9.341-2.4,1.242,1.242,0,0,1-1.124.5,5.741,5.741,0,0,0-6.463,5.511A4.9,4.9,0,0,0,434.643,1707.362Z" transform="translate(-432.125 -1696.17)" fill="#1c3e58"/>
    </g>
    <g id="Group_389" data-name="Group 389" transform="translate(128.186 1497.997)">
      <path id="Path_2591" data-name="Path 2591" d="M188.851,1674.116h-1.782a9.545,9.545,0,0,1-9.534-9.534v-6.447a1.242,1.242,0,0,1,2.485,0v6.447a7.057,7.057,0,0,0,7.049,7.049h1.782a7.057,7.057,0,0,0,7.049-7.049v-6.408a1.242,1.242,0,1,1,2.485,0v6.408A9.544,9.544,0,0,1,188.851,1674.116Z" transform="translate(-177.535 -1656.894)" fill="#1c3e58"/>
    </g>
    <g id="Group_390" data-name="Group 390" transform="translate(131.544 1485.532)">
      <path id="Path_2592" data-name="Path 2592" d="M203,1646.21a1.256,1.256,0,0,1-.327-.044c-13.8-3.752-17.8-13.486-17.96-13.9a1.243,1.243,0,0,1,2.31-.917c.046.114,3.774,9.013,16.3,12.418a1.243,1.243,0,0,1-.325,2.442Z" transform="translate(-184.624 -1630.568)" fill="#1c3e58"/>
    </g>
    <g id="Group_391" data-name="Group 391" transform="translate(124.623 1491.167)">
      <path id="Path_2593" data-name="Path 2593" d="M171.252,1652.473a1.243,1.243,0,0,1-.095-2.482c7.828-.606,9.7-6.4,9.774-6.646a1.242,1.242,0,0,1,2.381.712c-.093.313-2.381,7.669-11.963,8.412C171.317,1652.472,171.284,1652.473,171.252,1652.473Z" transform="translate(-170.011 -1642.465)" fill="#1c3e58"/>
    </g>
    <g id="Group_392" data-name="Group 392" transform="translate(124.581 1483.614)">
      <path id="Path_2594" data-name="Path 2594" d="M174.5,1648.755a3.876,3.876,0,0,1-2.371-.817c-1.251-.964-1.98-2.648-2.165-5.005-.27-3.428.609-8.724,3.974-12.363a13.031,13.031,0,0,1,10.01-4.052c4.072,0,7.309,1.237,9.619,3.675,3.689,3.894,3.8,9.563,3.682,11.819-.3,5.616-3.7,6.456-3.842,6.489l-.554-2.422-.039.01c.072-.022,1.757-.575,1.954-4.211.081-1.51.106-6.693-3-9.976-1.823-1.924-4.452-2.9-7.815-2.9a10.647,10.647,0,0,0-8.185,3.254c-2.82,3.051-3.552,7.553-3.322,10.481.156,1.986.721,2.838,1.167,3.2a1.377,1.377,0,0,0,.967.327,1.229,1.229,0,0,1,1.429,1,1.257,1.257,0,0,1-1.017,1.446A2.874,2.874,0,0,1,174.5,1648.755Z" transform="translate(-169.923 -1626.518)" fill="#1c3e58"/>
    </g>
    <g id="Group_393" data-name="Group 393" transform="translate(107.263 1526.885)">
      <path id="Path_2595" data-name="Path 2595" d="M187.406,1758.866H140.992a7.647,7.647,0,0,1-7.638-7.638v-25.673a7.647,7.647,0,0,1,7.638-7.638h46.414a7.647,7.647,0,0,1,7.638,7.638v25.673A7.646,7.646,0,0,1,187.406,1758.866ZM140.992,1720.4a5.159,5.159,0,0,0-5.153,5.153v25.673a5.159,5.159,0,0,0,5.153,5.153h46.414a5.159,5.159,0,0,0,5.153-5.153v-25.673a5.159,5.159,0,0,0-5.153-5.153Z" transform="translate(-133.354 -1717.917)" fill="#1c3e58"/>
    </g>
    <g id="Group_394" data-name="Group 394" transform="translate(114.573 1534.652)">
      <path id="Path_2596" data-name="Path 2596" d="M150.031,1758.18a1.242,1.242,0,0,1-1.242-1.242v-21.38a1.242,1.242,0,1,1,2.485,0v21.38A1.242,1.242,0,0,1,150.031,1758.18Z" transform="translate(-148.789 -1734.316)" fill="#1c3e58"/>
    </g>
    <g id="Group_397" data-name="Group 397" transform="translate(118.444 1512.388)">
      <g id="Group_395" data-name="Group 395">
        <path id="Path_2597" data-name="Path 2597" d="M158.2,1704.279a1.242,1.242,0,0,1-1.243-1.243c0-2.493,3.218-3.912,3.863-4.171l11.261-4.931v-5.4a1.243,1.243,0,0,1,2.485,0v6.215a1.243,1.243,0,0,1-.744,1.138l-12.041,5.271c-1.1.448-2.339,1.357-2.339,1.88A1.243,1.243,0,0,1,158.2,1704.279Z" transform="translate(-156.962 -1687.29)" fill="#1c3e58"/>
      </g>
      <g id="Group_396" data-name="Group 396" transform="translate(22.726)">
        <path id="Path_2598" data-name="Path 2598" d="M221.316,1704.279a1.243,1.243,0,0,1-1.243-1.243c0-.529-1.238-1.437-2.3-1.865l-12.076-5.286a1.243,1.243,0,0,1-.744-1.138v-6.215a1.243,1.243,0,0,1,2.485,0v5.4l11.3,4.945c.61.244,3.828,1.663,3.828,4.156A1.242,1.242,0,0,1,221.316,1704.279Z" transform="translate(-204.949 -1687.29)" fill="#1c3e58"/>
      </g>
    </g>
    <g id="Group_398" data-name="Group 398" transform="translate(134.121 1518.604)">
      <path id="Path_2599" data-name="Path 2599" d="M194.557,1704.052a8.089,8.089,0,0,1-4.49-1.362l1.378-2.069a5.6,5.6,0,0,0,6.223,0,1.243,1.243,0,0,1,1.378,2.068A8.088,8.088,0,0,1,194.557,1704.052Z" transform="translate(-190.067 -1700.413)" fill="#1c3e58"/>
    </g>
    <g id="Group_399" data-name="Group 399" transform="translate(123.754 1575.477)">
      <path id="Path_2600" data-name="Path 2600" d="M195.643,1823.039H169.417a1.242,1.242,0,0,1,0-2.485h26.225a1.242,1.242,0,0,1,0,2.485Z" transform="translate(-168.175 -1820.554)" fill="#1c3e58"/>
    </g>
    <path id="Path_2601" data-name="Path 2601" d="M106.368,1799.456v-6.213a1.242,1.242,0,0,0-1.243-1.242H83.792v2.485h20.091v3.728H83.792v2.484h21.334A1.242,1.242,0,0,0,106.368,1799.456Z" transform="translate(0 -230.034)" fill="#1c3e58"/>
    <path id="Path_2602" data-name="Path 2602" d="M99.059,1785.524v-6.944a1.243,1.243,0,0,0-1.243-1.243H83.792v2.485H96.574v4.459H83.792v2.485H97.817A1.243,1.243,0,0,0,99.059,1785.524Z" transform="translate(0 -222.314)" fill="#1c3e58"/>
    <path id="Path_2603" data-name="Path 2603" d="M199.881,1885.076a1.242,1.242,0,0,0-1.243-1.242H83.792v2.485H198.638A1.243,1.243,0,0,0,199.881,1885.076Z" transform="translate(0 -278.389)" fill="#1c3e58"/>
    <g id="Group_400" data-name="Group 400" transform="translate(214.527 1592.471)">
      <path id="Path_2604" data-name="Path 2604" d="M421.668,1858.923H361.093a1.242,1.242,0,1,1,0-2.485h60.575a1.242,1.242,0,1,1,0,2.485Z" transform="translate(-359.85 -1856.438)" fill="#1c3e58"/>
    </g>
    <g id="Group_401" data-name="Group 401" transform="translate(216.308 1494.918)">
      <path id="Path_2605" data-name="Path 2605" d="M445.234,1707.429H374.106a10.505,10.505,0,0,1-10.493-10.493V1660.9a10.505,10.505,0,0,1,10.493-10.493h71.128a10.506,10.506,0,0,1,10.493,10.493v36.038A10.506,10.506,0,0,1,445.234,1707.429Zm-71.128-54.54a8.017,8.017,0,0,0-8.008,8.008v36.038a8.017,8.017,0,0,0,8.008,8.008h71.128a8.017,8.017,0,0,0,8.008-8.008V1660.9a8.017,8.017,0,0,0-8.008-8.008Z" transform="translate(-363.612 -1650.405)" fill="#1c3e58"/>
    </g>
    <g id="Group_402" data-name="Group 402" transform="translate(221.358 1500.263)">
      <path id="Path_2606" data-name="Path 2606" d="M375.518,1674.442a1.242,1.242,0,0,1-1.243-1.242v-4.718a6.811,6.811,0,0,1,6.8-6.8h37.63a1.242,1.242,0,1,1,0,2.484h-37.63a4.324,4.324,0,0,0-4.319,4.319v4.718A1.242,1.242,0,0,1,375.518,1674.442Z" transform="translate(-374.275 -1661.679)" fill="#1c3e58"/>
    </g>
    <g id="Group_405" data-name="Group 405" transform="translate(242.279 1549.499)">
      <g id="Group_403" data-name="Group 403" transform="translate(2.889)">
        <path id="Path_2607" data-name="Path 2607" d="M457.708,1780.5H425.794a1.243,1.243,0,0,1-.483-2.387l1.467-.619a10.246,10.246,0,0,0,6.279-9.461v-1.117a1.243,1.243,0,0,1,2.485,0v1.117a12.726,12.726,0,0,1-4.811,9.982h22.039a12.726,12.726,0,0,1-4.811-9.982v-1.117a1.243,1.243,0,0,1,2.485,0v1.117a10.246,10.246,0,0,0,6.279,9.461l1.467.619a1.243,1.243,0,0,1-.483,2.387Z" transform="translate(-424.552 -1765.672)" fill="#1c3e58"/>
      </g>
      <g id="Group_404" data-name="Group 404" transform="translate(0 12.342)">
        <path id="Path_2608" data-name="Path 2608" d="M454.464,1800.055H422.613a4.161,4.161,0,0,1,0-8.322h31.851a4.161,4.161,0,0,1,0,8.322Zm-31.851-5.837a1.676,1.676,0,1,0,0,3.352h31.851a1.676,1.676,0,0,0,0-3.352Z" transform="translate(-418.452 -1791.733)" fill="#1c3e58"/>
      </g>
    </g>
    <g id="Group_406" data-name="Group 406" transform="translate(199.726 1557.742)">
      <path id="Path_2609" data-name="Path 2609" d="M355.953,1789.662H344.873a3.4,3.4,0,0,1-3.4-3.395v-.7h-11.64a1.242,1.242,0,1,1,0-2.484h12.882a1.242,1.242,0,0,1,1.243,1.242v1.947a.911.911,0,0,0,.91.91h11.079a.671.671,0,0,0,.67-.67v-2.187a1.242,1.242,0,0,1,1.243-1.242h14.116a1.242,1.242,0,1,1,0,2.484H359.108v.944A3.159,3.159,0,0,1,355.953,1789.662Z" transform="translate(-328.596 -1783.078)" fill="#1c3e58"/>
    </g>
    <g id="Group_407" data-name="Group 407" transform="translate(199.726 1547.452)">
      <path id="Path_2610" data-name="Path 2610" d="M355.953,1767.928H344.873a3.4,3.4,0,0,1-3.4-3.394v-.7h-11.64a1.242,1.242,0,1,1,0-2.485h12.882a1.242,1.242,0,0,1,1.243,1.242v1.947a.911.911,0,0,0,.91.91h11.079a.671.671,0,0,0,.67-.67,1.243,1.243,0,0,1,2.485,0A3.158,3.158,0,0,1,355.953,1767.928Z" transform="translate(-328.596 -1761.345)" fill="#1c3e58"/>
    </g>
    <g id="Group_408" data-name="Group 408" transform="translate(242.416 1549.499)">
      <path id="Path_2611" data-name="Path 2611" d="M419.984,1782.531a1.242,1.242,0,0,1-1.243-1.243v-14.374a1.242,1.242,0,1,1,2.485,0v14.374A1.242,1.242,0,0,1,419.984,1782.531Z" transform="translate(-418.741 -1765.672)" fill="#1c3e58"/>
    </g>
    <g id="Group_409" data-name="Group 409" transform="translate(285.802 1435.177)">
      <path id="Path_2612" data-name="Path 2612" d="M526.261,1576.732a12.371,12.371,0,0,1-12.008-9.5c-.008-.034-.015-.068-.019-.1l-2.1-14c-.417-1.5-2.186-8.1-1.7-10.543,1.24-6.195,5.811-9.221,15.284-10.12,9.625-.913,11.417-7.261,11.434-7.325a1.243,1.243,0,0,1,1.927-.69c.381.275,9.312,6.857,7.278,18.1-.661,3.653-1.194,5.723-1.584,7.235a11.687,11.687,0,0,0-.522,5.08,1.242,1.242,0,1,1-2.475.215,13.99,13.99,0,0,1,.591-5.916c.38-1.474.9-3.494,1.545-7.057a16.115,16.115,0,0,0-5.081-14.61c-1.307,2.437-4.724,6.672-12.878,7.445-10.262.974-12.351,4.484-13.082,8.133-.3,1.476.87,6.586,1.674,9.46a1.274,1.274,0,0,1,.032.151l2.1,14.023a9.879,9.879,0,0,0,10.6,7.484l2.537-.265a1.243,1.243,0,0,1,.259,2.472l-2.537.265A12.182,12.182,0,0,1,526.261,1576.732Z" transform="translate(-510.353 -1524.218)" fill="#1c3e58"/>
    </g>
    <g id="Group_410" data-name="Group 410" transform="translate(294.768 1485.03)">
      <path id="Path_2613" data-name="Path 2613" d="M530.531,1641.889a1.243,1.243,0,0,1-.485-2.387c4.042-1.712,3.041-8.493,3.03-8.562a1.243,1.243,0,0,1,2.455-.386c.056.357,1.313,8.767-4.516,11.235A1.231,1.231,0,0,1,530.531,1641.889Z" transform="translate(-529.287 -1629.506)" fill="#1c3e58"/>
    </g>
    <g id="Group_411" data-name="Group 411" transform="translate(287.558 1457.856)">
      <path id="Path_2614" data-name="Path 2614" d="M540.584,1581.472a1.24,1.24,0,0,1-.994-.5,18.179,18.179,0,0,0-12-6.316c-7.48-.654-11.148,3.979-11.3,4.177a1.243,1.243,0,0,1-1.978-1.5c.184-.242,4.595-5.932,13.5-5.147a20.373,20.373,0,0,1,13.767,7.3,1.243,1.243,0,0,1-.992,1.99Z" transform="translate(-514.062 -1572.111)" fill="#1c3e58"/>
    </g>
    <g id="Group_412" data-name="Group 412" transform="translate(312.836 1463.589)">
      <path id="Path_2615" data-name="Path 2615" d="M570.1,1595.292a2.692,2.692,0,0,1-2.666-2.71v-5.653a2.689,2.689,0,0,1,2.646-2.71h.019a5.539,5.539,0,1,1,0,11.073Zm-.015-8.588c-.082,0-.165.112-.165.225v5.653c0,.114.084.225.169.225a3.056,3.056,0,1,0,.011-6.1Z" transform="translate(-567.439 -1584.219)" fill="#1c3e58"/>
    </g>
    <g id="Group_413" data-name="Group 413" transform="translate(312.836 1471.508)">
      <path id="Path_2616" data-name="Path 2616" d="M569.8,1611.355a2.557,2.557,0,0,1-2.36-2.71v-5.653a1.243,1.243,0,1,1,2.485,0v5.653a.591.591,0,0,0,.039.22,1.122,1.122,0,0,0,.812-.333c.8-.852.642-3.256.539-4.846-.035-.545-.069-1.06-.069-1.5a1.243,1.243,0,0,1,2.485,0c0,.357.031.833.064,1.336.139,2.139.329,5.068-1.206,6.706A3.657,3.657,0,0,1,569.8,1611.355Z" transform="translate(-567.439 -1600.946)" fill="#1c3e58"/>
    </g>
    <g id="Group_414" data-name="Group 414" transform="translate(302.809 1479.429)">
      <path id="Path_2617" data-name="Path 2617" d="M547.509,1637.979a1.242,1.242,0,1,1,0-2.485,14.061,14.061,0,0,0,12.169-6.534c-.591-2.722-2.217-9.682-2.235-9.756a1.242,1.242,0,0,1,2.42-.566c.076.324,1.862,7.962,2.346,10.271a1.244,1.244,0,0,1-.109.82A16.468,16.468,0,0,1,547.509,1637.979Z" transform="translate(-546.266 -1617.678)" fill="#1c3e58"/>
    </g>
    <g id="Group_415" data-name="Group 415" transform="translate(316.293 1489.659)">
      <path id="Path_2618" data-name="Path 2618" d="M577.8,1718.227a1.243,1.243,0,0,1-.647-2.3l13.253-8.071a6.836,6.836,0,0,0,3.261-5.8V1660.6a11.228,11.228,0,0,0-4.633-9.071l-13.781-9.972a1.243,1.243,0,1,1,1.457-2.013l13.781,9.973a13.719,13.719,0,0,1,5.662,11.084v41.448a9.336,9.336,0,0,1-4.454,7.927l-13.253,8.071A1.244,1.244,0,0,1,577.8,1718.227Z" transform="translate(-574.737 -1639.306)" fill="#1c3e58"/>
    </g>
    <path id="Path_2619" data-name="Path 2619" d="M451.264,1869.465a1.242,1.242,0,0,0-1.186-.872H341.125a1.242,1.242,0,1,0,0,2.485h108.04l6.282,20.137h2.538a1.234,1.234,0,0,0-.051-.37Z" transform="translate(-134.812 -270.366)" fill="#1c3e58"/>
    <g id="Group_416" data-name="Group 416" transform="translate(314.024 1598.227)">
      <path id="Path_2620" data-name="Path 2620" d="M613.035,1871.078H571.19a1.242,1.242,0,1,1,0-2.485h41.845a1.242,1.242,0,1,1,0,2.485Z" transform="translate(-569.947 -1868.593)" fill="#1c3e58"/>
    </g>
    <g id="Group_417" data-name="Group 417" transform="translate(315.84 1604.049)">
      <path id="Path_2621" data-name="Path 2621" d="M615.054,1883.371H575.025a1.242,1.242,0,1,1,0-2.485h40.029a1.242,1.242,0,1,1,0,2.485Z" transform="translate(-573.782 -1880.886)" fill="#1c3e58"/>
    </g>
    <path id="Path_2622" data-name="Path 2622" d="M559.213,1806.918s4.058-7.276-3.35-11.69-12.684-.691-18.989-4.756c0,0-2.193,9.662,4.248,14.39,5.081,3.73,11.122,4.677,14.859,3.868a6.449,6.449,0,0,0,3.231-1.812Z" transform="translate(-238.323 -229.231)" fill="#25ce9e"/>
    <path id="Path_2623" data-name="Path 2623" d="M551.879,1808.86a22.384,22.384,0,0,1-12.893-4.374c-7.017-5.151-4.821-15.24-4.725-15.667a1.243,1.243,0,0,1,1.885-.769c2.808,1.811,5.347,1.918,8.286,2.043,3.1.131,6.621.28,10.665,2.689,6.68,3.98,5.406,10.481,3.8,13.363a1.222,1.222,0,0,1-.2.264,7.663,7.663,0,0,1-3.857,2.158A14.143,14.143,0,0,1,551.879,1808.86Zm-15.432-17.8c-.256,2.791-.165,8.362,4.01,11.426,4.812,3.532,10.556,4.372,13.861,3.656a5.167,5.167,0,0,0,2.484-1.347,7.138,7.138,0,0,0-2.977-9.874c-3.5-2.088-6.416-2.211-9.5-2.342A19.17,19.17,0,0,1,536.447,1791.057Z" transform="translate(-236.927 -227.862)" fill="#1c3e58"/>
    <g id="Group_418" data-name="Group 418" transform="translate(330.139 1555.262)">
      <path id="Path_2624" data-name="Path 2624" d="M612.89,1804.622a7.152,7.152,0,0,1-6.272-6.584c-.159-2.5.578-5.62,3.943-8.5,7.127-6.1,14.39-2.947,17.337-9.046,0,0,1.713,9.251-2.056,15.212C622.8,1800.518,619.3,1805.4,612.89,1804.622Z" transform="translate(-605.356 -1779.249)" fill="#25ce9e"/>
      <path id="Path_2625" data-name="Path 2625" d="M612.83,1804.564a12.246,12.246,0,0,1-1.47-.091h0a8.361,8.361,0,0,1-7.362-7.739c-.16-2.5.47-6.181,4.375-9.524,3.611-3.089,7.311-3.968,10.284-4.675,3.164-.751,5.45-1.294,6.742-3.966a1.242,1.242,0,0,1,2.34.314c.073.4,1.756,9.8-2.227,16.1C623.067,1798.854,619.456,1804.564,612.83,1804.564Zm-1.171-2.558c5.56.676,8.613-3.381,11.752-8.347,2.191-3.466,2.368-8.254,2.2-11.32-1.768,1.52-4.029,2.057-6.38,2.615-2.854.678-6.089,1.446-9.243,4.145a8.862,8.862,0,0,0-3.511,7.477,5.875,5.875,0,0,0,5.181,5.43Z" transform="translate(-603.975 -1777.868)" fill="#1c3e58"/>
    </g>
    <g id="Group_419" data-name="Group 419" transform="translate(333.896 1566.087)">
      <path id="Path_2626" data-name="Path 2626" d="M613.15,1812.247a1.243,1.243,0,0,1-1.043-1.916,29.647,29.647,0,0,1,10.773-9.5,1.242,1.242,0,1,1,1.1,2.229,27.451,27.451,0,0,0-9.783,8.615A1.241,1.241,0,0,1,613.15,1812.247Z" transform="translate(-611.908 -1800.704)" fill="#1c3e58"/>
    </g>
    <g id="Group_420" data-name="Group 420" transform="translate(329.166 1577.548)">
      <path id="Path_2627" data-name="Path 2627" d="M603.164,1833.134a1.243,1.243,0,0,1-.426-2.411c1.408-.513,2.275-3.415,2.474-4.74a1.242,1.242,0,1,1,2.457.369c-.085.565-.921,5.553-4.08,6.706A1.257,1.257,0,0,1,603.164,1833.134Z" transform="translate(-601.921 -1824.926)" fill="#1c3e58"/>
    </g>
    <g id="Group_421" data-name="Group 421" transform="translate(301.918 1581.761)">
      <path id="Path_2628" data-name="Path 2628" d="M556.515,1849.2a14.859,14.859,0,0,1-3.263-.32c-5.815-1.342-8.655-8.03-8.773-8.314a1.243,1.243,0,0,1,1.355-1.7c3.575.607,5.8-.888,8.159-2.47,1.72-1.153,3.5-2.347,5.726-2.533a7.833,7.833,0,0,1,7.666,3.56,1.242,1.242,0,0,1-2.177,1.2,5.4,5.4,0,0,0-5.283-2.28c-1.585.131-2.958,1.053-4.547,2.12-2.066,1.386-4.355,2.923-7.6,3.026,1.12,1.79,3.156,4.311,6.028,4.974a19.419,19.419,0,0,0,6.166-.014,1.243,1.243,0,0,1,.413,2.451A25.813,25.813,0,0,1,556.515,1849.2Z" transform="translate(-544.384 -1833.823)" fill="#1c3e58"/>
    </g>
    <g id="Group_422" data-name="Group 422" transform="translate(310.308 1588.205)">
      <path id="Path_2629" data-name="Path 2629" d="M563.343,1850.822a1.242,1.242,0,0,1-.058-2.483,50.809,50.809,0,0,0,7.11-.879,1.243,1.243,0,0,1,.539,2.426,52.248,52.248,0,0,1-7.532.935Z" transform="translate(-562.101 -1847.43)" fill="#1c3e58"/>
    </g>
    <g id="Group_423" data-name="Group 423" transform="translate(297.253 1567.174)">
      <path id="Path_2630" data-name="Path 2630" d="M554.513,1812.381a1.24,1.24,0,0,1-1.055-.585c-2.648-4.243-13.731-6-17.779-6.317a1.243,1.243,0,0,1,.194-2.478c.645.051,15.842,1.308,19.693,7.479a1.243,1.243,0,0,1-1.053,1.9Z" transform="translate(-534.534 -1802.998)" fill="#1c3e58"/>
    </g>
    <g id="Group_424" data-name="Group 424" transform="translate(301.888 1507.517)">
      <path id="Path_2631" data-name="Path 2631" d="M545.564,1733.829a1.243,1.243,0,0,1-.663-2.294l13.609-8.563a7.117,7.117,0,0,0,3.314-6.349l-1.8-38.3a1.243,1.243,0,0,1,2.483-.116l1.8,38.3a9.607,9.607,0,0,1-4.473,8.57l-13.61,8.563A1.237,1.237,0,0,1,545.564,1733.829Z" transform="translate(-544.32 -1677.016)" fill="#1c3e58"/>
    </g>
    <g id="Group_425" data-name="Group 425" transform="translate(335.221 1508.204)">
      <path id="Path_2632" data-name="Path 2632" d="M631.069,1725.626a1.242,1.242,0,0,1-1.243-1.242v-29.557a13.9,13.9,0,0,0-13.878-13.879,1.242,1.242,0,1,1,0-2.485,16.382,16.382,0,0,1,16.364,16.363v29.557A1.243,1.243,0,0,1,631.069,1725.626Z" transform="translate(-614.706 -1678.463)" fill="#1c3e58"/>
    </g>
    <g id="Group_426" data-name="Group 426" transform="translate(335.221 1514.097)">
      <path id="Path_2633" data-name="Path 2633" d="M625.725,1732.177a1.242,1.242,0,0,1-1.243-1.242v-27.912c0-4.546-3.649-9.63-8.533-9.63a1.242,1.242,0,1,1,0-2.485c5.87,0,11.019,5.661,11.019,12.115v27.912A1.242,1.242,0,0,1,625.725,1732.177Z" transform="translate(-614.706 -1690.907)" fill="#1c3e58"/>
    </g>
    <g id="Group_427" data-name="Group 427" transform="translate(430.79 1389.994)">
      <path id="Path_2634" data-name="Path 2634" d="M849.91,1509.163a33.44,33.44,0,0,1-33.4-33.4v-14.436A33.415,33.415,0,0,1,842.28,1428.8a1.243,1.243,0,1,1,.565,2.42,30.778,30.778,0,0,0-23.853,30.107v14.436a30.918,30.918,0,1,0,61.836,0v-11.153a1.242,1.242,0,1,1,2.485,0v11.153A33.44,33.44,0,0,1,849.91,1509.163Z" transform="translate(-816.507 -1428.764)" fill="#1c3e58"/>
    </g>
    <g id="Group_428" data-name="Group 428" transform="translate(495.111 1424.578)">
      <path id="Path_2635" data-name="Path 2635" d="M953.57,1514.759a1.243,1.243,0,0,1-1.243-1.243V1503.24a1.242,1.242,0,1,1,2.485,0v8.9a5.761,5.761,0,0,0,3.771-8.459,1.243,1.243,0,0,1,2.162-1.226,8.246,8.246,0,0,1-7.175,12.3Z" transform="translate(-952.327 -1501.825)" fill="#1c3e58"/>
    </g>
    <g id="Group_429" data-name="Group 429" transform="translate(419.688 1419.381)">
      <path id="Path_2636" data-name="Path 2636" d="M805.409,1511.262c-5.5,0-12.343,0-12.343-10.206s6.844-10.206,12.343-10.206a1.242,1.242,0,0,1,1.243,1.242v17.927A1.242,1.242,0,0,1,805.409,1511.262Zm-1.242-17.92c-5.52.074-8.616.851-8.616,7.714s3.1,7.64,8.616,7.714Z" transform="translate(-793.066 -1490.851)" fill="#1c3e58"/>
    </g>
    <g id="Group_430" data-name="Group 430" transform="translate(443.117 1385.063)">
      <path id="Path_2637" data-name="Path 2637" d="M897.394,1460.2c-14.091,0-20.863-8.9-30.083-21.023-1.72-2.262-3.5-4.6-5.447-7.045-11.742-14.741-17.244-10.812-17.3-10.771a1.23,1.23,0,0,1-1.74-.157,1.254,1.254,0,0,1,.159-1.76,6.163,6.163,0,0,1,4.527-1.05c4.744.469,10.226,4.569,16.3,12.188,1.964,2.466,3.752,4.816,5.481,7.089,9.513,12.507,15.794,20.775,29.917,19.991,3.169-.174,6.012-.409,8.451-.7a1.242,1.242,0,1,1,.291,2.468c-2.49.294-5.385.532-8.605.709Q898.345,1460.2,897.394,1460.2Z" transform="translate(-842.538 -1418.35)" fill="#1c3e58"/>
    </g>
    <g id="Group_431" data-name="Group 431" transform="translate(462.95 1355.116)">
      <path id="Path_2638" data-name="Path 2638" d="M948.466,1478.785c-.6,0-1.205-.011-1.819-.033-29.674-1.063-39.385-17.26-39.783-17.948a1.243,1.243,0,0,1,2.151-1.245c.09.154,9.511,15.7,37.721,16.71a46.262,46.262,0,0,0,32.016-11.161,54.728,54.728,0,0,0,9.731-10.517c-9.764-2.43-15.166-13.952-23.1-30.872q-1.1-2.348-2.274-4.836a138.138,138.138,0,0,1-6.514-18.136c-5.271-17.044-10.722-34.669-30.01-40.688-12.157-3.794-22.914-3.179-31.107,1.779a24.921,24.921,0,0,0-8.719,8.574,1.242,1.242,0,1,1-2.2-1.15,27.129,27.129,0,0,1,9.635-9.55c6.15-3.722,16.891-7.094,33.133-2.025,20.535,6.409,26.183,24.668,31.644,42.327a136.522,136.522,0,0,0,6.386,17.807q1.178,2.489,2.278,4.843c8.085,17.245,13.427,28.638,23.063,29.813a1.243,1.243,0,0,1,.922,1.86,53.323,53.323,0,0,1-11.207,12.622A49.615,49.615,0,0,1,948.466,1478.785Z" transform="translate(-884.416 -1355.116)" fill="#1c3e58"/>
    </g>
    <g id="Group_432" data-name="Group 432" transform="translate(365.691 1357.081)">
      <path id="Path_2639" data-name="Path 2639" d="M725.772,1480.653c-17.448,0-28.682-6.438-35.292-12.3a42.374,42.374,0,0,1-11.359-15.6,1.242,1.242,0,0,1,.889-1.634c15.257-3.521,19.868-19.148,24.751-35.692,1.645-5.574,3.346-11.338,5.487-16.6,10.675-26.249,25.864-39.559,45.144-39.559,22.594,0,26.413,7.578,26.564,7.9a1.242,1.242,0,0,1-2.239,1.077c-.088-.158-3.8-6.493-24.325-6.493-18.171,0-32.585,12.789-42.842,38.01-2.094,5.15-3.777,10.854-5.405,16.37-4.727,16.017-9.611,32.564-25.141,37.039a42.453,42.453,0,0,0,10.219,13.406c10.4,9.173,24.883,13.013,41.878,11.113,12.769-2.442,21.694-8.086,21.711-13.733a1.243,1.243,0,0,1,1.243-1.239h0a1.242,1.242,0,0,1,1.239,1.246c-.021,7.079-9.355,13.428-23.777,16.176-.031.006-.063.011-.094.014A77.444,77.444,0,0,1,725.772,1480.653Z" transform="translate(-679.047 -1359.266)" fill="#1c3e58"/>
    </g>
    <g id="Group_433" data-name="Group 433" transform="translate(381.041 1378.873)">
      <path id="Path_2640" data-name="Path 2640" d="M712.7,1479.167a1.243,1.243,0,0,1-.387-2.423c.12-.041,9.346-3.334,14.268-20.485q.641-2.232,1.273-4.479c4.739-16.76,9.639-34.092,22.081-46.149a1.243,1.243,0,0,1,1.729,1.784c-11.962,11.593-16.77,28.6-21.419,45.041q-.636,2.249-1.275,4.489c-5.33,18.57-15.46,22.025-15.889,22.164A1.254,1.254,0,0,1,712.7,1479.167Z" transform="translate(-711.458 -1405.28)" fill="#1c3e58"/>
    </g>
    <g id="Group_434" data-name="Group 434" transform="translate(481.407 1363.649)">
      <path id="Path_2641" data-name="Path 2641" d="M988.04,1457.585a1.242,1.242,0,0,1-.956-.448c-10.07-12.109-17.744-37.066-21.867-50.473-.372-1.211-.713-2.32-1.022-3.309-3.465-11.088-6.952-19.4-20.334-25.366-12.442-5.548-18.075.359-18.309.614a1.243,1.243,0,0,1-1.846-1.663c.278-.311,6.98-7.547,21.167-1.22,14.3,6.379,18.151,15.558,21.694,26.894.31.992.652,2.1,1.026,3.319,4.071,13.241,11.651,37.889,21.4,49.614a1.243,1.243,0,0,1-.955,2.037Z" transform="translate(-923.39 -1373.134)" fill="#1c3e58"/>
    </g>
    <path id="Path_2642" data-name="Path 2642" d="M843.286,1738.367H678.462a20.178,20.178,0,0,0-20.155,20.155v64.139h2.485v-64.139a17.69,17.69,0,0,1,17.67-17.67H843.286a17.69,17.69,0,0,1,17.67,17.67v64.139h2.485v-64.139A20.178,20.178,0,0,0,843.286,1738.367Z" transform="translate(-302.437 -201.812)" fill="#1c3e58"/>
    <g id="Group_438" data-name="Group 438" transform="translate(447.145 1555.058)">
      <g id="Group_435" data-name="Group 435" transform="translate(10.429 4.933)">
        <path id="Path_2643" data-name="Path 2643" d="M874.408,1803.219a1.242,1.242,0,0,1-1.232-1.095c-.062-.518-1.409-12.694,7.319-14.253a1.242,1.242,0,1,1,.437,2.446c-6.425,1.148-5.3,11.41-5.288,11.514a1.244,1.244,0,0,1-1.089,1.379A1.274,1.274,0,0,1,874.408,1803.219Z" transform="translate(-873.066 -1787.853)" fill="#1c3e58"/>
      </g>
      <g id="Group_436" data-name="Group 436" transform="translate(0 16.047)">
        <path id="Path_2644" data-name="Path 2644" d="M873.043,1826.164c-2.5-5.491-4.915-4.431-5.606-11.1,0-.032-.007-.063-.011-.095-.432-3.53-5.377-4.9-8.085-2.3a12.334,12.334,0,0,0-2.791,4.256,39.107,39.107,0,0,1-3.945,7.092c-1.292,1.886-1.561,5.013-1.561,6.215s1.244,10.5,11,10.5S875.1,1830.669,873.043,1826.164Z" transform="translate(-851.044 -1811.321)" fill="#25ce9e"/>
      </g>
      <g id="Group_437" data-name="Group 437" transform="translate(4.556)">
        <path id="Path_2645" data-name="Path 2645" d="M868.813,1789.548a1.249,1.249,0,0,1-.243-.023c-.446-.088-4.406-.933-6.093-3.349-2.2-3.155-1.789-7.445-1.77-7.626a1.25,1.25,0,0,1,1.311-1.112,18.848,18.848,0,0,1,6.007,1.66c4.909,2.206,4.212,6.08,4.18,6.244a1.242,1.242,0,0,1-2.442-.458c.035-.233.23-2.176-2.757-3.519a18.483,18.483,0,0,0-3.845-1.249,9,9,0,0,0,1.353,4.637c.948,1.357,3.6,2.145,4.541,2.334a1.243,1.243,0,0,1-.242,2.461Z" transform="translate(-860.664 -1777.437)" fill="#1c3e58"/>
      </g>
    </g>
    <g id="Group_439" data-name="Group 439" transform="translate(440.335 1582.146)">
      <path id="Path_2646" data-name="Path 2646" d="M842.652,1853.188a1.247,1.247,0,0,1-.387-.062c-.174-.057-4.269-1.469-5.4-7.327-1.1-5.7,2.646-10.493,2.806-10.694a1.243,1.243,0,0,1,1.946,1.546c-.036.047-3.192,4.119-2.312,8.678.841,4.361,3.632,5.4,3.75,5.441a1.244,1.244,0,0,1-.4,2.418Z" transform="translate(-836.663 -1834.636)" fill="#1c3e58"/>
    </g>
    <g id="Group_440" data-name="Group 440" transform="translate(533.805 1545.6)">
      <path id="Path_2647" data-name="Path 2647" d="M1050.486,1804.531a1.242,1.242,0,0,1-1.242-1.242v-29.367a13.986,13.986,0,0,0-13.97-13.97,1.242,1.242,0,0,1,0-2.485,16.473,16.473,0,0,1,16.454,16.455v29.367A1.242,1.242,0,0,1,1050.486,1804.531Z" transform="translate(-1034.032 -1757.467)" fill="#1c3e58"/>
    </g>
    <g id="Group_441" data-name="Group 441" transform="translate(365.372 1545.6)">
      <path id="Path_2648" data-name="Path 2648" d="M679.614,1806.857a1.242,1.242,0,0,1-1.242-1.243v-31.693a16.473,16.473,0,0,1,16.455-16.455h16.035a1.242,1.242,0,1,1,0,2.485H694.827a13.985,13.985,0,0,0-13.97,13.97v31.693A1.243,1.243,0,0,1,679.614,1806.857Z" transform="translate(-678.372 -1757.467)" fill="#1c3e58"/>
    </g>
    <g id="Group_442" data-name="Group 442" transform="translate(430.034 1499.558)">
      <path id="Path_2649" data-name="Path 2649" d="M849.07,1692.209a34.41,34.41,0,0,1-23.114-8.868,33.789,33.789,0,0,1-11.038-21.779,1.242,1.242,0,0,1,2.473-.244,31.917,31.917,0,0,0,60.262,10.781,1.243,1.243,0,1,1,2.226,1.105A34.154,34.154,0,0,1,849.07,1692.209Z" transform="translate(-814.912 -1660.197)" fill="#1c3e58"/>
    </g>
    <g id="Group_443" data-name="Group 443" transform="translate(380.995 1496.559)">
      <path id="Path_2650" data-name="Path 2650" d="M712.606,1691.023a1.243,1.243,0,0,1-1.2-1.566,71.134,71.134,0,0,1,6.606-15.092c7.207-12.681,23.725-20.086,24.425-20.395a1.243,1.243,0,0,1,1,2.273c-.164.072-16.472,7.391-23.268,19.349A69.8,69.8,0,0,0,713.8,1690.1,1.242,1.242,0,0,1,712.606,1691.023Z" transform="translate(-711.362 -1653.864)" fill="#1c3e58"/>
    </g>
    <g id="Group_444" data-name="Group 444" transform="translate(369.94 1508.893)">
      <path id="Path_2651" data-name="Path 2651" d="M689.261,1704.733a1.257,1.257,0,0,1-.31-.039,1.243,1.243,0,0,1-.894-1.513,68.476,68.476,0,0,1,11.737-22.8,1.242,1.242,0,0,1,1.956,1.532,67.052,67.052,0,0,0-11.287,21.883A1.243,1.243,0,0,1,689.261,1704.733Z" transform="translate(-688.018 -1679.909)" fill="#1c3e58"/>
    </g>
    <g id="Group_445" data-name="Group 445" transform="translate(518.866 1496.559)">
      <path id="Path_2652" data-name="Path 2652" d="M1030.775,1692.53h-.053a1.243,1.243,0,0,1-1.19-1.293c0-.047.121-5.283-4.353-13.613-7.328-13.643-21.878-21.337-22.024-21.414a1.242,1.242,0,0,1,1.147-2.2c.624.324,15.367,8.108,23.066,22.443,4.833,9,4.657,14.656,4.647,14.892A1.243,1.243,0,0,1,1030.775,1692.53Z" transform="translate(-1002.487 -1653.864)" fill="#1c3e58"/>
    </g>
    <g id="Group_446" data-name="Group 446" transform="translate(613.018 1424.404)">
      <path id="Path_2653" data-name="Path 2653" d="M1226.958,1563.432c-12.325,0-22.3-9.538-23.715-22.681-.114-1.057-1.917-15.471-1.935-15.616a1.244,1.244,0,0,1,1.139-1.393c7.692-.583,20.855-15.92,25.278-21.78a1.243,1.243,0,0,1,1.614-.327l20.74,11.991a1.243,1.243,0,0,1,.62,1.076v24.988A23.768,23.768,0,0,1,1226.958,1563.432Zm-23.034-37.406c.44,3.528,1.692,13.552,1.79,14.458,1.279,11.857,10.213,20.462,21.245,20.462a21.28,21.28,0,0,0,21.256-21.257v-24.272l-19.178-11.088C1225.947,1508.285,1213.176,1524,1203.924,1526.026Z" transform="translate(-1201.298 -1501.468)" fill="#1c3e58"/>
    </g>
    <g id="Group_447" data-name="Group 447" transform="translate(639.195 1415.632)">
      <path id="Path_2654" data-name="Path 2654" d="M1257.813,1494.2a1.243,1.243,0,0,1-1.057-1.894c.03-.049,3.054-4.993,3.82-8.4a1.243,1.243,0,1,1,2.425.545c-.858,3.813-4,8.94-4.129,9.156A1.242,1.242,0,0,1,1257.813,1494.2Z" transform="translate(-1256.572 -1482.932)" fill="#1c3e58"/>
    </g>
    <g id="Group_448" data-name="Group 448" transform="translate(606.913 1446.141)">
      <path id="Path_2655" data-name="Path 2655" d="M1197.333,1563.052c-.031,0-.064,0-.1,0-.306-.023-3.085-.343-6.339-4.331-3.526-4.323-2.292-10.129-2.238-10.373a1.243,1.243,0,0,1,1.481-.945,27.5,27.5,0,0,0,5.585.5,1.256,1.256,0,0,1,1.271,1.214,1.243,1.243,0,0,1-1.213,1.271,31.4,31.4,0,0,1-4.849-.317,10.157,10.157,0,0,0,1.889,7.076c2.559,3.137,4.583,3.423,4.6,3.424a1.243,1.243,0,0,1-.093,2.482Z" transform="translate(-1188.407 -1547.369)" fill="#1c3e58"/>
    </g>
    <g id="Group_449" data-name="Group 449" transform="translate(659.934 1441.495)">
      <path id="Path_2656" data-name="Path 2656" d="M1301.609,1556.58a1.242,1.242,0,0,1-1.243-1.242V1538.8a1.242,1.242,0,0,1,1.243-1.243,9.516,9.516,0,0,1,0,19.022Zm1.242-16.416v13.811a7.1,7.1,0,0,0,0-13.811Z" transform="translate(-1300.366 -1537.558)" fill="#1c3e58"/>
    </g>
    <g id="Group_450" data-name="Group 450" transform="translate(582.639 1412.47)">
      <path id="Path_2657" data-name="Path 2657" d="M1138.393,1573a1.242,1.242,0,0,1-.875-2.125c.031-.033,4.392-4.792,7.943-24.826a181.377,181.377,0,0,0,2.334-25.781c.381-9.913.709-18.474,4.04-26.153,5.016-11.566,18.386-17.5,18.953-17.742a1.243,1.243,0,0,1,.992,2.278c-.13.056-13.045,5.8-17.666,16.452-3.145,7.25-3.466,15.6-3.836,25.26a183.471,183.471,0,0,1-2.371,26.119c-3.74,21.1-8.442,25.96-8.64,26.157A1.239,1.239,0,0,1,1138.393,1573Z" transform="translate(-1137.15 -1476.267)" fill="#2b71b5"/>
    </g>
    <g id="Group_451" data-name="Group 451" transform="translate(671.858 1459.332)">
      <path id="Path_2658" data-name="Path 2658" d="M1326.786,1617.288a1.244,1.244,0,0,1-1.185-1.617c3.179-10.068,1.064-38.81,1.042-39.1a1.243,1.243,0,1,1,2.478-.187c.09,1.2,2.172,29.511-1.151,40.034A1.243,1.243,0,0,1,1326.786,1617.288Z" transform="translate(-1325.543 -1575.236)" fill="#2b71b5"/>
    </g>
    <g id="Group_452" data-name="Group 452" transform="translate(589.08 1482.123)">
      <path id="Path_2659" data-name="Path 2659" d="M1151.994,1676.482a1.242,1.242,0,0,1-1.243-1.243,52.523,52.523,0,0,1,.655-7.6c2.844-15.387,17.565-21.924,26.361-25.83,1.232-.547,2.4-1.064,3.38-1.539,7.294-3.523,8.338-15.625,8.347-15.747a1.243,1.243,0,0,1,2.478.194c-.044.556-1.16,13.645-9.744,17.79-1.02.492-2.2,1.017-3.453,1.573-8.888,3.947-22.32,9.911-24.921,23.985a50.606,50.606,0,0,0-.619,7.174A1.242,1.242,0,0,1,1151.994,1676.482Z" transform="translate(-1150.751 -1623.379)" fill="#1c3e58"/>
    </g>
    <g id="Group_453" data-name="Group 453" transform="translate(645.132 1482.788)">
      <path id="Path_2660" data-name="Path 2660" d="M1309.093,1677.22a1.243,1.243,0,0,1-1.242-1.242,50.949,50.949,0,0,0-.624-7.2c-2.6-14.047-16.028-20.011-24.916-23.958-1.251-.555-2.433-1.08-3.453-1.573-8.581-4.144-9.7-16.592-9.744-17.12a1.243,1.243,0,1,1,2.477-.2c.015.17,1.07,11.571,8.348,15.086.984.475,2.147.992,3.38,1.539,8.8,3.906,23.517,10.443,26.356,25.8a52.6,52.6,0,0,1,.66,7.626,1.243,1.243,0,0,1-1.242,1.243Z" transform="translate(-1269.11 -1624.781)" fill="#1c3e58"/>
    </g>
    <g id="Group_454" data-name="Group 454" transform="translate(645.132 1482.788)">
      <path id="Path_2661" data-name="Path 2661" d="M1309.093,1677.22a1.243,1.243,0,0,1-1.242-1.242,50.949,50.949,0,0,0-.624-7.2c-2.6-14.047-16.028-20.011-24.916-23.958-1.251-.555-2.433-1.08-3.453-1.573-8.581-4.144-9.7-16.592-9.744-17.12a1.243,1.243,0,1,1,2.477-.2c.015.17,1.07,11.571,8.348,15.086.984.475,2.147.992,3.38,1.539,8.8,3.906,23.517,10.443,26.356,25.8a52.6,52.6,0,0,1,.66,7.626,1.243,1.243,0,0,1-1.242,1.243Z" transform="translate(-1269.11 -1624.781)" fill="#1c3e58"/>
    </g>
    <g id="Group_455" data-name="Group 455" transform="translate(623.409 1494.866)">
      <path id="Path_2662" data-name="Path 2662" d="M1237.441,1664.528c-5.666,0-12.172-3.863-14.111-12.536a1.243,1.243,0,0,1,2.148-1.209l.026.034a1.233,1.233,0,0,1,.218.481c1.721,8,7.421,10.8,11.815,10.745,4.247-.041,9.752-2.883,11.287-10.756a1.242,1.242,0,1,1,2.439.475c-1.5,7.689-6.877,12.7-13.7,12.765Z" transform="translate(-1223.239 -1650.281)" fill="#1c3e58"/>
    </g>
    <g id="Group_456" data-name="Group 456" transform="translate(615.531 1506.701)">
      <path id="Path_2663" data-name="Path 2663" d="M1229.956,1693.205c-17.8,0-23.239-16.137-23.292-16.3a1.243,1.243,0,0,1,2.363-.769h0c.2.6,4.965,14.584,20.929,14.584a20.937,20.937,0,0,0,17.489-8.635,1.243,1.243,0,1,1,2.118,1.3C1249.317,1683.786,1243.38,1693.205,1229.956,1693.205Z" transform="translate(-1206.603 -1675.279)" fill="#1c3e58"/>
    </g>
    <g id="Group_457" data-name="Group 457" transform="translate(570.944 1532.718)">
      <path id="Path_2664" data-name="Path 2664" d="M1248.189,1806.824a1.242,1.242,0,0,1-1.243-1.243v-61.741a11.1,11.1,0,0,0-11.092-11.092H1126.033a11.1,11.1,0,0,0-11.092,11.092v12.334a1.242,1.242,0,1,1-2.485,0v-12.334a13.592,13.592,0,0,1,13.577-13.577h109.821a13.592,13.592,0,0,1,13.577,13.577v61.741A1.242,1.242,0,0,1,1248.189,1806.824Z" transform="translate(-1112.456 -1730.264)" fill="#1c3e58"/>
    </g>
    <g id="Group_458" data-name="Group 458" transform="translate(630.905 1568.448)">
      <circle id="Ellipse_77" data-name="Ellipse 77" cx="7.088" cy="7.088" r="7.088" transform="translate(0 3.257) rotate(-13.283)" fill="#fabf62"/>
    </g>
    <g id="Group_459" data-name="Group 459" transform="translate(621.904 1559.446)">
      <path id="Path_2665" data-name="Path 2665" d="M1237.59,1821.761a1.242,1.242,0,0,1-1.243-1.242v-5.574a1.242,1.242,0,1,1,2.485,0v5.574A1.242,1.242,0,0,1,1237.59,1821.761Zm-11.516-4.77a1.242,1.242,0,0,1-.879-2.121l3.941-3.941a1.242,1.242,0,0,1,1.757,1.757l-3.941,3.941A1.239,1.239,0,0,1,1226.073,1816.99Zm23.032,0a1.239,1.239,0,0,1-.879-.364l-3.941-3.941a1.243,1.243,0,0,1,1.757-1.757l3.941,3.941a1.242,1.242,0,0,1-.878,2.121Zm4.769-11.516H1248.3a1.242,1.242,0,1,1,0-2.484h5.573a1.242,1.242,0,1,1,0,2.484Zm-27,0H1221.3a1.242,1.242,0,1,1,0-2.484h5.573a1.242,1.242,0,0,1,0,2.484Zm3.137-7.575a1.238,1.238,0,0,1-.879-.364l-3.941-3.941a1.243,1.243,0,0,1,1.757-1.757l3.941,3.941a1.243,1.243,0,0,1-.878,2.121Zm15.15,0a1.243,1.243,0,0,1-.879-2.121l3.941-3.941a1.243,1.243,0,0,1,1.757,1.757l-3.941,3.941A1.237,1.237,0,0,1,1245.164,1797.9Zm-7.574-3.138a1.242,1.242,0,0,1-1.243-1.242v-5.574a1.242,1.242,0,0,1,2.485,0v5.574A1.242,1.242,0,0,1,1237.59,1794.762Z" transform="translate(-1220.061 -1786.704)" fill="#1c3e58"/>
    </g>
    <g id="Group_460" data-name="Group 460" transform="translate(586.642 1541.137)">
      <path id="Path_2666" data-name="Path 2666" d="M1257.232,1775.567a1.242,1.242,0,0,1-1.242-1.242V1762.5a12.02,12.02,0,0,0-12.006-12.005h-97.139a1.242,1.242,0,1,1,0-2.485h97.139a14.506,14.506,0,0,1,14.49,14.49v11.821A1.242,1.242,0,0,1,1257.232,1775.567Z" transform="translate(-1145.602 -1748.014)" fill="#1c3e58"/>
    </g>
    <g id="Group_461" data-name="Group 461" transform="translate(752.945 1491.563)">
      <path id="Path_2667" data-name="Path 2667" d="M1501.369,1649.093h-3.36a1.242,1.242,0,0,1,0-2.485h3.36a16.382,16.382,0,0,0,8.825-3.084,1.243,1.243,0,0,1,1.418,2.042A19.124,19.124,0,0,1,1501.369,1649.093Z" transform="translate(-1496.766 -1643.303)" fill="#1c3e58"/>
    </g>
    <g id="Group_462" data-name="Group 462" transform="translate(770.236 1462.083)">
      <path id="Path_2668" data-name="Path 2668" d="M1534.518,1608.2a1.243,1.243,0,0,1-1.079-1.856,14.768,14.768,0,0,0,1.916-7.28v-16.782a1.242,1.242,0,1,1,2.485,0v16.782a17.247,17.247,0,0,1-2.24,8.506A1.242,1.242,0,0,1,1534.518,1608.2Z" transform="translate(-1533.277 -1581.042)" fill="#1c3e58"/>
    </g>
    <g id="Group_463" data-name="Group 463" transform="translate(732.936 1442.303)">
      <path id="Path_2669" data-name="Path 2669" d="M1464.621,1603.427a1.221,1.221,0,0,1-.154-.01,1.242,1.242,0,0,1-1.08-1.386,28.655,28.655,0,0,0,.124-6.928c-2.528,1.9-6.189,1.5-8.141.861a1.243,1.243,0,0,1-.432-2.116c2.72-2.38,2.424-8.678,2.082-15.97a103.971,103.971,0,0,1,.059-15.289c1.322-13.042,9.308-19.116,25.134-19.116,12.944,0,18.036-3.892,18.086-3.932a1.247,1.247,0,0,1,2.005.792c.1.664,2.265,16.337-7.159,21.074-4.915,2.47-8.238,1.5-11.453.568a14.736,14.736,0,0,0-7.252-.778c-6.414,1.139-7.46,4.22-7.289,10.274a1.242,1.242,0,1,1-2.484.071c-.194-6.839,1.3-11.365,9.339-12.791a17.206,17.206,0,0,1,8.381.838c3.005.874,5.6,1.629,9.643-.4,6.116-3.074,6.241-12.52,5.991-16.594-2.622,1.329-8.206,3.366-17.807,3.366-14.489,0-21.478,5.206-22.662,16.882a102.12,102.12,0,0,0-.048,14.922c.326,6.958.6,12.685-1.492,16.212,1.666.171,4-.029,5.065-2.148a1.229,1.229,0,0,1,1.148-.683,1.242,1.242,0,0,1,1.1.753c.058.135,1.4,3.382.524,10.44A1.243,1.243,0,0,1,1464.621,1603.427Z" transform="translate(-1454.515 -1539.272)" fill="#1c3e58"/>
    </g>
    <g id="Group_464" data-name="Group 464" transform="translate(759.098 1494.552)">
      <path id="Path_2670" data-name="Path 2670" d="M1511.813,1662.371a1.243,1.243,0,0,1-1.238-1.145l-.813-10.269a1.243,1.243,0,1,1,2.478-.2l.813,10.269a1.243,1.243,0,0,1-1.141,1.336C1511.879,1662.37,1511.846,1662.371,1511.813,1662.371Z" transform="translate(-1509.759 -1649.617)" fill="#1c3e58"/>
    </g>
    <g id="Group_465" data-name="Group 465" transform="translate(734.771 1503.047)">
      <path id="Path_2671" data-name="Path 2671" d="M1480.584,1690.286a1.238,1.238,0,0,1-.526-.117c-17.427-8.158-21.422-17.985-21.584-18.4a1.243,1.243,0,0,1,.211-1.256c1.572-1.846,5.8-2.761,6.636-2.926a1.24,1.24,0,0,1,1.11.33c6.895,6.733,18.152,9.893,18.265,9.924a1.243,1.243,0,0,1,.552,2.074c-2.1,2.11-3.187,7.421-3.431,9.288a1.242,1.242,0,0,1-1.232,1.083Zm-19.409-18.644c1.259,2.305,5.913,9.336,18.461,15.565a24.011,24.011,0,0,1,2.659-7.51c-3.477-1.159-11.391-4.209-17.112-9.536A15.414,15.414,0,0,0,1461.175,1671.642Z" transform="translate(-1458.39 -1667.563)" fill="#1c3e58"/>
    </g>
    <g id="Group_466" data-name="Group 466" transform="translate(759.505 1504.818)">
      <path id="Path_2672" data-name="Path 2672" d="M1518.193,1685.812a1.245,1.245,0,0,1-.608-.159l-6.334-3.563a1.243,1.243,0,0,1-.554-1.519,15.221,15.221,0,0,0,.356-7.76,1.242,1.242,0,0,1,.259-1.062,1.227,1.227,0,0,1,1-.447c2.77.1,8.1,1.72,8.46,7.174.187,4.613-1.441,6.677-1.628,6.9A1.242,1.242,0,0,1,1518.193,1685.812Zm-4.858-5.4,4.367,2.456a10.563,10.563,0,0,0,.586-4.26c-.2-3.062-2.786-4.182-4.519-4.591A18.012,18.012,0,0,1,1513.336,1680.41Z" transform="translate(-1510.618 -1671.3)" fill="#1c3e58"/>
    </g>
    <g id="Group_467" data-name="Group 467" transform="translate(767.191 1514.399)">
      <path id="Path_2673" data-name="Path 2673" d="M1548.2,1772.9a1.238,1.238,0,0,1-.775-.272l-8.837-7.068a10.726,10.726,0,0,1-4-8.838c.436-9.545,1.129-27.444.863-40.076-.347-16.471-8.047-22.79-8.125-22.851a1.242,1.242,0,0,1,1.536-1.953c.354.277,8.7,7.008,9.074,24.753.267,12.7-.427,30.665-.865,40.241a8.231,8.231,0,0,0,3.074,6.783l8.837,7.067a1.242,1.242,0,0,1-.776,2.213Z" transform="translate(-1526.848 -1691.583)" fill="#1c3e58"/>
    </g>
    <g id="Group_468" data-name="Group 468" transform="translate(716.581 1511.736)">
      <path id="Path_2674" data-name="Path 2674" d="M1442.6,1777.265h-.016c-11.324-.141-21.784-10.032-22.224-10.453a1.243,1.243,0,0,1-.381-.981c.027-.406,2.761-40.761,4.353-57.037,1.669-17.064,18.889-22.72,19.062-22.776a1.242,1.242,0,0,1,.753,2.368c-.162.052-15.835,5.241-17.342,20.65-1.481,15.153-3.959,51.271-4.306,56.365,2.02,1.794,10.976,9.265,20.115,9.38a1.242,1.242,0,0,1-.015,2.485Z" transform="translate(-1419.98 -1685.958)" fill="#1c3e58"/>
    </g>
    <g id="Group_469" data-name="Group 469" transform="translate(759.911 1531.295)">
      <path id="Path_2675" data-name="Path 2675" d="M1512.717,1788a1.244,1.244,0,0,1-1.129-1.761c.046-.106,1.3-3.108,4.64-19.417,3.395-16.564,1.2-37.974,1.181-38.188a1.242,1.242,0,1,1,2.471-.26c.023.218,2.253,22.01-1.218,38.947-3.461,16.889-4.762,19.836-4.816,19.953A1.243,1.243,0,0,1,1512.717,1788Z" transform="translate(-1511.475 -1727.259)" fill="#1c3e58"/>
    </g>
    <g id="Group_470" data-name="Group 470" transform="translate(787.299 1512.48)">
      <path id="Path_2676" data-name="Path 2676" d="M1579.228,1758.037a9.933,9.933,0,0,1-9.922-9.922v-50.662a9.933,9.933,0,0,1,9.922-9.923,1.179,1.179,0,0,1,.121.006l44.163,4.334a9.933,9.933,0,0,1,9.859,9.922v44.362a9.933,9.933,0,0,1-9.893,9.922l-2.069.092h-.056a1.242,1.242,0,0,1-.055-2.483l2.1-.093h.055a7.446,7.446,0,0,0,7.437-7.438v-44.362a7.446,7.446,0,0,0-7.437-7.437,1.143,1.143,0,0,1-.121-.006l-44.159-4.333a7.445,7.445,0,0,0-7.378,7.437v50.662a7.446,7.446,0,0,0,7.411,7.438l33.042-1.465a1.243,1.243,0,0,1,.11,2.483l-33.071,1.466Z" transform="translate(-1569.306 -1687.531)" fill="#1c3e58"/>
    </g>
    <g id="Group_471" data-name="Group 471" transform="translate(830.503 1546.498)">
      <path id="Path_2677" data-name="Path 2677" d="M1661.778,1781.143a1.242,1.242,0,0,1-1.243-1.243v-19.324a1.242,1.242,0,0,1,1.243-1.242,10.9,10.9,0,0,1,0,21.809Zm1.242-19.233v16.656a8.42,8.42,0,0,0,0-16.656Z" transform="translate(-1660.535 -1759.334)" fill="#1c3e58"/>
    </g>
    <g id="Group_472" data-name="Group 472" transform="translate(794.24 1519.05)">
      <path id="Path_2678" data-name="Path 2678" d="M1585.205,1742.532a1.242,1.242,0,0,1-1.242-1.242v-30.517a9.4,9.4,0,0,1,9.981-9.383l4.632.287a1.242,1.242,0,0,1-.154,2.48l-4.632-.287a6.917,6.917,0,0,0-7.343,6.9v30.517A1.242,1.242,0,0,1,1585.205,1742.532Z" transform="translate(-1583.963 -1701.37)" fill="#1c3e58"/>
    </g>
    <g id="Group_473" data-name="Group 473" transform="translate(731.062 1538.373)">
      <path id="Path_2679" data-name="Path 2679" d="M1451.8,1790.843a1.244,1.244,0,0,1-1.153-1.7c.041-.1,4.122-10.347,7.083-20.947,2.937-10.511,3.241-24.626,3.244-24.767a1.243,1.243,0,1,1,2.485.048c-.011.59-.312,14.567-3.335,25.388-3,10.734-7.128,21.1-7.169,21.2A1.244,1.244,0,0,1,1451.8,1790.843Z" transform="translate(-1450.559 -1742.206)" fill="#1c3e58"/>
    </g>
    <g id="Group_474" data-name="Group 474" transform="translate(731.9 1581.652)">
      <path id="Path_2680" data-name="Path 2680" d="M1496.45,1849.5a1.233,1.233,0,0,1-.432-.078c-.3-.111-29.92-11.116-34.383-12.7a11.844,11.844,0,0,0-7.6-.018,1.242,1.242,0,0,1-.93-2.3,14.164,14.164,0,0,1,9.367-.019c4.479,1.592,34.117,12.6,34.416,12.714a1.242,1.242,0,0,1-.433,2.407Z" transform="translate(-1452.326 -1833.593)" fill="#1c3e58"/>
    </g>
    <g id="Group_475" data-name="Group 475" transform="translate(725.581 1525.06)">
      <path id="Path_2681" data-name="Path 2681" d="M1440.227,1743.953l-.071,0a1.242,1.242,0,0,1-1.171-1.31c.005-.1.555-9.827,1.1-17.154a13.9,13.9,0,0,1,6.939-11.3,1.243,1.243,0,0,1,1.122,2.217,11.422,11.422,0,0,0-5.583,9.263c-.541,7.305-1.09,17.012-1.1,17.109A1.242,1.242,0,0,1,1440.227,1743.953Z" transform="translate(-1438.984 -1714.058)" fill="#1c3e58"/>
    </g>
    <g id="Group_476" data-name="Group 476" transform="translate(105.391 1605.445)">
      <path id="Path_2682" data-name="Path 2682" d="M140.053,1883.834h-9.411a1.242,1.242,0,0,0-1.242,1.242v14.162h2.485v-12.919h6.926v12.919H141.3v-14.162A1.242,1.242,0,0,0,140.053,1883.834Z" transform="translate(-129.4 -1883.834)" fill="#1c3e58"/>
      <path id="Path_2683" data-name="Path 2683" d="M266.227,1883.834h-9.411a1.242,1.242,0,0,0-1.243,1.242v14.162h2.485v-12.919h6.926v12.919h2.485v-14.162A1.242,1.242,0,0,0,266.227,1883.834Z" transform="translate(-195.82 -1883.834)" fill="#1c3e58"/>
    </g>
    <g id="Group_477" data-name="Group 477" transform="translate(494.78 1503.747)">
      <path id="Path_2684" data-name="Path 2684" d="M953.086,1671.953a1.459,1.459,0,0,1-.291-2.889,1.489,1.489,0,0,1,.292-.029,1.459,1.459,0,0,1,.291,2.889,1.483,1.483,0,0,1-.292.029Z" transform="translate(-951.628 -1669.034)" fill="#1c3e58"/>
    </g>
    <g id="Group_478" data-name="Group 478" transform="translate(401.128 1545.4)">
      <path id="Path_2685" data-name="Path 2685" d="M755.333,1759.927a1.464,1.464,0,0,1-1.429-1.168,1.459,1.459,0,0,1,1.138-1.721,1.432,1.432,0,0,1,.292-.03,1.459,1.459,0,0,1,.291,2.889,1.487,1.487,0,0,1-.292.029Z" transform="translate(-753.874 -1757.009)" fill="#1c3e58"/>
    </g>
    <g id="Group_479" data-name="Group 479" transform="translate(221.141 1515.866)">
      <path id="Path_2686" data-name="Path 2686" d="M375.277,1697.549a1.459,1.459,0,0,1-1.217-2.265,1.448,1.448,0,0,1,.926-.625,1.459,1.459,0,1,1,.291,2.889Z" transform="translate(-373.817 -1694.63)" fill="#1c3e58"/>
    </g>
    <g id="Group_480" data-name="Group 480" transform="translate(658.916 1508.197)">
      <path id="Path_2687" data-name="Path 2687" d="M1299.675,1681.352a1.459,1.459,0,1,1,1.431-1.75,1.46,1.46,0,0,1-1.139,1.721,1.486,1.486,0,0,1-.292.029Z" transform="translate(-1298.215 -1678.433)" fill="#1c3e58"/>
    </g>
    <g id="Group_481" data-name="Group 481" transform="translate(577.955 1511.335)">
      <path id="Path_2688" data-name="Path 2688" d="M1128.718,1687.981a1.458,1.458,0,1,1,.292-.029,1.464,1.464,0,0,1-.292.029Z" transform="translate(-1127.26 -1685.062)" fill="#1c3e58"/>
    </g>
    <g id="Group_482" data-name="Group 482" transform="translate(794.023 1566.251)">
      <path id="Path_2689" data-name="Path 2689" d="M1584.962,1803.967a1.459,1.459,0,0,1-.29-2.889,1.483,1.483,0,0,1,.292-.029,1.463,1.463,0,0,1,1.429,1.168,1.459,1.459,0,0,1-1.139,1.721,1.487,1.487,0,0,1-.292.029Z" transform="translate(-1583.504 -1801.048)" fill="#1c3e58"/>
    </g>
    <g id="Group_483" data-name="Group 483" transform="translate(737.287 1522.418)">
      <path id="Path_2690" data-name="Path 2690" d="M1465.16,1711.389a1.464,1.464,0,0,1-1.429-1.169,1.46,1.46,0,0,1,1.431-1.75,1.465,1.465,0,0,1,1.429,1.168,1.46,1.46,0,0,1-1.139,1.721,1.467,1.467,0,0,1-.292.029Z" transform="translate(-1463.702 -1708.47)" fill="#1c3e58"/>
    </g>
    <g id="Group_484" data-name="Group 484" transform="translate(703.701 1528.901)">
      <path id="Path_2691" data-name="Path 2691" d="M1394.026,1734.516a1.243,1.243,0,0,1-1.177-1.64c4.385-12.982,19.306-10.538,19.457-10.512a1.243,1.243,0,0,1-.425,2.449h0c-.528-.089-12.979-2.091-16.677,8.859A1.244,1.244,0,0,1,1394.026,1734.516Z" transform="translate(-1392.783 -1722.165)" fill="#1c3e58"/>
    </g>
    <g id="Group_485" data-name="Group 485" transform="translate(719.3 1593.668)">
      <path id="Path_2692" data-name="Path 2692" d="M1426.966,1874.723c-.039,0-.078,0-.116-.005a1.243,1.243,0,0,1-1.122-1.352l1.234-13.272a1.243,1.243,0,1,1,2.474.23L1428.2,1873.6A1.243,1.243,0,0,1,1426.966,1874.723Z" transform="translate(-1425.721 -1858.966)" fill="#1c3e58"/>
    </g>
    <g id="Group_486" data-name="Group 486" transform="translate(290.795 1444.634)">
      <path id="Path_2693" data-name="Path 2693" d="M522.139,1555.666a1.243,1.243,0,0,1-1-1.981c1.8-2.435,5.749-5.149,11.439-5.465,6.263-.348,9.983-1.865,10.422-3.183a1.243,1.243,0,0,1,2.359.784c-1.277,3.841-9.266,4.692-12.642,4.88-4.83.268-8.116,2.48-9.579,4.46A1.241,1.241,0,0,1,522.139,1555.666Z" transform="translate(-520.898 -1544.186)" fill="#1c3e58"/>
    </g>
    <g id="Group_487" data-name="Group 487" transform="translate(319.649 1576.436)">
      <path id="Path_2694" data-name="Path 2694" d="M594.223,1846.854a1.242,1.242,0,0,1-1.243-1.243c0-19.773-9.569-20.526-9.976-20.549a1.248,1.248,0,0,1-1.179-1.3,1.231,1.231,0,0,1,1.281-1.185c.5.019,12.359.712,12.359,23.032A1.243,1.243,0,0,1,594.223,1846.854Z" transform="translate(-581.824 -1822.578)" fill="#1c3e58"/>
    </g>
    <g id="Group_488" data-name="Group 488" transform="translate(129.328 1540.157)">
      <path id="Path_2695" data-name="Path 2695" d="M197.645,1760.486H182.57l7.538-11.923Z" transform="translate(-181.327 -1747.32)" fill="#fabf62"/>
      <path id="Path_2696" data-name="Path 2696" d="M196.264,1760.347H181.189a1.242,1.242,0,0,1-1.05-1.906l7.538-11.923a1.242,1.242,0,0,1,2.1,0l7.537,11.923a1.242,1.242,0,0,1-1.05,1.906Zm-12.82-2.485h10.564l-5.282-8.355Z" transform="translate(-179.946 -1745.939)" fill="#1c3e58"/>
    </g>
  </g>
</svg>
