<svg xmlns="http://www.w3.org/2000/svg" width="712.607" height="444.971" viewBox="0 0 712.607 444.971">
  <g id="illus-footer" transform="translate(-79.07 -315.436)">
    <g id="Group_676" data-name="Group 676" transform="translate(535.605 423.502)">
      <path id="Path_2864" data-name="Path 2864" d="M737.206,496.752l-6.641,4.36a13.371,13.371,0,0,0-5.75,13.908l2.892,13.861a11.564,11.564,0,0,1-8.562,13.593l-18.52,4.55a3.6,3.6,0,0,0-2.651,4.3l.018.079a2.9,2.9,0,0,0,3.531,2.187l23.582-5.853a15.2,15.2,0,0,0,11.387-16.857l-2.526-18.053c-.559-3.994.592-9.354,4.339-9.806l3.44-.257c1.995-.137,3.072.467,3.262,3.238l.624,9.092c.151,2.2-2.1,4.778-5.073,4.983l-1.227.084q.069,1.136.13,2.283c1.158,21.61,33.315,15.564,33.315,15.564l1.029-9.1s-1.664.141-3.8-2.267a12.726,12.726,0,0,1-2.891-6.144c-2.4-12.832.94-31.493-5.4-46.928-6.817-16.593-25.469-16.464-49.779-11.834s-31.6-.9-31.6-.9-.9,23.068,13.806,25.555c6.857,0,20.3-1.582,29.93-2.843a11.325,11.325,0,0,1,12.714,9.8C736.907,494.286,737.082,495.717,737.206,496.752Z" transform="translate(-679.037 -457.761)" fill="#fff"/>
      <path id="Path_2865" data-name="Path 2865" d="M700.419,554.56h0a4.179,4.179,0,0,1-4.084-3.272,4.927,4.927,0,0,1,3.581-5.916l18.519-4.55a10.241,10.241,0,0,0,7.61-12.081l-2.893-13.861a14.575,14.575,0,0,1,6.3-15.245l5.974-3.923c-.109-.892-.231-1.892-.323-2.609a10.033,10.033,0,0,0-11.271-8.687c-9.94,1.3-23.23,2.854-30.1,2.854a1.341,1.341,0,0,1-.214-.018c-15.642-2.646-14.916-25.885-14.877-26.873a1.286,1.286,0,0,1,2.063-.975c.022.015,3.558,2.487,13.5,2.487a92.815,92.815,0,0,0,17.085-1.826c9.693-1.847,17.117-2.706,23.362-2.706,14.706,0,23.555,4.866,27.848,15.315,4.057,9.874,4.243,21.089,4.4,30.985.1,5.91.191,11.493,1.071,16.2a11.486,11.486,0,0,0,2.59,5.528c1.6,1.806,2.772,1.835,2.782,1.836a1.249,1.249,0,0,1,1,.386,1.271,1.271,0,0,1,.328,1.043l-1.029,9.1a1.287,1.287,0,0,1-1.04,1.119,58.056,58.056,0,0,1-9.74.8c-15.578,0-24.492-6.235-25.1-17.56q-.061-1.142-.131-2.272a1.287,1.287,0,0,1,1.2-1.361l1.227-.084a4.487,4.487,0,0,0,2.874-1.355,3.143,3.143,0,0,0,1-2.256l-.624-9.092c-.141-2.059-.678-2.059-1.489-2.059-.129,0-.263,0-.4.015L738,503.9a2.734,2.734,0,0,0-1.837,1.147c-1.179,1.534-1.711,4.426-1.323,7.2l2.526,18.054a16.445,16.445,0,0,1-12.351,18.282l-23.582,5.853A4.216,4.216,0,0,1,700.419,554.56Zm24.74-72.8a12.63,12.63,0,0,1,12.5,11.022c.12.946.3,2.379.42,3.417a1.288,1.288,0,0,1-.571,1.229l-6.641,4.361a12.018,12.018,0,0,0-5.2,12.571l2.892,13.861a12.8,12.8,0,0,1-9.515,15.1l-18.519,4.55a2.324,2.324,0,0,0-1.7,2.765,1.643,1.643,0,0,0,1.984,1.305l23.583-5.852a13.877,13.877,0,0,0,10.422-15.429L732.289,512.6c-.368-2.631-.108-6.6,1.834-9.123a5.335,5.335,0,0,1,3.625-2.138l3.5-.263c.208-.014.4-.022.586-.022,2.523,0,3.85,1.457,4.055,4.455l.624,9.092a5.644,5.644,0,0,1-1.722,4.222,7,7,0,0,1-4.5,2.129c.019.338.037.678.055,1.019.671,12.5,12.622,15.123,22.53,15.123a58.929,58.929,0,0,0,8.332-.605l.788-6.967a8.287,8.287,0,0,1-3.352-2.437,14.053,14.053,0,0,1-3.193-6.761c-.92-4.917-1.013-10.605-1.113-16.626-.16-9.667-.342-20.625-4.213-30.05-3.846-9.36-11.939-13.72-25.468-13.72-6.079,0-13.35.845-22.881,2.661a95.462,95.462,0,0,1-17.566,1.87c-6.706,0-10.781-1.08-12.97-1.948.2,5.481,1.749,20.251,12.611,22.182,6.762-.017,19.842-1.548,29.654-2.833A12.718,12.718,0,0,1,725.159,481.755Z" transform="translate(-678.633 -457.358)" fill="#e2e8ed"/>
    </g>
    <g id="Group_677" data-name="Group 677" transform="translate(254.606 455.767)">
      <path id="Path_2866" data-name="Path 2866" d="M341.918,499.732l.1.3s-2.23,3.773-8.061,3.773c-5.259,0-7.581-3.06-7.988-3.663A24.965,24.965,0,0,0,309.6,523.58h49.908A24.964,24.964,0,0,0,341.918,499.732Z" transform="translate(-309.6 -499.732)" fill="#53daa9"/>
    </g>
    <g id="Group_678" data-name="Group 678" transform="translate(459.599 426.186)">
      <path id="Path_2867" data-name="Path 2867" d="M589.62,631.059H580.1a1.287,1.287,0,0,1-1.286-1.287v-167.6a1.286,1.286,0,0,1,1.286-1.286h9.519a1.286,1.286,0,0,1,1.286,1.286v167.6A1.287,1.287,0,0,1,589.62,631.059Zm-8.233-2.573h6.947V463.455h-6.947Z" transform="translate(-578.815 -460.883)" fill="#e2e8ed"/>
    </g>
    <g id="Group_679" data-name="Group 679" transform="translate(733.793 633.795)">
      <path id="Path_2868" data-name="Path 2868" d="M964.541,748.39h-18.2a7.428,7.428,0,1,1,0-14.857h18.2a7.428,7.428,0,1,1,0,14.857Zm-18.2-12.284a4.856,4.856,0,1,0,0,9.711h18.2a4.856,4.856,0,1,0,0-9.711Z" transform="translate(-938.912 -733.534)" fill="#e2e8ed"/>
    </g>
    <g id="Group_680" data-name="Group 680" transform="translate(125.003 420.1)">
      <path id="Path_2869" data-name="Path 2869" d="M161.2,452.89l6.738,13.653L183,468.733l-10.9,10.628,2.574,15.006L161.2,487.282l-13.477,7.085,2.574-15.006-10.9-10.628,15.067-2.189Z" transform="translate(-139.393 -452.89)" fill="#f7d194"/>
    </g>
    <g id="Group_681" data-name="Group 681" transform="translate(485.457 523.301)">
      <path id="Path_2870" data-name="Path 2870" d="M631.522,588.423l5.793,11.738,12.954,1.882-9.374,9.137,2.213,12.9-11.587-6.091-11.586,6.091,2.213-12.9-9.374-9.137,12.954-1.882Z" transform="translate(-612.774 -588.423)" fill="#f6d094"/>
    </g>
    <g id="Group_682" data-name="Group 682" transform="translate(144.928 519.442)">
      <rect id="Rectangle_198" data-name="Rectangle 198" width="58.912" height="37.56" fill="#53daa9"/>
    </g>
    <g id="Group_683" data-name="Group 683" transform="translate(705.195 362.805)">
      <circle id="Ellipse_80" data-name="Ellipse 80" cx="8.361" cy="8.361" r="8.361" fill="#ebf0f6"/>
    </g>
    <g id="Group_684" data-name="Group 684" transform="translate(701.508 429.392)">
      <circle id="Ellipse_81" data-name="Ellipse 81" cx="11.834" cy="11.834" r="11.834" transform="translate(0 3.791) rotate(-9.217)" fill="#ebf0f6"/>
    </g>
    <g id="Group_685" data-name="Group 685" transform="translate(727.749 529.09)">
      <circle id="Ellipse_82" data-name="Ellipse 82" cx="9.004" cy="9.004" r="9.004" transform="translate(0 12.734) rotate(-45)" fill="#ebf0f6"/>
    </g>
    <g id="Group_686" data-name="Group 686" transform="translate(723.497 553.651)">
      <circle id="Ellipse_83" data-name="Ellipse 83" cx="14.021" cy="14.021" r="14.021" transform="translate(0 4.492) rotate(-9.217)" fill="#ebf0f6"/>
    </g>
    <g id="Group_687" data-name="Group 687" transform="translate(336.972 460.144)">
      <circle id="Ellipse_84" data-name="Ellipse 84" cx="6.11" cy="6.11" r="6.11" transform="translate(0 0)" fill="#f7d194"/>
    </g>
    <g id="Group_688" data-name="Group 688" transform="translate(402.53 366.373)">
      <path id="Path_2871" data-name="Path 2871" d="M603.341,382.331H530.622L503.867,447.16H630.1Z" transform="translate(-503.867 -382.331)" fill="#fbc672"/>
    </g>
    <g id="Group_689" data-name="Group 689" transform="translate(526.186 315.436)">
      <path id="Path_2872" data-name="Path 2872" d="M755.018,315.436H682.985a16.722,16.722,0,0,0-16.722,16.721v54.153a16.722,16.722,0,0,0,16.722,16.722h18.984a12.781,12.781,0,0,1,8.372,3.124l8.66,7.509,9.127-7.914a11.124,11.124,0,0,1,7.287-2.719h19.6a16.722,16.722,0,0,0,16.721-16.722V332.157A16.721,16.721,0,0,0,755.018,315.436Z" transform="translate(-666.263 -315.436)" fill="#ebf0f6"/>
    </g>
    <g id="Group_690" data-name="Group 690" transform="translate(356.395 477.594)">
      <path id="Path_2873" data-name="Path 2873" d="M480.753,528.4h-5.489a26.412,26.412,0,0,0-26.411,26.412h0a26.288,26.288,0,0,0,3.9,13.81l-9.471,13.459,21.558-3a26.329,26.329,0,0,0,10.427,2.141h5.489a26.411,26.411,0,0,0,26.411-26.411h0A26.412,26.412,0,0,0,480.753,528.4Z" transform="translate(-443.279 -528.397)" fill="#53daa9"/>
    </g>
    <g id="Group_691" data-name="Group 691" transform="translate(717.586 633.022)">
      <path id="Path_2874" data-name="Path 2874" d="M917.628,732.519v6.11a18.458,18.458,0,0,0,36.917,0v-6.11Z" transform="translate(-917.628 -732.519)" fill="#3a88d3"/>
    </g>
    <g id="Group_692" data-name="Group 692" transform="translate(222.408 552.892)">
      <path id="Path_2875" data-name="Path 2875" d="M304.959,631.18a13.312,13.312,0,0,0-16.872-1.608,13.311,13.311,0,0,0-16.872,20.436l14.917,14.916a13.268,13.268,0,0,0,1.955,1.608,13.306,13.306,0,0,0,1.955-1.608l14.917-14.916A13.314,13.314,0,0,0,304.959,631.18Z" transform="translate(-267.315 -627.284)" fill="#3a88d3"/>
    </g>
    <g id="Group_693" data-name="Group 693" transform="translate(588.056 326.627)">
      <rect id="Rectangle_199" data-name="Rectangle 199" width="25.34" height="25.34" transform="translate(1.287 1.286)" fill="#4088da"/>
      <path id="Path_2876" data-name="Path 2876" d="M774.143,358.045H748.8a1.286,1.286,0,0,1-1.286-1.286v-25.34a1.286,1.286,0,0,1,1.286-1.286h25.34a1.286,1.286,0,0,1,1.286,1.286v25.34A1.286,1.286,0,0,1,774.143,358.045Zm-24.053-2.573h22.767V332.705H750.09Z" transform="translate(-747.517 -330.133)" fill="#4088da"/>
    </g>
    <g id="Group_694" data-name="Group 694" transform="translate(537.677 328.042)">
      <path id="Path_2877" data-name="Path 2877" d="M710.082,334.563H682.64a1.286,1.286,0,1,1,0-2.572h27.442a1.286,1.286,0,1,1,0,2.572Z" transform="translate(-681.354 -331.991)" fill="#97a3ac"/>
    </g>
    <g id="Group_695" data-name="Group 695" transform="translate(537.677 335.331)">
      <path id="Path_2878" data-name="Path 2878" d="M710.082,344.136H682.64a1.286,1.286,0,1,1,0-2.572h27.442a1.286,1.286,0,1,1,0,2.572Z" transform="translate(-681.354 -341.564)" fill="#97a3ac"/>
    </g>
    <g id="Group_696" data-name="Group 696" transform="translate(537.677 342.62)">
      <path id="Path_2879" data-name="Path 2879" d="M710.082,353.708H682.64a1.286,1.286,0,1,1,0-2.572h27.442a1.286,1.286,0,1,1,0,2.572Z" transform="translate(-681.354 -351.136)" fill="#97a3ac"/>
    </g>
    <g id="Group_697" data-name="Group 697" transform="translate(537.677 349.909)">
      <path id="Path_2880" data-name="Path 2880" d="M710.082,363.281H682.64a1.286,1.286,0,1,1,0-2.572h27.442a1.286,1.286,0,1,1,0,2.572Z" transform="translate(-681.354 -360.709)" fill="#97a3ac"/>
    </g>
    <g id="Group_698" data-name="Group 698" transform="translate(537.677 359.146)">
      <path id="Path_2881" data-name="Path 2881" d="M758.36,375.412H682.64a1.286,1.286,0,1,1,0-2.572h75.72a1.286,1.286,0,0,1,0,2.572Z" transform="translate(-681.354 -372.84)" fill="#97a3ac"/>
    </g>
    <g id="Group_699" data-name="Group 699" transform="translate(537.677 367.143)">
      <path id="Path_2882" data-name="Path 2882" d="M758.36,385.914H682.64a1.286,1.286,0,1,1,0-2.572h75.72a1.286,1.286,0,1,1,0,2.572Z" transform="translate(-681.354 -383.342)" fill="#97a3ac"/>
    </g>
    <g id="Group_700" data-name="Group 700" transform="translate(537.677 375.139)">
      <path id="Path_2883" data-name="Path 2883" d="M758.36,396.415H682.64a1.286,1.286,0,1,1,0-2.572h75.72a1.286,1.286,0,0,1,0,2.572Z" transform="translate(-681.354 -393.843)" fill="#97a3ac"/>
    </g>
    <g id="Group_701" data-name="Group 701" transform="translate(537.677 383.135)">
      <path id="Path_2884" data-name="Path 2884" d="M711.968,406.917H682.64a1.286,1.286,0,1,1,0-2.572h29.328a1.286,1.286,0,0,1,0,2.572Z" transform="translate(-681.354 -404.345)" fill="#97a3ac"/>
    </g>
    <g id="Group_702" data-name="Group 702" transform="translate(537.677 391.132)">
      <path id="Path_2885" data-name="Path 2885" d="M711.968,417.419H682.64a1.286,1.286,0,1,1,0-2.572h29.328a1.286,1.286,0,0,1,0,2.572Z" transform="translate(-681.354 -414.847)" fill="#97a3ac"/>
    </g>
    <g id="Group_703" data-name="Group 703" transform="translate(185.061 426.363)">
      <path id="Path_2886" data-name="Path 2886" d="M259.428,463.688H219.553a1.286,1.286,0,1,1,0-2.572h39.875a1.286,1.286,0,1,1,0,2.572Z" transform="translate(-218.267 -461.116)" fill="#e2e8ed"/>
    </g>
    <g id="Group_704" data-name="Group 704" transform="translate(185.061 435.624)">
      <path id="Path_2887" data-name="Path 2887" d="M237.175,475.851H219.553a1.286,1.286,0,0,1,0-2.573h17.622a1.286,1.286,0,0,1,0,2.573Z" transform="translate(-218.267 -473.278)" fill="#e2e8ed"/>
    </g>
    <g id="Group_705" data-name="Group 705" transform="translate(185.061 444.886)">
      <path id="Path_2888" data-name="Path 2888" d="M248.237,488.014H219.553a1.286,1.286,0,0,1,0-2.573h28.684a1.286,1.286,0,0,1,0,2.573Z" transform="translate(-218.267 -485.441)" fill="#e2e8ed"/>
    </g>
    <g id="Group_706" data-name="Group 706" transform="translate(185.061 454.147)">
      <path id="Path_2889" data-name="Path 2889" d="M259.428,500.176H219.553a1.286,1.286,0,1,1,0-2.572h39.875a1.286,1.286,0,1,1,0,2.572Z" transform="translate(-218.267 -497.604)" fill="#e2e8ed"/>
    </g>
    <g id="Group_707" data-name="Group 707" transform="translate(185.061 463.409)">
      <path id="Path_2890" data-name="Path 2890" d="M281.681,512.339H219.553a1.286,1.286,0,1,1,0-2.572h62.128a1.286,1.286,0,1,1,0,2.572Z" transform="translate(-218.267 -509.767)" fill="#e2e8ed"/>
    </g>
    <g id="Group_708" data-name="Group 708" transform="translate(185.061 472.67)">
      <path id="Path_2891" data-name="Path 2891" d="M270.619,524.5H219.553a1.286,1.286,0,1,1,0-2.572h51.066a1.286,1.286,0,1,1,0,2.572Z" transform="translate(-218.267 -521.93)" fill="#e2e8ed"/>
    </g>
    <g id="Group_709" data-name="Group 709" transform="translate(185.061 481.931)">
      <path id="Path_2892" data-name="Path 2892" d="M233.96,536.665H219.553a1.286,1.286,0,0,1,0-2.573H233.96a1.286,1.286,0,0,1,0,2.573Z" transform="translate(-218.267 -534.092)" fill="#e2e8ed"/>
    </g>
    <g id="Group_710" data-name="Group 710" transform="translate(145.23 531.402)">
      <path id="Path_2893" data-name="Path 2893" d="M201.073,624.349a1.285,1.285,0,0,1-.978-.449l-18.552-21.645-13.38,13.7a1.286,1.286,0,0,1-1.84-1.8l14.362-14.71a1.231,1.231,0,0,1,.962-.387,1.286,1.286,0,0,1,.935.449l19.467,22.712a1.286,1.286,0,0,1-.976,2.123Z" transform="translate(-165.957 -599.062)" fill="#1c3e58"/>
    </g>
    <g id="Group_711" data-name="Group 711" transform="translate(169.268 534.791)">
      <path id="Path_2894" data-name="Path 2894" d="M230.469,625.411a1.282,1.282,0,0,1-.9-.369l-18.9-18.6-11.151,7.331a1.287,1.287,0,0,1-1.412-2.151l12.019-7.9a1.286,1.286,0,0,1,1.609.158l19.637,19.325a1.286,1.286,0,0,1-.9,2.2Z" transform="translate(-197.526 -603.513)" fill="#1c3e58"/>
    </g>
    <g id="Group_712" data-name="Group 712" transform="translate(269.613 445.438)">
      <path id="Path_2895" data-name="Path 2895" d="M338.656,501.856c-6.49,0-9.062-4.226-9.169-4.406a1.289,1.289,0,0,1-.117-1.05l3.017-9.344a1.291,1.291,0,0,1,1.5-.862,1.828,1.828,0,0,1,.321.1,10.623,10.623,0,0,0,8.9,0,1.29,1.29,0,0,1,.263-.088,1.342,1.342,0,0,1,1.553.85l3.017,9.344a1.289,1.289,0,0,1-.116,1.05C347.718,497.63,345.146,501.856,338.656,501.856Zm-6.635-5.29a9.46,9.46,0,0,0,13.27,0l-2.4-7.419a13.181,13.181,0,0,1-8.479,0Z" transform="translate(-329.308 -486.167)" fill="#e2e8ed"/>
    </g>
    <g id="Group_713" data-name="Group 713" transform="translate(393.097 420.826)">
      <path id="Path_2896" data-name="Path 2896" d="M635.287,456.416H492.765a1.286,1.286,0,1,1,0-2.572H635.287a1.286,1.286,0,1,1,0,2.572Z" transform="translate(-491.479 -453.844)" fill="#e2e8ed"/>
    </g>
    <g id="Group_714" data-name="Group 714" transform="translate(415.136 373.662)">
      <path id="Path_2897" data-name="Path 2897" d="M620.152,394.477H521.708a1.286,1.286,0,0,1,0-2.573h98.444a1.286,1.286,0,0,1,0,2.573Z" transform="translate(-520.422 -391.904)" fill="#e2e8ed"/>
    </g>
    <g id="Group_715" data-name="Group 715" transform="translate(429.585 380.265)">
      <path id="Path_2898" data-name="Path 2898" d="M588.149,403.148H540.684a1.286,1.286,0,0,1,0-2.573h47.465a1.286,1.286,0,0,1,0,2.573Z" transform="translate(-539.398 -400.575)" fill="#e2e8ed"/>
    </g>
    <g id="Group_716" data-name="Group 716" transform="translate(427.784 390.362)">
      <path id="Path_2899" data-name="Path 2899" d="M538.321,436.926a1.265,1.265,0,0,1-.343-.047,1.286,1.286,0,0,1-.9-1.582l5.66-20.516a1.286,1.286,0,0,1,2.48.685l-5.66,20.516A1.288,1.288,0,0,1,538.321,436.926Z" transform="translate(-537.033 -413.835)" fill="#e2e8ed"/>
    </g>
    <g id="Group_717" data-name="Group 717" transform="translate(439.489 390.362)">
      <path id="Path_2900" data-name="Path 2900" d="M553.693,436.925a1.286,1.286,0,0,1-1.263-1.531l3.988-20.516a1.286,1.286,0,1,1,2.524.49l-3.988,20.516A1.285,1.285,0,0,1,553.693,436.925Z" transform="translate(-552.406 -413.836)" fill="#e2e8ed"/>
    </g>
    <g id="Group_718" data-name="Group 718" transform="translate(485.882 464.817)">
      <path id="Path_2901" data-name="Path 2901" d="M625.167,535.285A11.834,11.834,0,1,1,637,523.451,11.847,11.847,0,0,1,625.167,535.285Zm0-21.1a9.261,9.261,0,1,0,9.261,9.262A9.272,9.272,0,0,0,625.167,514.19Z" transform="translate(-613.333 -511.617)" fill="#e2e8ed"/>
    </g>
    <g id="Group_719" data-name="Group 719" transform="translate(497.459 493.201)">
      <path id="Path_2902" data-name="Path 2902" d="M637.669,567.159a9.133,9.133,0,1,1,9.133-9.133A9.143,9.143,0,0,1,637.669,567.159Zm0-15.693a6.56,6.56,0,1,0,6.561,6.56A6.567,6.567,0,0,0,637.669,551.466Z" transform="translate(-628.536 -548.893)" fill="#e2e8ed"/>
    </g>
    <g id="Group_720" data-name="Group 720" transform="translate(265.712 412.776)">
      <path id="Path_2903" data-name="Path 2903" d="M337.433,479.618a13.263,13.263,0,0,1-13.248-13.248l.016-16.549a1.237,1.237,0,0,1-.016-.2v-5.063a1.286,1.286,0,0,1,2.3-.79,1.435,1.435,0,0,1,.3.751c.53,9.084,10.476,16.423,22.643,16.708a1.287,1.287,0,0,1,1.256,1.286v3.857A13.264,13.264,0,0,1,337.433,479.618Zm-10.663-27.173-.014,13.925a10.676,10.676,0,0,0,21.352,0v-2.624C338.742,463.174,330.705,458.7,326.771,452.445Z" transform="translate(-324.185 -443.272)" fill="#e2e8ed"/>
    </g>
    <g id="Group_721" data-name="Group 721" transform="translate(240.114 403.467)">
      <path id="Path_2904" data-name="Path 2904" d="M309.064,480.856c-8.5,0-17.416-5.182-17.863-5.444a1.287,1.287,0,0,1,.172-2.3c.069-.029,7.7-3.381,11.454-18.2,2.986-11.8,7.522-23.867,18.526-23.867a14.058,14.058,0,0,1,13.529,9,1.286,1.286,0,0,1-2.446.795c-.1-.3-2.492-7.217-11.083-7.217-7.349,0-12.144,6.557-16.032,21.925-2.89,11.419-7.976,16.58-10.854,18.683,3.8,1.875,12.354,5.462,18.8,3.474a10.1,10.1,0,0,0,6.366-5.721,1.286,1.286,0,0,1,2.327,1.1,12.707,12.707,0,0,1-7.94,7.084A16.813,16.813,0,0,1,309.064,480.856Z" transform="translate(-290.568 -431.046)" fill="#e2e8ed"/>
    </g>
    <g id="Group_722" data-name="Group 722" transform="translate(279.445 403.467)">
      <path id="Path_2905" data-name="Path 2905" d="M366.3,482.734q-.7,0-1.411-.049c-6.026-.423-11.441-3.569-16.091-9.349a1.287,1.287,0,1,1,2-1.613c4.183,5.2,8.983,8.025,14.266,8.4,6.858.483,12.926-3.262,15.766-5.374-3.336-1.478-9.44-5.364-12.532-14.729-.922-2.795-1.7-5.7-2.451-8.508-2.569-9.6-4.787-17.888-11.312-17.888-7.826,0-9.878,3.392-9.9,3.427a1.286,1.286,0,1,1-2.263-1.223c.105-.195,2.689-4.777,12.16-4.777,8.5,0,11.073,9.616,13.8,19.8.742,2.774,1.51,5.642,2.409,8.367,3.844,11.643,12.864,13.82,12.955,13.841a1.286,1.286,0,0,1,.595,2.193C383.95,475.561,376.178,482.734,366.3,482.734Z" transform="translate(-342.221 -431.046)" fill="#e2e8ed"/>
    </g>
    <g id="Group_723" data-name="Group 723" transform="translate(289.636 424.627)">
      <path id="Path_2906" data-name="Path 2906" d="M361.255,467.55c-2.243,0-4.26-.037-4.387-.039a1.286,1.286,0,0,1-1.262-1.286v-6.1a1.286,1.286,0,0,1,2.573,0v4.837c1.6.019,4.388.039,6.438-.018a1.287,1.287,0,1,1,.072,2.572C363.637,467.541,362.415,467.55,361.255,467.55Z" transform="translate(-355.605 -458.835)" fill="#e2e8ed"/>
    </g>
    <g id="Group_724" data-name="Group 724" transform="translate(125.377 590.854)">
      <path id="Path_2907" data-name="Path 2907" d="M307.124,777.852H158.029a18.166,18.166,0,0,1-18.145-18.146V678.425a1.287,1.287,0,0,1,1.545-1.26c.187.038,18.681,4.038,22.23,22.867,1.767,9.373-1.238,20.43-7.653,28.167-3.95,4.765-8.718,7.564-13.548,7.989v23.518a15.59,15.59,0,0,0,15.572,15.573H307.124a1.286,1.286,0,1,1,0,2.573ZM142.457,680.116V733.6c4.065-.433,8.128-2.9,11.569-7.047,5.855-7.062,8.71-17.53,7.1-26.049C158.482,686.456,146.716,681.476,142.457,680.116Z" transform="translate(-139.884 -677.14)" fill="#e2e8ed"/>
    </g>
    <g id="Group_725" data-name="Group 725" transform="translate(100.68 593.698)">
      <path id="Path_2908" data-name="Path 2908" d="M133.434,755.443a1.286,1.286,0,0,1-1.215-.864l-24.7-71.132a1.287,1.287,0,0,1,.812-1.644c.366-.12,9.057-2.9,16.584,1.787,5.28,3.286,8.573,9.354,9.788,18.037a1.286,1.286,0,1,1-2.547.356c-1.1-7.891-4-13.344-8.6-16.21-4.952-3.082-10.657-2.378-13.149-1.849l24.238,69.811a1.287,1.287,0,0,1-.793,1.637A1.3,1.3,0,0,1,133.434,755.443Z" transform="translate(-107.45 -680.875)" fill="#e2e8ed"/>
    </g>
    <g id="Group_726" data-name="Group 726" transform="translate(133.866 672.736)">
      <path id="Path_2909" data-name="Path 2909" d="M270.852,796.283h-109.5a10.334,10.334,0,0,1-10.323-10.322,1.286,1.286,0,0,1,2.573,0,7.759,7.759,0,0,0,7.75,7.75h109.5a1.286,1.286,0,0,1,0,2.572Z" transform="translate(-151.033 -784.675)" fill="#e2e8ed"/>
    </g>
    <g id="Group_727" data-name="Group 727" transform="translate(217.904 688.993)">
      <path id="Path_2910" data-name="Path 2910" d="M338.363,830.619H275.634A14.251,14.251,0,0,1,261.4,816.384v-9.072a1.286,1.286,0,1,1,2.573,0v9.072a11.676,11.676,0,0,0,11.662,11.662h62.729a1.286,1.286,0,0,1,0,2.573Z" transform="translate(-261.399 -806.025)" fill="#e2e8ed"/>
    </g>
    <g id="Group_728" data-name="Group 728" transform="translate(232.396 688.993)">
      <path id="Path_2911" data-name="Path 2911" d="M341.415,819.608H286.782a6.357,6.357,0,0,1-6.35-6.35v-5.946a1.286,1.286,0,1,1,2.573,0v5.946a3.782,3.782,0,0,0,3.778,3.777h54.632a1.286,1.286,0,1,1,0,2.572Z" transform="translate(-280.432 -806.025)" fill="#e2e8ed"/>
    </g>
    <g id="Group_729" data-name="Group 729" transform="translate(279.99 599.964)">
      <path id="Path_2912" data-name="Path 2912" d="M402.7,750.76c-40.219,0-59.769-8.724-59.769-26.67V700.938A11.847,11.847,0,0,1,354.77,689.1h34.987a1.286,1.286,0,1,1,0,2.572H354.77a9.272,9.272,0,0,0-9.261,9.262v23.153c0,15.99,19.244,24.1,57.2,24.1,118.08,0,200.787-35.212,201.609-35.568a1.286,1.286,0,1,1,1.02,2.361C604.509,715.339,521.311,750.76,402.7,750.76Z" transform="translate(-342.936 -689.104)" fill="#e2e8ed"/>
    </g>
    <g id="Group_732" data-name="Group 732" transform="translate(288.356 599.964)">
      <g id="Group_730" data-name="Group 730" transform="translate(0 23.41)">
        <path id="Path_2913" data-name="Path 2913" d="M584.035,822.495H376.685c-11.92,0-19.037-9.617-19.037-25.726L353.927,747.1a1.287,1.287,0,0,1,2.03-1.144c8.894,6.351,25.5,9.57,49.369,9.57,118.08,0,200.787-35.212,201.61-35.568a1.286,1.286,0,0,1,1.8,1.181V797.8A24.725,24.725,0,0,1,584.035,822.495Zm-227.349-73,3.532,47.18c0,7.057,1.607,23.249,16.468,23.249h207.35A22.149,22.149,0,0,0,606.16,797.8V723.055c-12.74,5.123-91.833,35.04-200.834,35.04C382.4,758.095,366.443,755.277,356.686,749.493Z" transform="translate(-353.923 -719.848)" fill="#e2e8ed"/>
      </g>
      <g id="Group_731" data-name="Group 731" transform="translate(37.168)">
        <path id="Path_2914" data-name="Path 2914" d="M619.09,715.087A1.286,1.286,0,0,1,617.8,713.8a22.149,22.149,0,0,0-22.125-22.125H404.022a1.286,1.286,0,1,1,0-2.572H595.679a24.725,24.725,0,0,1,24.7,24.7A1.286,1.286,0,0,1,619.09,715.087Z" transform="translate(-402.736 -689.104)" fill="#e2e8ed"/>
      </g>
    </g>
    <g id="Group_733" data-name="Group 733" transform="translate(560.658 489.6)">
      <path id="Path_2915" data-name="Path 2915" d="M713.81,554.242a9.832,9.832,0,0,1-1.163-.057,1.286,1.286,0,0,1,.346-2.549,11.865,11.865,0,0,0,11.8-6.766,1.287,1.287,0,1,1,2.3,1.16A14.53,14.53,0,0,1,713.81,554.242Z" transform="translate(-711.535 -544.163)" fill="#e2e8ed"/>
    </g>
    <g id="Group_734" data-name="Group 734" transform="translate(564.861 455.641)">
      <path id="Path_2916" data-name="Path 2916" d="M726.143,505.656a1.283,1.283,0,0,1-.527-.114l-7.8-3.516a1.287,1.287,0,0,1,1.057-2.346l7.8,3.516a1.287,1.287,0,0,1-.53,2.46Z" transform="translate(-717.055 -499.566)" fill="#e2e8ed"/>
    </g>
    <g id="Group_735" data-name="Group 735" transform="translate(550.11 430.117)">
      <path id="Path_2917" data-name="Path 2917" d="M763.669,498.259a1.286,1.286,0,0,1-1.285-1.239c-.51-13.877-5.1-22.6-14.04-26.66-6.359-2.893-13.144-1.8-28.014.6l-2.507.4c-16.5,2.644-19.485-.553-20.005-1.6a1.286,1.286,0,0,1,2.236-1.266c.195.195,2.974,2.629,17.362.321l2.505-.4c15.393-2.48,22.42-3.611,29.489-.4,9.91,4.5,15,13.96,15.545,28.908a1.285,1.285,0,0,1-1.238,1.333Z" transform="translate(-697.683 -466.045)" fill="#ebf0f8"/>
    </g>
    <g id="Group_739" data-name="Group 739" transform="translate(545.309 450.839)">
      <g id="Group_736" data-name="Group 736" transform="translate(4.116 0)">
        <path id="Path_2918" data-name="Path 2918" d="M700.484,516.565a1.286,1.286,0,0,1-1.226-1.675c2.128-6.717-2.359-19.79-2.4-19.922a1.286,1.286,0,1,1,2.43-.844c.2.569,4.809,14.021,2.426,21.544A1.286,1.286,0,0,1,700.484,516.565Z" transform="translate(-696.783 -493.259)" fill="#e2e8ed"/>
      </g>
      <g id="Group_737" data-name="Group 737" transform="translate(8.631 38.757)">
        <path id="Path_2919" data-name="Path 2919" d="M706.515,568.345a1.287,1.287,0,0,1-1.127-1.905c1.4-2.545.391-10.45-2.623-20.629a1.286,1.286,0,1,1,2.466-.729c2.369,8,4.71,18.408,2.412,22.6A1.288,1.288,0,0,1,706.515,568.345Z" transform="translate(-702.711 -544.159)" fill="#e2e8ed"/>
      </g>
      <g id="Group_738" data-name="Group 738" transform="translate(0 20.733)">
        <path id="Path_2920" data-name="Path 2920" d="M701.293,541.085a1.285,1.285,0,0,1-1.231-.921c-.263-.886-.477-1.568-.6-1.965l-7.544-5.412a1.287,1.287,0,0,1-.207-1.906,79.524,79.524,0,0,0,5.537-7.9,6.628,6.628,0,0,0,.725-1.595,1.286,1.286,0,1,1,2.452.778,9.183,9.183,0,0,1-1.018,2.217c-2.458,3.791-4.017,5.957-4.89,7.105l6.789,4.87a1.287,1.287,0,0,1,.473.643s.306.93.752,2.434a1.287,1.287,0,0,1-1.234,1.652Z" transform="translate(-691.377 -520.488)" fill="#e2e8ed"/>
      </g>
    </g>
    <g id="Group_740" data-name="Group 740" transform="translate(559.166 501.048)">
      <path id="Path_2921" data-name="Path 2921" d="M717.787,584.84a4.783,4.783,0,0,1-3.758-1.825l-4.178-5.325a1.286,1.286,0,1,1,2.024-1.588l4.178,5.325a2.2,2.2,0,0,0,2.425.727l28.464-9.507a12.464,12.464,0,0,0,8.552-12.136,1.287,1.287,0,0,1,1.26-1.313,1.317,1.317,0,0,1,1.312,1.26,15.027,15.027,0,0,1-10.308,14.629l-28.463,9.507A4.734,4.734,0,0,1,717.787,584.84Z" transform="translate(-709.576 -559.198)" fill="#e2e8ed"/>
    </g>
    <g id="Group_741" data-name="Group 741" transform="translate(558.572 465.817)">
      <path id="Path_2922" data-name="Path 2922" d="M710.168,523.73a1.286,1.286,0,0,1-1.271-1.089,8.414,8.414,0,1,1,16.626-2.594,1.288,1.288,0,0,1-1.073,1.47l-14.084,2.2A1.319,1.319,0,0,1,710.168,523.73Zm7.052-8.227a5.855,5.855,0,0,0-5.837,5.45l11.262-1.757A5.8,5.8,0,0,0,717.22,515.5Z" transform="translate(-708.796 -512.93)" fill="#e2e8ed"/>
    </g>
    <g id="Group_742" data-name="Group 742" transform="translate(485.221 512.583)">
      <path id="Path_2923" data-name="Path 2923" d="M613.751,657.754a1.286,1.286,0,0,1-.943-2.16,101.1,101.1,0,0,1,14.263-12.852c3.081-2.233,6.132-4.371,9.081-6.44,14.324-10.046,26.693-18.721,36.626-33.269,10.154-14.872,22.2-17.219,22.712-17.311a1.286,1.286,0,0,1,1.422,1.751l-4.167,10.192c7.595-2.638,28.9-10.063,32.923-11.691,3.133-1.267,1.677-7.748.92-9.917a1.287,1.287,0,1,1,2.43-.848c.152.436,3.655,10.706-2.385,13.151-4.947,2-34.48,12.235-35.735,12.67a1.287,1.287,0,0,1-1.612-1.7L693.506,589c-3.888,1.449-11.746,5.435-18.605,15.484-10.2,14.934-23.348,24.158-37.273,33.924-2.941,2.063-5.982,4.2-9.048,6.417a98.387,98.387,0,0,0-13.885,12.516A1.282,1.282,0,0,1,613.751,657.754Z" transform="translate(-612.465 -574.348)" fill="#e2e8ed"/>
    </g>
    <g id="Group_743" data-name="Group 743" transform="translate(535.818 464.219)">
      <path id="Path_2924" data-name="Path 2924" d="M728.429,706.872h0c-13.914,0-24.953-11.314-33.918-22.38a134.059,134.059,0,0,1-10.861-15.722,1.3,1.3,0,0,1-.169-.487,22.081,22.081,0,0,0-4.3-10.394,1.284,1.284,0,0,1,.168-1.739c8.8-7.826,86.362-77.26,101.419-104.971,15.162-27.9,29.815-40.348,47.511-40.348,6.521,0,13.5,1.824,20.737,5.425,10.675,5.308,17.152,13.465,19.252,24.247,3.12,16.022-4.284,37.013-18.862,53.476-2.18,2.461-5.457,6.306-9.607,11.173-23.125,27.124-71.245,83.563-97.248,97.837A29.257,29.257,0,0,1,728.429,706.872Zm-42.435-39.2a130.917,130.917,0,0,0,10.517,15.2c8.582,10.6,19.086,21.428,31.918,21.428a26.722,26.722,0,0,0,12.88-3.565c25.589-14.047,73.5-70.244,96.529-97.251,4.158-4.877,7.443-8.73,9.639-11.21,14.067-15.885,21.235-36.013,18.263-51.278-1.939-9.955-7.953-17.5-17.873-22.437-6.88-3.42-13.471-5.155-19.591-5.155-16.638,0-30.594,12.03-45.25,39-14.852,27.334-88.966,94.059-101.1,104.891A24.655,24.655,0,0,1,685.994,667.675Z" transform="translate(-678.914 -510.831)" fill="#e2e8ed"/>
    </g>
    <g id="Group_744" data-name="Group 744" transform="translate(563.093 476.31)">
      <path id="Path_2925" data-name="Path 2925" d="M716.019,701.565a1.286,1.286,0,0,1-.018-2.572c11.632-.165,27.609-8.605,46.2-24.407,30.595-26,67.539-76.188,67.909-76.692,27.541-34.114,35.276-69.806,35.351-70.163a1.286,1.286,0,1,1,2.518.528c-.076.362-7.918,36.632-35.831,71.2-.334.459-37.455,50.887-68.28,77.082-19.33,16.427-35.424,24.844-47.836,25.02Z" transform="translate(-714.733 -526.71)" fill="#e2e8ed"/>
    </g>
    <g id="Group_745" data-name="Group 745" transform="translate(600.179 516.305)">
      <path id="Path_2926" data-name="Path 2926" d="M780.374,597.236a1.286,1.286,0,0,1-1-.478l-6.805-8.432c-4.915-6.09-6.984-6.462-7.3-6.481a1.287,1.287,0,0,1-1.331-2.182c1.132-.885,4.022-1.145,10.635,7.048l6.8,8.432a1.286,1.286,0,0,1-1,2.094Z" transform="translate(-763.438 -579.235)" fill="#e2e8ed"/>
    </g>
    <g id="Group_746" data-name="Group 746" transform="translate(414.475 544.139)">
      <path id="Path_2927" data-name="Path 2927" d="M520.84,674.187a1.286,1.286,0,0,1-1.286-1.286v-6.175a1.286,1.286,0,0,1,1.286-1.286h99.828l45.41-49.237a1.287,1.287,0,1,1,1.891,1.744L622.177,667.6a1.285,1.285,0,0,1-.946.414H522.126V672.9A1.286,1.286,0,0,1,520.84,674.187Z" transform="translate(-519.554 -615.79)" fill="#e2e8ed"/>
    </g>
    <g id="Group_747" data-name="Group 747" transform="translate(524.127 563.176)">
      <path id="Path_2928" data-name="Path 2928" d="M664.846,673.977a1.287,1.287,0,0,1-.934-2.172c.975-1.027,23.933-25.208,30.737-30.727a1.286,1.286,0,1,1,1.62,2c-6.675,5.415-30.253,30.25-30.491,30.5A1.282,1.282,0,0,1,664.846,673.977Z" transform="translate(-663.56 -640.79)" fill="#e2e8ed"/>
    </g>
    <g id="Group_748" data-name="Group 748" transform="translate(287.327 606.652)">
      <path id="Path_2929" data-name="Path 2929" d="M353.858,708.112a1.286,1.286,0,0,1-1.286-1.286,8.947,8.947,0,0,1,8.936-8.938H547.1a1.286,1.286,0,0,1,0,2.572H361.508a6.372,6.372,0,0,0-6.364,6.366A1.286,1.286,0,0,1,353.858,708.112Z" transform="translate(-352.572 -697.888)" fill="#e2e8ed"/>
    </g>
    <g id="Group_749" data-name="Group 749" transform="translate(309.059 649.957)">
      <path id="Path_2930" data-name="Path 2930" d="M422.929,776.06q-2.049,0-4.02-.033c-29.53-.5-36.776-3.845-37.069-3.988a1.286,1.286,0,0,1,1.111-2.32c.135.061,7.471,3.251,36,3.735,50.224.84,138.12-14.976,146.9-18.6a1.286,1.286,0,0,1,.981,2.378C558.195,760.8,473.96,776.06,422.929,776.06Z" transform="translate(-381.113 -754.76)" fill="#e2e8ed"/>
    </g>
    <g id="Group_750" data-name="Group 750" transform="translate(432.8 680.743)">
      <path id="Path_2931" data-name="Path 2931" d="M627.32,833.651H544.907a1.286,1.286,0,0,1,0-2.573H627.32a17.214,17.214,0,0,0,17.2-17.2V796.477a1.286,1.286,0,1,1,2.573,0v17.405A19.792,19.792,0,0,1,627.32,833.651Z" transform="translate(-543.621 -795.19)" fill="#e2e8ed"/>
    </g>
    <g id="Group_751" data-name="Group 751" transform="translate(532.409 656.57)">
      <path id="Path_2932" data-name="Path 2932" d="M684.868,828.958a27.716,27.716,0,0,1-9.634-1.789,1.287,1.287,0,0,1,.975-2.381c.093.039,9.337,3.729,16.715-.308,4.539-2.484,7.512-7.405,8.839-14.627.778-4.234,1.443-8.261,2.086-12.155,3.217-19.467,5.541-33.533,16.093-34.251a1.286,1.286,0,1,1,.174,2.566c-8.521.58-10.705,13.8-13.729,32.1-.646,3.905-1.313,7.944-2.095,12.2-1.475,8.029-4.89,13.557-10.15,16.428A19.236,19.236,0,0,1,684.868,828.958Z" transform="translate(-674.436 -763.444)" fill="#e2e8ed"/>
    </g>
    <g id="Group_752" data-name="Group 752" transform="translate(373.503 492.558)">
      <path id="Path_2933" data-name="Path 2933" d="M489.157,550.621H467.032a1.286,1.286,0,1,1,0-2.572h22.125a1.286,1.286,0,1,1,0,2.572Z" transform="translate(-465.746 -548.049)" fill="#1c3e58"/>
    </g>
    <g id="Group_753" data-name="Group 753" transform="translate(369.001 500.79)">
      <path id="Path_2934" data-name="Path 2934" d="M522.862,561.433H461.12a1.286,1.286,0,0,1,0-2.573h61.742a1.286,1.286,0,0,1,0,2.573Z" transform="translate(-459.834 -558.86)" fill="#1c3e58"/>
    </g>
    <g id="Group_754" data-name="Group 754" transform="translate(369.001 508.122)">
      <path id="Path_2935" data-name="Path 2935" d="M522.862,571.062H461.12a1.286,1.286,0,0,1,0-2.573h61.742a1.286,1.286,0,0,1,0,2.573Z" transform="translate(-459.834 -568.489)" fill="#1c3e58"/>
    </g>
    <g id="Group_755" data-name="Group 755" transform="translate(377.877 515.197)">
      <path id="Path_2936" data-name="Path 2936" d="M498.63,580.353H472.776a1.286,1.286,0,0,1,0-2.573H498.63a1.286,1.286,0,1,1,0,2.573Z" transform="translate(-471.49 -577.78)" fill="#1c3e58"/>
    </g>
    <g id="Group_756" data-name="Group 756" transform="translate(637.922 375.625)">
      <path id="Path_2937" data-name="Path 2937" d="M850.479,394.482h-5.488a26.412,26.412,0,0,0-26.411,26.412h0a26.287,26.287,0,0,0,3.9,13.81L813,448.163l21.559-3a26.317,26.317,0,0,0,10.427,2.142h5.488a26.411,26.411,0,0,0,26.411-26.411h0A26.412,26.412,0,0,0,850.479,394.482Z" transform="translate(-813.005 -394.482)" fill="#3a88d3"/>
    </g>
    <g id="Group_757" data-name="Group 757" transform="translate(655.03 390.589)">
      <path id="Path_2938" data-name="Path 2938" d="M858.884,416.706H836.759a1.286,1.286,0,1,1,0-2.572h22.124a1.286,1.286,0,1,1,0,2.572Z" transform="translate(-835.473 -414.134)" fill="#e2e8ed"/>
    </g>
    <g id="Group_758" data-name="Group 758" transform="translate(650.527 398.821)">
      <path id="Path_2939" data-name="Path 2939" d="M892.589,427.518H830.847a1.286,1.286,0,1,1,0-2.573h61.742a1.286,1.286,0,0,1,0,2.573Z" transform="translate(-829.56 -424.945)" fill="#e2e8ed"/>
    </g>
    <g id="Group_759" data-name="Group 759" transform="translate(650.527 406.153)">
      <path id="Path_2940" data-name="Path 2940" d="M892.589,437.147H830.847a1.286,1.286,0,1,1,0-2.573h61.742a1.286,1.286,0,0,1,0,2.573Z" transform="translate(-829.56 -434.574)" fill="#e2e8ed"/>
    </g>
    <g id="Group_760" data-name="Group 760" transform="translate(659.404 413.228)">
      <path id="Path_2941" data-name="Path 2941" d="M868.357,446.438H842.5a1.286,1.286,0,0,1,0-2.573h25.854a1.286,1.286,0,1,1,0,2.573Z" transform="translate(-841.217 -443.865)" fill="#e2e8ed"/>
    </g>
    <g id="Group_761" data-name="Group 761" transform="translate(386.43 591.024)">
      <path id="Path_2942" data-name="Path 2942" d="M484.01,688.875h-.018a1.287,1.287,0,0,1-1.269-1.3c.066-4.917,4.885-10.209,15.307-10.209,9.162,0,14.419,2.8,14.638,2.922a1.286,1.286,0,0,1-1.227,2.261h0c-.048-.026-4.956-2.61-13.411-2.61-8.678,0-12.685,3.976-12.734,7.67A1.287,1.287,0,0,1,484.01,688.875Z" transform="translate(-482.723 -677.363)" fill="#e2e8ed"/>
    </g>
    <g id="Group_762" data-name="Group 762" transform="translate(300.216 495.259)">
      <path id="Path_2943" data-name="Path 2943" d="M401.9,657.99l-23.411-104.7s-10.29,1.287-6.431,16.207,19.294,88.5,19.294,88.5Z" transform="translate(-369.903 -551.999)" fill="#3a88d3"/>
      <path id="Path_2944" data-name="Path 2944" d="M401.495,658.873a1.285,1.285,0,0,1-1.254-1.006l-23.12-103.4a7.306,7.306,0,0,0-3.542,2.779c-1.753,2.614-1.981,6.491-.68,11.524,3.822,14.778,19.154,87.819,19.308,88.555a1.286,1.286,0,1,1-2.517.528c-.155-.736-15.473-73.718-19.281-88.44-1.5-5.8-1.143-10.4,1.067-13.65a9.866,9.866,0,0,1,6.45-4.155,1.282,1.282,0,0,1,1.415,1l23.411,104.7a1.287,1.287,0,0,1-1.256,1.566Z" transform="translate(-369.499 -551.596)" fill="#e2e8ed"/>
    </g>
    <g id="Group_763" data-name="Group 763" transform="translate(157.943 627.49)">
      <path id="Path_2945" data-name="Path 2945" d="M314.609,757.669H187.989a1.286,1.286,0,0,1-1.185-.787c-.347-.826-8.421-20.321-1.077-31.068a1.287,1.287,0,0,1,1.062-.56h119.2a1.286,1.286,0,0,1,0,2.573H187.49c-5.192,8.58.008,23.666,1.375,27.269H314.609a1.286,1.286,0,1,1,0,2.573Z" transform="translate(-182.653 -725.254)" fill="#e2e8ed"/>
    </g>
    <g id="Group_764" data-name="Group 764" transform="translate(181.544 608.968)">
      <path id="Path_2946" data-name="Path 2946" d="M214.933,722.024a1.286,1.286,0,0,1-.236-2.551l98.445-18.522a1.286,1.286,0,1,1,.475,2.528L215.173,722A1.343,1.343,0,0,1,214.933,722.024Z" transform="translate(-213.649 -700.929)" fill="#e2e8ed"/>
    </g>
    <g id="Group_765" data-name="Group 765" transform="translate(173.484 636.924)">
      <path id="Path_2947" data-name="Path 2947" d="M299.878,740.215H204.35a1.286,1.286,0,1,1,0-2.572h95.528a1.286,1.286,0,0,1,0,2.572Z" transform="translate(-203.063 -737.643)" fill="#e2e8ed"/>
    </g>
    <g id="Group_766" data-name="Group 766" transform="translate(146.265 625.098)">
      <path id="Path_2948" data-name="Path 2948" d="M180.289,735.653c-8.674,0-12.266-7.877-12.954-12.042a1.286,1.286,0,0,1,2.538-.422h0c.068.4,1.773,9.891,10.417,9.891a1.286,1.286,0,1,1,0,2.572Z" transform="translate(-167.317 -722.113)" fill="#e2e8ed"/>
    </g>
    <g id="Group_767" data-name="Group 767" transform="translate(125.377 654.594)">
      <path id="Path_2949" data-name="Path 2949" d="M147.984,772.106a10.334,10.334,0,0,1-7.806-3.326,1.287,1.287,0,0,1,1.981-1.643c.165.2,3.788,4.321,10.446,1.323,7.732-3.48,23.2-7.4,23.852-7.57a1.286,1.286,0,0,1,.63,2.494c-.158.04-15.9,4.035-23.426,7.421A13.764,13.764,0,0,1,147.984,772.106Z" transform="translate(-139.884 -760.85)" fill="#e2e8ed"/>
    </g>
    <g id="Group_768" data-name="Group 768" transform="translate(724.275 593.961)">
      <path id="Path_2950" data-name="Path 2950" d="M954.067,712.092H933.4a6.989,6.989,0,1,1,0-13.977h6.783a3.593,3.593,0,0,0,3.216-1.995,3.35,3.35,0,0,0-.277-3.565l-.075-.1c-2.921-3.832-3.567-5.7-3.452-9.983a1.317,1.317,0,0,1,1.321-1.251,1.287,1.287,0,0,1,1.251,1.321c-.1,3.666.367,4.994,2.932,8.361l.076.1a5.888,5.888,0,0,1,.522,6.274,6.156,6.156,0,0,1-5.514,3.408H933.4a4.416,4.416,0,1,0,0,8.832h20.666a1.286,1.286,0,0,1,0,2.572Z" transform="translate(-926.412 -681.221)" fill="#e2e8ed"/>
    </g>
    <g id="Group_769" data-name="Group 769" transform="translate(572.492 493.202)">
      <path id="Path_2951" data-name="Path 2951" d="M728.364,696.142a1.287,1.287,0,0,1-.646-2.4c.324-.188,32.777-19.2,63.467-55.129,30.764-36.011,42.032-52.649,60.284-89.011a1.286,1.286,0,1,1,2.3,1.154c-18.367,36.59-29.7,53.324-60.628,89.527-30.99,36.279-63.8,55.5-64.133,55.686A1.278,1.278,0,0,1,728.364,696.142Z" transform="translate(-727.077 -548.894)" fill="#e2e8ed"/>
    </g>
    <g id="Group_770" data-name="Group 770" transform="translate(643.582 656.658)">
      <path id="Path_2952" data-name="Path 2952" d="M955.5,781.385H821.725a1.287,1.287,0,0,1-1.287-1.287V764.846a1.287,1.287,0,0,1,1.287-1.286H955.5a1.286,1.286,0,0,1,1.286,1.286V780.1A1.286,1.286,0,0,1,955.5,781.385Zm-132.488-2.573h131.2v-12.68h-131.2Z" transform="translate(-820.438 -763.56)" fill="#e2e8ed"/>
    </g>
    <g id="Group_771" data-name="Group 771" transform="translate(657.846 643.015)">
      <path id="Path_2953" data-name="Path 2953" d="M884.893,761.858H844.646a1.286,1.286,0,0,1-1.065-.563,25.467,25.467,0,0,1-4.409-14.365,1.287,1.287,0,0,1,1.287-1.286H889.08a1.287,1.287,0,0,1,1.287,1.286,25.451,25.451,0,0,1-4.41,14.365A1.286,1.286,0,0,1,884.893,761.858Zm-39.553-2.572H884.2a22.875,22.875,0,0,0,3.56-11.07H841.78A22.874,22.874,0,0,0,845.34,759.286Z" transform="translate(-839.172 -745.643)" fill="#e2e8ed"/>
    </g>
    <g id="Group_775" data-name="Group 775" transform="translate(669.823 624.233)">
      <g id="Group_772" data-name="Group 772" transform="translate(4.796 14.774)">
        <path id="Path_2954" data-name="Path 2954" d="M862.487,743.633a1.3,1.3,0,0,1-.27-.028,1.287,1.287,0,0,1-1.018-1.257,1.307,1.307,0,0,1,.028-.27,7.924,7.924,0,0,1,.218-.808,1.286,1.286,0,0,1,2.45.785,5.5,5.5,0,0,0-.151.56A1.287,1.287,0,0,1,862.487,743.633Z" transform="translate(-861.199 -740.379)" fill="#e2e8ed"/>
      </g>
      <g id="Group_773" data-name="Group 773">
        <path id="Path_2955" data-name="Path 2955" d="M861.529,737.411a1.289,1.289,0,0,1-1.249-.984,5.071,5.071,0,0,0-2.852-.874l-.156.009a1.232,1.232,0,0,1-1.155-.644,8.878,8.878,0,0,1-1.217-4.467c0-5.224,4.539-9.475,10.118-9.475s10.119,4.25,10.119,9.475c0,.033-.005.137-.007.168a1.359,1.359,0,0,1-.474.934,1.335,1.335,0,0,1-.983.308,12.928,12.928,0,0,0-1.709-.123c-4.139,0-7.867,1.984-9.273,4.94A1.287,1.287,0,0,1,861.529,737.411Zm-3.5-4.407a7.646,7.646,0,0,1,3.27,1.023,13.152,13.152,0,0,1,10.669-4.863q.234,0,.474.008a7.413,7.413,0,0,0-7.42-5.625c-4.16,0-7.546,3.1-7.546,6.9A6.206,6.206,0,0,0,858.026,733Z" transform="translate(-854.9 -720.976)" fill="#e2e8ed"/>
      </g>
      <g id="Group_774" data-name="Group 774" transform="translate(5.019 14.059)">
        <path id="Path_2956" data-name="Path 2956" d="M862.778,742.608a1.318,1.318,0,0,1-.415-.068,1.286,1.286,0,0,1-.8-1.63c.08-.239.174-.474.276-.7a1.286,1.286,0,0,1,2.351,1.043c-.072.161-.136.324-.193.491A1.287,1.287,0,0,1,862.778,742.608Z" transform="translate(-861.492 -739.44)" fill="#e2e8ed"/>
      </g>
    </g>
    <g id="Group_776" data-name="Group 776" transform="translate(674.453 632.421)">
      <path id="Path_2957" data-name="Path 2957" d="M884.293,744.9H862.536a1.287,1.287,0,0,1-1.238-.937,8.227,8.227,0,0,1-.318-2.236c0-5.511,5.578-9.994,12.434-9.994s12.434,4.483,12.434,9.994a8.23,8.23,0,0,1-.317,2.236A1.287,1.287,0,0,1,884.293,744.9Zm-20.705-2.573h19.654a5.5,5.5,0,0,0,.034-.6c0-4.092-4.424-7.421-9.861-7.421s-9.861,3.329-9.861,7.421A5.517,5.517,0,0,0,863.588,742.324Z" transform="translate(-860.981 -731.73)" fill="#e2e8ed"/>
    </g>
    <g id="Group_777" data-name="Group 777" transform="translate(664.763 636.237)">
      <path id="Path_2958" data-name="Path 2958" d="M859.5,746.092h-9.925a1.285,1.285,0,0,1-1.28-1.162c-.024-.238-.037-.481-.037-.725a7.536,7.536,0,0,1,7.589-7.464,7.639,7.639,0,0,1,5.072,1.922,1.285,1.285,0,0,1,.286,1.559,5.776,5.776,0,0,0-.684,2.7,5.6,5.6,0,0,0,.215,1.534,1.286,1.286,0,0,1-1.237,1.639Zm-8.62-2.573h7.091c-.015-.2-.022-.4-.022-.6a8.172,8.172,0,0,1,.524-2.876,5.078,5.078,0,0,0-2.625-.729A4.985,4.985,0,0,0,850.877,743.519Z" transform="translate(-848.255 -736.741)" fill="#e2e8ed"/>
    </g>
    <g id="Group_778" data-name="Group 778" transform="translate(559.179 694.549)">
      <path id="Path_2959" data-name="Path 2959" d="M819.706,879.18H710.879a1.286,1.286,0,0,1-1.286-1.286V826.056a12.749,12.749,0,0,1,12.734-12.734h85.931a12.749,12.749,0,0,1,12.734,12.734v51.838A1.287,1.287,0,0,1,819.706,879.18Zm-107.541-2.572H818.42V826.056a10.172,10.172,0,0,0-10.161-10.161H722.327a10.173,10.173,0,0,0-10.162,10.161Z" transform="translate(-709.593 -813.322)" fill="#e2e8ed"/>
    </g>
    <g id="Group_779" data-name="Group 779" transform="translate(599.787 675.776)">
      <path id="Path_2960" data-name="Path 2960" d="M786.292,802.3H769.737a6.814,6.814,0,0,1,0-13.628h16.555a6.814,6.814,0,1,1,0,13.628Zm-16.555-11.056a4.242,4.242,0,0,0,0,8.484h16.555a4.242,4.242,0,0,0,0-8.484Z" transform="translate(-762.923 -788.667)" fill="#e2e8ed"/>
    </g>
    <g id="Group_780" data-name="Group 780" transform="translate(592.412 680.915)">
      <path id="Path_2961" data-name="Path 2961" d="M796.885,811.623H754.523a1.286,1.286,0,0,1-1.286-1.286v-9a5.923,5.923,0,0,1,5.916-5.917h2.784a1.286,1.286,0,0,1,1.284,1.374c-.006.084-.017.165-.027.247a4.246,4.246,0,0,0,4.233,4.3h16.555a4.247,4.247,0,0,0,4.242-4.242c-.02-.135-.03-.217-.036-.3a1.286,1.286,0,0,1,1.283-1.374h2.784a5.923,5.923,0,0,1,5.916,5.917v9A1.286,1.286,0,0,1,796.885,811.623Zm-41.076-2.573H795.6v-7.717a3.348,3.348,0,0,0-3.344-3.344h-1.518a6.824,6.824,0,0,1-6.756,5.917H767.427a6.824,6.824,0,0,1-6.756-5.917h-1.518a3.348,3.348,0,0,0-3.344,3.344Z" transform="translate(-753.237 -795.416)" fill="#e2e8ed"/>
    </g>
    <g id="Group_791" data-name="Group 791" transform="translate(571.403 711.335)">
      <g id="Group_785" data-name="Group 785">
        <g id="Group_781" data-name="Group 781" transform="translate(0 4.695)">
          <path id="Path_2962" data-name="Path 2962" d="M736.614,872.448h0a1.282,1.282,0,0,1-.988-.464l-9.682-11.62a1.285,1.285,0,0,1-.3-.823V842.819a1.286,1.286,0,0,1,1.286-1.286H746.3a1.286,1.286,0,0,1,1.286,1.286v16.722a1.285,1.285,0,0,1-.3.823l-9.682,11.62A1.283,1.283,0,0,1,736.614,872.448Zm-8.395-13.372,8.395,10.075,8.4-10.075v-14.97H728.219Z" transform="translate(-725.646 -841.533)" fill="#e2e8ed"/>
        </g>
        <g id="Group_782" data-name="Group 782" transform="translate(5.019 12.799)">
          <path id="Path_2963" data-name="Path 2963" d="M742.849,854.748h-9.326a1.286,1.286,0,1,1,0-2.572h9.326a1.286,1.286,0,1,1,0,2.572Z" transform="translate(-732.237 -852.176)" fill="#e2e8ed"/>
        </g>
        <g id="Group_783" data-name="Group 783" transform="translate(5.019 18.266)">
          <path id="Path_2964" data-name="Path 2964" d="M742.849,861.928h-9.326a1.286,1.286,0,0,1,0-2.573h9.326a1.286,1.286,0,0,1,0,2.573Z" transform="translate(-732.237 -859.355)" fill="#e2e8ed"/>
        </g>
        <g id="Group_784" data-name="Group 784" transform="translate(5.115)">
          <path id="Path_2965" data-name="Path 2965" d="M742.783,837.94H733.65a1.286,1.286,0,0,1,0-2.573h9.133a1.286,1.286,0,0,1,0,2.573Z" transform="translate(-732.364 -835.367)" fill="#e2e8ed"/>
        </g>
      </g>
      <g id="Group_790" data-name="Group 790" transform="translate(65.016)">
        <g id="Group_786" data-name="Group 786" transform="translate(0 4.695)">
          <path id="Path_2966" data-name="Path 2966" d="M822,872.448a1.284,1.284,0,0,1-.988-.464l-9.683-11.62a1.285,1.285,0,0,1-.3-.823V842.819a1.287,1.287,0,0,1,1.287-1.286h19.364a1.286,1.286,0,0,1,1.286,1.286v16.722a1.285,1.285,0,0,1-.3.823l-9.681,11.62A1.285,1.285,0,0,1,822,872.448Zm-8.4-13.372,8.4,10.075,8.4-10.075v-14.97H813.6Z" transform="translate(-811.031 -841.533)" fill="#e2e8ed"/>
        </g>
        <g id="Group_787" data-name="Group 787" transform="translate(5.019 12.799)">
          <path id="Path_2967" data-name="Path 2967" d="M828.235,854.748H818.91a1.286,1.286,0,1,1,0-2.572h9.325a1.286,1.286,0,1,1,0,2.572Z" transform="translate(-817.623 -852.176)" fill="#e2e8ed"/>
        </g>
        <g id="Group_788" data-name="Group 788" transform="translate(5.019 18.266)">
          <path id="Path_2968" data-name="Path 2968" d="M828.235,861.928H818.91a1.286,1.286,0,1,1,0-2.573h9.325a1.286,1.286,0,0,1,0,2.573Z" transform="translate(-817.623 -859.355)" fill="#e2e8ed"/>
        </g>
        <g id="Group_789" data-name="Group 789" transform="translate(5.116)">
          <path id="Path_2969" data-name="Path 2969" d="M828.169,837.94h-9.133a1.286,1.286,0,0,1,0-2.573h9.133a1.286,1.286,0,1,1,0,2.573Z" transform="translate(-817.75 -835.367)" fill="#e2e8ed"/>
        </g>
      </g>
    </g>
    <g id="Group_792" data-name="Group 792" transform="translate(655.743 732.752)">
      <path id="Path_2970" data-name="Path 2970" d="M849.918,866.066H837.7a1.286,1.286,0,0,1,0-2.572h12.223a1.286,1.286,0,0,1,0,2.572Z" transform="translate(-836.409 -863.494)" fill="#e2e8ed"/>
    </g>
    <g id="Group_793" data-name="Group 793" transform="translate(590.766 732.752)">
      <path id="Path_2971" data-name="Path 2971" d="M798.015,866.066H752.363a1.286,1.286,0,1,1,0-2.572h45.653a1.286,1.286,0,0,1,0,2.572Z" transform="translate(-751.076 -863.494)" fill="#e2e8ed"/>
    </g>
    <g id="Group_794" data-name="Group 794" transform="translate(559.139 732.752)">
      <path id="Path_2972" data-name="Path 2972" d="M723.049,866.066H710.826a1.286,1.286,0,1,1,0-2.572h12.223a1.286,1.286,0,1,1,0,2.572Z" transform="translate(-709.54 -863.494)" fill="#e2e8ed"/>
    </g>
    <g id="Group_795" data-name="Group 795" transform="translate(757.261 671.911)">
      <path id="Path_2973" data-name="Path 2973" d="M982.082,872.088H971.019a1.287,1.287,0,0,1-1.287-1.286V784.877a1.287,1.287,0,0,1,1.287-1.286h11.063a1.286,1.286,0,0,1,1.286,1.286V870.8A1.286,1.286,0,0,1,982.082,872.088Zm-9.777-2.572H980.8V786.164H972.3Z" transform="translate(-969.732 -783.591)" fill="#e2e8ed"/>
    </g>
    <g id="Group_796" data-name="Group 796" transform="translate(652.614 671.911)">
      <path id="Path_2974" data-name="Path 2974" d="M844.207,810.953a1.286,1.286,0,0,1-1.286-1.286v-23.5h-8.048v21.353a1.286,1.286,0,0,1-2.573,0V784.877a1.287,1.287,0,0,1,1.287-1.286h10.62a1.286,1.286,0,0,1,1.286,1.286v24.79A1.286,1.286,0,0,1,844.207,810.953Z" transform="translate(-832.3 -783.591)" fill="#e2e8ed"/>
    </g>
    <g id="Group_797" data-name="Group 797" transform="translate(79.07 757.835)">
      <path id="Path_2975" data-name="Path 2975" d="M790.391,899.007H80.356a1.286,1.286,0,0,1,0-2.572H790.391a1.286,1.286,0,0,1,0,2.572Z" transform="translate(-79.07 -896.435)" fill="#e2e8ed"/>
    </g>
    <g id="Group_798" data-name="Group 798" transform="translate(163.038 745.937)">
      <path id="Path_2976" data-name="Path 2976" d="M214.042,895.279H190.631a1.286,1.286,0,0,1-1.286-1.286,12.993,12.993,0,1,1,25.984,0A1.287,1.287,0,0,1,214.042,895.279Zm-22.048-2.572h20.686a10.4,10.4,0,0,0-20.686,0Z" transform="translate(-189.345 -880.809)" fill="#e2e8ed"/>
    </g>
    <g id="Group_799" data-name="Group 799" transform="translate(172.36 730.223)">
      <path id="Path_2977" data-name="Path 2977" d="M244.282,890.356h-27.32a1.286,1.286,0,0,1-1.286-1.286,10.528,10.528,0,0,0-10.419-10.612,10.285,10.285,0,0,0-2.119.221,1.286,1.286,0,0,1-1.507-1.591,22.8,22.8,0,1,1,43.885,12.345A1.287,1.287,0,0,1,244.282,890.356Zm-26.095-2.572H243.3A20.224,20.224,0,0,0,204.708,875.9c.183-.008.366-.012.549-.012A13.085,13.085,0,0,1,218.187,887.784Z" transform="translate(-201.587 -860.172)" fill="#e2e8ed"/>
    </g>
    <g id="Group_800" data-name="Group 800" transform="translate(106.324 739.14)">
      <path id="Path_2978" data-name="Path 2978" d="M146.469,884.746H127.125a24.593,24.593,0,0,1-11.58-3.047,1.288,1.288,0,0,1-.46-1.86,34.8,34.8,0,0,1,7.25-7.678,1.285,1.285,0,0,1,.8-.278H135.2a12.534,12.534,0,0,1,12.548,11.461,1.286,1.286,0,0,1-1.281,1.4Zm-28.392-4.662a21.5,21.5,0,0,0,9.048,2.09h17.838a9.968,9.968,0,0,0-9.761-7.718H123.584A32.715,32.715,0,0,0,118.077,880.084Z" transform="translate(-114.862 -871.883)" fill="#e2e8ed"/>
    </g>
    <g id="Group_801" data-name="Group 801" transform="translate(106.315 728.336)">
      <path id="Path_2979" data-name="Path 2979" d="M196.271,889.765H166.287a1.286,1.286,0,0,1-1.272-1.092,8.665,8.665,0,0,0-8.507-7.312H127.122a24.584,24.584,0,0,1-11.589-3.053,1.287,1.287,0,0,1-.459-1.859c7.749-11.393,24.426-18.755,42.485-18.755,11.457,0,22.495,2.911,31.081,8.2a1.287,1.287,0,0,1,.224,2.016,20.336,20.336,0,0,0-4.844,7.4c.181-.008.364-.012.546-.012a13.1,13.1,0,0,1,12.992,13.184A1.287,1.287,0,0,1,196.271,889.765Zm-28.933-2.572h27.571a10.5,10.5,0,0,0-10.343-9.325,10.281,10.281,0,0,0-2.119.221,1.286,1.286,0,0,1-1.507-1.591,22.759,22.759,0,0,1,4.978-9.226,58.1,58.1,0,0,0-28.359-7.005c-16.579,0-31.871,6.405-39.493,16.43a21.5,21.5,0,0,0,9.057,2.093h29.386A11.107,11.107,0,0,1,167.337,887.193Z" transform="translate(-114.851 -857.694)" fill="#e2e8ed"/>
    </g>
    <g id="Group_802" data-name="Group 802" transform="translate(91.335 744.287)">
      <path id="Path_2980" data-name="Path 2980" d="M161.593,894.763H97.908a1.287,1.287,0,0,1-1.073-.576,10.025,10.025,0,0,1,13.631-14.054,22.633,22.633,0,0,0,11.962,3.654h29.386a11.115,11.115,0,0,1,11.05,9.5,1.285,1.285,0,0,1-1.272,1.48ZM98.635,892.19h61.323a8.678,8.678,0,0,0-8.143-5.832H122.429a25.173,25.173,0,0,1-13.315-4.037A7.455,7.455,0,0,0,97.8,887.751,7.391,7.391,0,0,0,98.635,892.19Z" transform="translate(-95.177 -878.643)" fill="#e2e8ed"/>
    </g>
    <g id="Group_803" data-name="Group 803" transform="translate(200.697 743.768)">
      <path id="Path_2981" data-name="Path 2981" d="M245.718,882.7a1.282,1.282,0,0,1-.462-.086l-5.63-2.167a1.287,1.287,0,0,1,.924-2.4l5.63,2.168a1.287,1.287,0,0,1-.462,2.488Z" transform="translate(-238.802 -877.96)" fill="#e2e8ed"/>
    </g>
    <g id="Group_804" data-name="Group 804" transform="translate(186.449 738.282)">
      <path id="Path_2982" data-name="Path 2982" d="M229.633,876.509a1.3,1.3,0,0,1-.461-.085l-8.258-3.18a1.287,1.287,0,0,1,.924-2.4l8.258,3.18a1.286,1.286,0,0,1-.463,2.487Z" transform="translate(-220.09 -870.756)" fill="#e2e8ed"/>
    </g>
    <g id="Group_805" data-name="Group 805" transform="translate(185.35 721.132)">
      <path id="Path_2983" data-name="Path 2983" d="M219.934,861.352a1.326,1.326,0,0,1-.237-.022,1.286,1.286,0,0,1-1.029-1.5c.066-.354,1.623-8.692,2.333-10.733a1.287,1.287,0,0,1,1.892-.67c1.581.978,9.51,6.056,10.355,9.909a1.286,1.286,0,0,1-2.513.551c-.393-1.788-4.377-5.062-7.742-7.33-.608,2.546-1.453,6.9-1.8,8.745A1.287,1.287,0,0,1,219.934,861.352Z" transform="translate(-218.646 -848.232)" fill="#e2e8ed"/>
    </g>
    <g id="Group_806" data-name="Group 806" transform="translate(209.389 734.425)">
      <path id="Path_2984" data-name="Path 2984" d="M255.826,879.262a1.286,1.286,0,0,1-.819-2.277c2.136-1.762,3.719-5.918,4.511-8.6a18.926,18.926,0,0,0-7.274,2.861,1.287,1.287,0,0,1-1.482-2.1,20.392,20.392,0,0,1,10.456-3.452,1.286,1.286,0,0,1,1.256,1.565c-.076.346-1.922,8.49-5.83,11.713A1.277,1.277,0,0,1,255.826,879.262Z" transform="translate(-250.217 -865.69)" fill="#e2e8ed"/>
    </g>
    <g id="Group_807" data-name="Group 807" transform="translate(113.028 712.9)">
      <path id="Path_2985" data-name="Path 2985" d="M127.912,850.285a1.286,1.286,0,0,1-1.237-1.642l2.168-7.539-3.334,1.594a1.287,1.287,0,0,1-1.111-2.321l5.917-2.83a1.286,1.286,0,0,1,1.791,1.517l-2.172,7.553,4.758-2.254a1.287,1.287,0,1,1,1.1,2.325l-7.332,3.473A1.286,1.286,0,0,1,127.912,850.285Z" transform="translate(-123.667 -837.422)" fill="#e2e8ed"/>
    </g>
    <g id="Group_808" data-name="Group 808" transform="translate(141.07 702.611)">
      <path id="Path_2986" data-name="Path 2986" d="M164.869,840.623a1.286,1.286,0,0,1-1-2.09l9.5-11.873-11.506.719a1.287,1.287,0,0,1-.161-2.568l14.407-.9a1.317,1.317,0,0,1,1.222.691,1.288,1.288,0,0,1-.137,1.4l-9.456,11.817,11.306-.911a1.286,1.286,0,0,1,.207,2.565l-14.275,1.151C164.938,840.622,164.9,840.623,164.869,840.623Z" transform="translate(-160.494 -823.91)" fill="#e2e8ed"/>
    </g>
    <g id="Group_809" data-name="Group 809" transform="translate(176.185 704.925)">
      <path id="Path_2987" data-name="Path 2987" d="M214.586,841.355a1.281,1.281,0,0,1-.5-.1l-6.689-2.83a1.287,1.287,0,0,1-.164-2.287l7.177-4.332-4.779-2.423a1.287,1.287,0,0,1,1.163-2.3l6.849,3.473a1.288,1.288,0,0,1,.082,2.249l-7.005,4.228,4.366,1.846a1.287,1.287,0,0,1-.5,2.472Z" transform="translate(-206.611 -826.948)" fill="#e2e8ed"/>
    </g>
    <g id="Group_813" data-name="Group 813" transform="translate(311.328 723.448)">
      <g id="Group_811" data-name="Group 811">
        <path id="Path_2990" data-name="Path 2990" d="M411.447,888.234H393.953a1.287,1.287,0,0,1-1.249-.975l-8.575-34.387a1.287,1.287,0,0,1,1.248-1.6h34.644a1.287,1.287,0,0,1,1.248,1.6l-8.575,34.387A1.286,1.286,0,0,1,411.447,888.234Zm-16.489-2.572h15.484l7.933-31.815h-31.35Z" transform="translate(-384.092 -851.274)" fill="#e2e8ed"/>
      </g>
      <g id="Group_812" data-name="Group 812" transform="translate(171.648)">
        <path id="Path_2992" data-name="Path 2992" d="M636.871,888.234H619.377a1.285,1.285,0,0,1-1.248-.975l-8.575-34.387a1.287,1.287,0,0,1,1.249-1.6h34.644a1.287,1.287,0,0,1,1.248,1.6l-8.576,34.387A1.286,1.286,0,0,1,636.871,888.234Zm-16.488-2.572h15.483l7.935-31.815H612.448Z" transform="translate(-609.516 -851.274)" fill="#e2e8ed"/>
      </g>
    </g>
    <g id="Group_822" data-name="Group 822" transform="translate(404.8 442.607)">
      <g id="Group_817" data-name="Group 817" transform="translate(0 0)">
        <g id="Group_814" data-name="Group 814" transform="translate(38.512 0)">
          <path id="Path_2993" data-name="Path 2993" d="M558.713,493.6a1.288,1.288,0,0,1-1.221-1.693l2.852-8.575a1.287,1.287,0,0,1,2.442.812l-2.852,8.575A1.289,1.289,0,0,1,558.713,493.6Z" transform="translate(-557.426 -482.449)" fill="#e2e8ed"/>
        </g>
        <g id="Group_815" data-name="Group 815" transform="translate(19.256 0)">
          <path id="Path_2994" data-name="Path 2994" d="M533.424,493.6A1.288,1.288,0,0,1,532.2,491.9l2.852-8.575a1.287,1.287,0,0,1,2.442.812l-2.852,8.575A1.289,1.289,0,0,1,533.424,493.6Z" transform="translate(-532.137 -482.449)" fill="#e2e8ed"/>
        </g>
        <g id="Group_816" data-name="Group 816">
          <path id="Path_2995" data-name="Path 2995" d="M508.135,493.6a1.288,1.288,0,0,1-1.221-1.693l2.852-8.575a1.286,1.286,0,0,1,2.441.812l-2.852,8.575A1.287,1.287,0,0,1,508.135,493.6Z" transform="translate(-506.848 -482.449)" fill="#e2e8ed"/>
        </g>
      </g>
      <g id="Group_821" data-name="Group 821" transform="translate(77.75 0)">
        <g id="Group_818" data-name="Group 818">
          <path id="Path_2996" data-name="Path 2996" d="M613.1,493.6a1.288,1.288,0,0,1-1.221-.881l-2.852-8.575a1.287,1.287,0,0,1,2.442-.812l2.852,8.575A1.288,1.288,0,0,1,613.1,493.6Z" transform="translate(-608.957 -482.449)" fill="#e2e8ed"/>
        </g>
        <g id="Group_819" data-name="Group 819" transform="translate(19.256)">
          <path id="Path_2997" data-name="Path 2997" d="M638.385,493.6a1.288,1.288,0,0,1-1.221-.881l-2.852-8.575a1.287,1.287,0,0,1,2.442-.812l2.852,8.575a1.288,1.288,0,0,1-1.221,1.693Z" transform="translate(-634.246 -482.449)" fill="#e2e8ed"/>
        </g>
        <g id="Group_820" data-name="Group 820" transform="translate(38.512)">
          <path id="Path_2998" data-name="Path 2998" d="M663.674,493.6a1.288,1.288,0,0,1-1.221-.881l-2.852-8.575a1.287,1.287,0,0,1,2.442-.812l2.852,8.575a1.288,1.288,0,0,1-1.221,1.693Z" transform="translate(-659.535 -482.449)" fill="#e2e8ed"/>
        </g>
      </g>
    </g>
    <g id="Group_823" data-name="Group 823" transform="translate(625.023 430.123)">
      <path id="Path_2999" data-name="Path 2999" d="M838.512,491.744H834.4a1.286,1.286,0,1,1,0-2.572h4.116a1.286,1.286,0,1,1,0,2.572Zm-12.348,0h-4.116a1.286,1.286,0,1,1,0-2.572h4.116a1.286,1.286,0,1,1,0,2.572Zm-12.348,0H809.7a1.286,1.286,0,1,1,0-2.572h4.116a1.286,1.286,0,1,1,0,2.572Zm-12.348,0h-4.116a1.286,1.286,0,1,1,0-2.572h4.116a1.286,1.286,0,1,1,0,2.572Zm38.625-6.653a1.286,1.286,0,0,1-1.286-1.286v-4.116a1.286,1.286,0,1,1,2.572,0V483.8A1.286,1.286,0,0,1,840.093,485.091Zm0-12.348a1.286,1.286,0,0,1-1.286-1.286V467.34a1.286,1.286,0,1,1,2.572,0v4.116A1.286,1.286,0,0,1,840.093,472.742Z" transform="translate(-796.065 -466.054)" fill="#e2e8ed"/>
    </g>
    <path id="Path_3000" data-name="Path 3000" d="M167.628,558.568a1.287,1.287,0,0,1-1.287-1.287v-4.116a1.286,1.286,0,1,1,2.573,0v4.116A1.287,1.287,0,0,1,167.628,558.568Zm0-12.348a1.287,1.287,0,0,1-1.287-1.287v-4.116a1.286,1.286,0,1,1,2.573,0v4.116A1.287,1.287,0,0,1,167.628,546.219Zm0-12.349a1.287,1.287,0,0,1-1.287-1.286v-4.116a1.286,1.286,0,0,1,2.573,0v4.116A1.287,1.287,0,0,1,167.628,533.87Zm0-12.348a1.286,1.286,0,0,1-1.287-1.286v-4.116a1.286,1.286,0,1,1,2.573,0v4.116A1.286,1.286,0,0,1,167.628,521.522Zm0-12.348a1.286,1.286,0,0,1-1.287-1.287v-4.116a1.286,1.286,0,1,1,2.573,0v4.116A1.287,1.287,0,0,1,167.628,509.173Z" transform="translate(-20.819 -44.621)" fill="#e2e8ed"/>
    <g id="Group_824" data-name="Group 824" transform="translate(375.899 531.733)">
      <path id="Path_3001" data-name="Path 3001" d="M470.179,667.927a1.286,1.286,0,0,1-1.286-1.286v-4.116a1.286,1.286,0,0,1,2.573,0v4.116A1.287,1.287,0,0,1,470.179,667.927Zm0-12.348a1.286,1.286,0,0,1-1.286-1.286v-4.116a1.286,1.286,0,0,1,2.573,0v4.116A1.286,1.286,0,0,1,470.179,655.579Zm0-12.348a1.286,1.286,0,0,1-1.286-1.286v-4.116a1.286,1.286,0,0,1,2.573,0v4.116A1.287,1.287,0,0,1,470.179,643.231Zm0-12.348a1.286,1.286,0,0,1-1.286-1.286V625.48a1.286,1.286,0,0,1,2.573,0V629.6A1.287,1.287,0,0,1,470.179,630.882Zm0-12.348a1.286,1.286,0,0,1-1.286-1.286v-4.116a1.286,1.286,0,0,1,2.573,0v4.116A1.286,1.286,0,0,1,470.179,618.534Zm0-12.348a1.286,1.286,0,0,1-1.286-1.286v-4.116a1.286,1.286,0,0,1,2.573,0V604.9A1.287,1.287,0,0,1,470.179,606.185Z" transform="translate(-468.893 -599.497)" fill="#e2e8ed"/>
    </g>
    <g id="Group_825" data-name="Group 825" transform="translate(175.788 557.516)">
      <path id="Path_3002" data-name="Path 3002" d="M254.2,654.967h-4.116a1.286,1.286,0,1,1,0-2.572H254.2a1.286,1.286,0,1,1,0,2.572Zm-12.348,0h-4.116a1.286,1.286,0,1,1,0-2.572h4.116a1.286,1.286,0,1,1,0,2.572Zm-12.348,0h-4.116a1.286,1.286,0,1,1,0-2.572H229.5a1.286,1.286,0,1,1,0,2.572Zm-12.348,0h-4.116a1.286,1.286,0,1,1,0-2.572h4.116a1.286,1.286,0,1,1,0,2.572Zm-9.775-2.572a1.287,1.287,0,0,1-1.287-1.287v-4.116a1.286,1.286,0,1,1,2.573,0v4.116A1.286,1.286,0,0,1,207.376,652.395Zm0-12.348a1.287,1.287,0,0,1-1.287-1.287v-4.116a1.286,1.286,0,1,1,2.573,0v4.116A1.287,1.287,0,0,1,207.376,640.046Z" transform="translate(-206.089 -633.357)" fill="#e2e8ed"/>
    </g>
    <g id="Group_826" data-name="Group 826" transform="translate(260.181 576.553)">
      <path id="Path_3003" data-name="Path 3003" d="M371.717,660.931H367.6a1.286,1.286,0,1,1,0-2.572h4.116a1.286,1.286,0,1,1,0,2.572Zm-12.348,0h-4.116a1.286,1.286,0,1,1,0-2.572h4.116a1.286,1.286,0,1,1,0,2.572Zm-12.348,0H342.9a1.286,1.286,0,1,1,0-2.572h4.116a1.286,1.286,0,1,1,0,2.572Zm-12.348,0h-4.116a1.286,1.286,0,1,1,0-2.572h4.116a1.286,1.286,0,1,1,0,2.572Zm-12.348,0h-4.116a1.286,1.286,0,1,1,0-2.572h4.116a1.286,1.286,0,1,1,0,2.572Z" transform="translate(-316.921 -658.359)" fill="#e2e8ed"/>
    </g>
    <g id="Group_827" data-name="Group 827" transform="translate(310.565 508.894)">
      <path id="Path_3004" data-name="Path 3004" d="M425.538,572.075h-4.116a1.286,1.286,0,1,1,0-2.572h4.116a1.286,1.286,0,0,1,0,2.572Zm-12.348,0h-4.116a1.286,1.286,0,1,1,0-2.572h4.116a1.286,1.286,0,1,1,0,2.572Zm-12.349,0h-4.116a1.286,1.286,0,0,1,0-2.572h4.116a1.286,1.286,0,1,1,0,2.572Zm-12.348,0h-4.116a1.286,1.286,0,0,1,0-2.572h4.116a1.286,1.286,0,0,1,0,2.572Z" transform="translate(-383.09 -569.503)" fill="#e2e8ed"/>
    </g>
    <g id="Group_828" data-name="Group 828" transform="translate(470.103 544.773)">
      <path id="Path_3005" data-name="Path 3005" d="M610.361,619.194h-4.116a1.286,1.286,0,1,1,0-2.572h4.116a1.286,1.286,0,1,1,0,2.572Zm-12.348,0H593.9a1.286,1.286,0,1,1,0-2.572h4.116a1.286,1.286,0,0,1,0,2.572Z" transform="translate(-592.61 -616.622)" fill="#e2e8ed"/>
    </g>
    <g id="Group_829" data-name="Group 829" transform="translate(381.735 544.773)">
      <path id="Path_3006" data-name="Path 3006" d="M555.707,619.194h-4.116a1.286,1.286,0,1,1,0-2.572h4.116a1.286,1.286,0,0,1,0,2.572Zm-12.348,0h-4.116a1.286,1.286,0,0,1,0-2.572h4.116a1.286,1.286,0,0,1,0,2.572Zm-12.348,0h-4.116a1.286,1.286,0,0,1,0-2.572h4.116a1.286,1.286,0,0,1,0,2.572Zm-12.348,0h-4.116a1.286,1.286,0,1,1,0-2.572h4.116a1.286,1.286,0,1,1,0,2.572Zm-12.348,0H502.2a1.286,1.286,0,0,1,0-2.572h4.116a1.286,1.286,0,1,1,0,2.572Zm-12.348,0h-4.116a1.286,1.286,0,1,1,0-2.572h4.116a1.286,1.286,0,0,1,0,2.572Zm-12.348,0h-3.773a1.286,1.286,0,1,1,0-2.572h3.773a1.286,1.286,0,0,1,0,2.572Z" transform="translate(-476.557 -616.622)" fill="#e2e8ed"/>
    </g>
  </g>
</svg>
