<svg xmlns="http://www.w3.org/2000/svg" width="395.2" height="309.503" viewBox="0 0 395.2 309.503">
  <g id="illustration-students" transform="translate(-221.813 -321.777)">
    <g id="Group_314" data-name="Group 314" transform="translate(347.938 480.697)">
      <path id="Path_2511" data-name="Path 2511" d="M404.455,568.224l29.8-16.314s13.723,48.9,39.925,48.9,39.925-48.9,39.925-48.9l29.8,16.314s-11.1,7.416-14.022,34.14-4.287,98.561-4.287,98.561H422.264s-3.1-95.728-4.351-107.438S409.206,570.583,404.455,568.224Z" transform="translate(-404.455 -551.91)" fill="#fabf62"/>
    </g>
    <g id="Group_315" data-name="Group 315" transform="translate(476.758 466.162)">
      <path id="Path_2512" data-name="Path 2512" d="M591,555.229s20.13-12.114,28.068-15.822,18.79-8.546,18.79-8.546,6.091,7.185,14.183,5.8a38.906,38.906,0,0,0,14.307-5.792s45.805,18.163,56.18,35.517,4.623,72.282,6.664,87.32.5,39.865.5,39.865L620.748,694.73S624.8,637.9,624.027,619.9s-3-32.366-5.958-39.8S597.8,556.8,591,555.229Z" transform="translate(-591 -530.861)" fill="#bdffe7"/>
    </g>
    <g id="Group_316" data-name="Group 316" transform="translate(228.006 490.721)">
      <path id="Path_2513" data-name="Path 2513" d="M338.692,583.72s-7.176-8.29-16.534-12.915-19.852-4.377-19.852-4.377,6.312,14.991,5.32,19.8-8.093,12.985-17.062,12.633-17.983-4.491-17.774-14.1a41.437,41.437,0,0,1,4.46-17.29,49.7,49.7,0,0,0-32.762,11.743c-15.007,12.916-13.9,37.8-13.529,63.77s.282,62.436.282,62.436l100.433.318s-3.737-54.531-2.989-76.4S332.489,590.2,338.692,583.72Z" transform="translate(-230.78 -566.426)" fill="#a2d1f8"/>
    </g>
    <g id="Group_333" data-name="Group 333" transform="translate(432.36 518.877)">
      <path id="Path_2531" data-name="Path 2531" d="M528.271,639.223a1.566,1.566,0,0,1-.212-3.118c.246-.036,19.782-3.082,29.811-27.928a1.566,1.566,0,0,1,2.905,1.173c-10.753,26.642-31.416,29.74-32.291,29.859A1.568,1.568,0,0,1,528.271,639.223Z" transform="translate(-526.707 -607.198)" fill="#cc923e"/>
    </g>
    <g id="Group_334" data-name="Group 334" transform="translate(332.997 511.565)">
      <path id="Path_2532" data-name="Path 2532" d="M384.953,673.477a1.567,1.567,0,0,1-1.563-1.5c-.012-.29-1.229-29.182-.071-48.249,1.2-19.839,13.177-26.646,13.687-26.926a1.567,1.567,0,0,1,1.514,2.744c-.463.259-10.98,6.36-12.074,24.373-1.148,18.906.061,47.635.075,47.923a1.567,1.567,0,0,1-1.5,1.633Z" transform="translate(-382.819 -596.609)" fill="#1c3e58"/>
    </g>
    <g id="Group_335" data-name="Group 335" transform="translate(478.799 543.455)">
      <path id="Path_2533" data-name="Path 2533" d="M595.523,729.771h-.044a1.567,1.567,0,0,1-1.523-1.609c.013-.468,1.286-47.164,1.5-83.814a1.566,1.566,0,0,1,1.566-1.558h.009a1.566,1.566,0,0,1,1.558,1.575c-.212,36.685-1.486,83.415-1.5,83.883A1.568,1.568,0,0,1,595.523,729.771Z" transform="translate(-593.955 -642.79)" fill="#1c3e58"/>
    </g>
    <g id="Group_336" data-name="Group 336" transform="translate(374.275 340.567)">
      <path id="Path_2534" data-name="Path 2534" d="M444.16,374.382a1.566,1.566,0,0,1-1.479-2.079c.213-.615,5.405-15.068,21.235-16.625,4.241-.417,8.517-.549,13.045-.688,11.489-.355,23.371-.722,35.76-5.882a1.566,1.566,0,1,1,1.2,2.891c-12.922,5.382-25.095,5.757-36.868,6.122-4.474.137-8.7.269-12.835.675-13.8,1.357-18.4,14-18.584,14.536A1.569,1.569,0,0,1,444.16,374.382Z" transform="translate(-442.594 -348.986)" fill="#fff"/>
    </g>
    <g id="Group_343" data-name="Group 343" transform="translate(232.932 402.336)">
      <path id="Path_2541" data-name="Path 2541" d="M240.893,521.153a1.567,1.567,0,0,1-1.558-1.418c-5.648-59.517,7.331-79.769,7.887-80.6a1.566,1.566,0,0,1,2.609,1.734c-.146.224-12.894,20.443-7.377,78.572a1.566,1.566,0,0,1-1.411,1.707A1.348,1.348,0,0,1,240.893,521.153Z" transform="translate(-237.915 -438.434)" fill="#fff"/>
    </g>
    <g id="Group_347" data-name="Group 347" transform="translate(252.141 533.116)">
      <path id="Path_2545" data-name="Path 2545" d="M288.065,671.647a1.645,1.645,0,0,1-.3-.029c-10.609-2.09-19.477-9.38-21.564-17.731-2.286-9.144,4.558-24.5,4.85-25.145a1.567,1.567,0,0,1,2.857,1.287c-.068.148-6.69,15.008-4.667,23.1,1.8,7.213,9.669,13.554,19.13,15.416a1.566,1.566,0,0,1-.3,3.1Z" transform="translate(-265.73 -627.818)" fill="#1c3e58"/>
    </g>
    <g id="Group_348" data-name="Group 348" transform="translate(254.037 568.725)">
      <path id="Path_2546" data-name="Path 2546" d="M270.043,741.938a1.566,1.566,0,0,1-1.567-1.566V680.95a1.567,1.567,0,1,1,3.133,0v59.422A1.566,1.566,0,0,1,270.043,741.938Z" transform="translate(-268.476 -679.383)" fill="#1c3e58"/>
    </g>
    <g id="Group_349" data-name="Group 349" transform="translate(262.522 578.401)">
      <path id="Path_2547" data-name="Path 2547" d="M309.946,705.612H309.9c-18.585-.5-28.229-9.126-28.63-9.493a1.567,1.567,0,0,1,2.111-2.315h0c.09.082,9.258,8.208,26.6,8.675a1.567,1.567,0,0,1-.041,3.133Z" transform="translate(-280.763 -693.395)" fill="#1c3e58"/>
    </g>
    <g id="Group_350" data-name="Group 350" transform="translate(490.195 352.004)">
      <path id="Path_2548" data-name="Path 2548" d="M689.522,445.205a7.771,7.771,0,0,1-2.842-.525,1.566,1.566,0,0,1,1.173-2.905,4.018,4.018,0,0,0,4.94-1.529c1.261-2.017,1.2-2.759,1.1-3.883a9.6,9.6,0,0,1,.177-3.269,5.376,5.376,0,0,1,2.634-3.52,3.953,3.953,0,0,0,2.039-2.981c.369-1.712.1-2.033-.317-2.518a3.89,3.89,0,0,1-.909-3.9,6.762,6.762,0,0,1,2.313-3.71c.728-.673,1.061-.981,1.094-1.974.041-1.262-.562-2.061-1.552-3.259a6.929,6.929,0,0,1-2.018-4.173c-.079-1.831,1.045-3.311,2.036-4.618,1.165-1.534,1.853-2.551,1.6-3.735a4.3,4.3,0,0,0-1.579-2.58,8.464,8.464,0,0,1-2.605-4.069,8.009,8.009,0,0,1,.086-4.817c.312-1.152.441-1.63-.243-2.62a3.676,3.676,0,0,0-2.92-1.718,10.4,10.4,0,0,1-4.879-2.123,9.518,9.518,0,0,1-3.172-4.629c-.531-1.393-.852-2.235-2.489-2.909a4.031,4.031,0,0,0-3.421-.182,8.975,8.975,0,0,1-5.037.269,13.166,13.166,0,0,1-4.464-2.052c-1.414-.894-2.523-1.612-3.96-1.49a2.983,2.983,0,0,0-2.683,1.748,4.634,4.634,0,0,1-4.944,2.492c-2.384-.28-3.86-1.8-5.163-3.147-1.6-1.655-2.529-2.5-4.428-2.085-1.6.352-1.771.874-2.144,2.018-.455,1.391-1.143,3.494-4.8,4.125a7.27,7.27,0,0,1-5.623-.919c-.65-.381-.647-.381-1.368.079-.684.439-.668.57-.542,1.593a4.965,4.965,0,0,1-1.9,5.076c-1.849,1.494-4.124,1.461-6.118,1.437-2.449-.036-3.873.023-4.833,1.545a3.561,3.561,0,0,0-.349,3.356,6.4,6.4,0,0,1-.039,4.213c-.773,1.974-2.575,3.041-4.165,3.983a6.66,6.66,0,0,0-2.648,2.15c-.336.707-.109,1.311.628,2.855a14.306,14.306,0,0,1,1.566,4.916,10.34,10.34,0,0,1-2.1,6.85,5.042,5.042,0,0,0-1.06,2.322c.039.41.565.83,1.428,1.476,1.374,1.03,3.255,2.438,3.255,5.275a7.416,7.416,0,0,1-1.36,4.335,3.03,3.03,0,0,0-.6,2.742c.149.748.356.836,1.431,1.177,1.473.467,3.7,1.174,4.265,4.993.057.392.108.793.16,1.2.485,3.839.951,6.02,4.839,6.02h.072a1.566,1.566,0,0,1,.01,3.132c-6.928.026-7.585-5.253-8.03-8.758-.048-.386-.1-.767-.151-1.137-.279-1.883-.892-2.077-2.113-2.465a4.405,4.405,0,0,1-3.555-3.549,6.043,6.043,0,0,1,1.016-5.024,4.333,4.333,0,0,0,.88-2.667c0-1.211-.724-1.811-2-2.767-1.11-.831-2.492-1.867-2.668-3.681-.158-1.628.7-2.985,1.53-4.3.941-1.49,1.831-2.9,1.63-4.856a11.389,11.389,0,0,0-1.278-3.887c-.769-1.61-1.639-3.433-.63-5.552.8-1.671,2.435-2.642,3.88-3.5,1.268-.751,2.465-1.461,2.844-2.429a3.435,3.435,0,0,0-.082-2.313,6.608,6.608,0,0,1,.737-5.785c1.942-3.083,5.033-3.042,7.526-3.008,1.674.02,3.137.043,4.108-.742.946-.764.888-1.231.762-2.254a4.17,4.17,0,0,1,1.962-4.616c2.157-1.38,3.427-.855,4.643-.142a4.272,4.272,0,0,0,3.505.534c1.8-.31,1.97-.843,2.352-2.011a5.313,5.313,0,0,1,4.452-4.1c3.685-.814,5.717,1.282,7.349,2.965,1.073,1.108,2,2.065,3.278,2.216,1.144.135,1.3-.106,1.969-1.115a6.022,6.022,0,0,1,5.048-3.138c2.488-.2,4.283.955,5.88,1.967a10.369,10.369,0,0,0,3.42,1.63,5.948,5.948,0,0,0,3.489-.2,7.732,7.732,0,0,1,9.753,4.972,6.489,6.489,0,0,0,2.176,3.278,7.4,7.4,0,0,0,3.569,1.519,6.674,6.674,0,0,1,4.876,3.008,5.5,5.5,0,0,1,.69,5.22,4.962,4.962,0,0,0-.109,3.1,5.4,5.4,0,0,0,1.773,2.706,7.381,7.381,0,0,1,2.473,4.183c.577,2.677-.943,4.68-2.165,6.29-.735.97-1.432,1.887-1.4,2.588.032.739.517,1.361,1.3,2.315a7.617,7.617,0,0,1,2.266,5.358,5.425,5.425,0,0,1-2.1,4.169,3.706,3.706,0,0,0-1.39,2.115c-.16.7-.122.741.241,1.167.857,1,1.639,2.234,1,5.212a7,7,0,0,1-3.339,4.91c-.786.534-1.144.778-1.342,1.634a6.51,6.51,0,0,0-.108,2.3c.146,1.7.117,3.114-1.568,5.81A6.731,6.731,0,0,1,689.522,445.205Z" transform="translate(-610.457 -365.549)" fill="#e8eef2"/>
    </g>
    <g id="Group_351" data-name="Group 351" transform="translate(529.602 436.71)">
      <path id="Path_2549" data-name="Path 2549" d="M676.222,494.716a12.124,12.124,0,0,1-8.243-3.083,1.566,1.566,0,0,1,2.216-2.215,9.182,9.182,0,0,0,7.3,2.087c3.96-.477,5.275-2.474,5.328-2.558a1.578,1.578,0,0,1,2.147-.508,1.554,1.554,0,0,1,.541,2.117c-.081.137-2.047,3.386-7.641,4.059A13.759,13.759,0,0,1,676.222,494.716Z" transform="translate(-667.523 -488.212)" fill="#e8eef2"/>
    </g>
    <g id="Group_352" data-name="Group 352" transform="translate(504.359 385.791)">
      <path id="Path_2550" data-name="Path 2550" d="M663.549,485.6a27.524,27.524,0,0,1-27.182-23.918,6.128,6.128,0,0,1-5.4-6.077v-5.292a6.129,6.129,0,0,1,5.17-6.045v-7.1a12.8,12.8,0,0,1,.258-2.554l.608-2.977a20.191,20.191,0,0,1,14.47-15.579,47.648,47.648,0,0,1,11.947-1.579c.718,0,1.373.021,1.947.057,5.306.334,7.11,1.873,8.7,3.23a8.527,8.527,0,0,0,4.989,2.325c9.49,1.532,11.934,10.946,11.9,15.71v8.466a6.128,6.128,0,0,1,5.168,6.045V455.6a6.127,6.127,0,0,1-5.4,6.077A27.525,27.525,0,0,1,663.549,485.6Zm-26.459-38.274a2.99,2.99,0,0,0-2.987,2.987V455.6a2.99,2.99,0,0,0,2.987,2.987h.7a1.565,1.565,0,0,1,1.561,1.448,24.271,24.271,0,0,0,48.4,0,1.565,1.565,0,0,1,1.561-1.448h.7a2.99,2.99,0,0,0,2.986-2.987v-5.292a2.99,2.99,0,0,0-2.986-2.987h-.615a1.566,1.566,0,0,1-1.566-1.566v-9.969c0-.461-.073-11.122-9.268-12.607a11.512,11.512,0,0,1-6.524-3.034c-1.394-1.191-2.6-2.218-6.862-2.487-.517-.032-1.1-.05-1.751-.05a44.386,44.386,0,0,0-11.123,1.469,17.073,17.073,0,0,0-12.226,13.184l-.608,2.976a9.7,9.7,0,0,0-.194,1.927v8.591a1.566,1.566,0,0,1-1.567,1.566Z" transform="translate(-630.969 -414.476)" fill="#e8eef2"/>
    </g>
    <g id="Group_353" data-name="Group 353" transform="translate(522.05 451.629)">
      <path id="Path_2551" data-name="Path 2551" d="M672.4,531.713c-11.112,0-15.375-6.234-15.551-6.5a1.569,1.569,0,0,1-.242-1.106l2.011-12.967a1.566,1.566,0,0,1,3.1.48l-1.907,12.295c1.084,1.24,4.788,4.664,12.593,4.664a1.566,1.566,0,1,1,0,3.132Z" transform="translate(-656.587 -509.816)" fill="#e8eef2"/>
    </g>
    <g id="Group_354" data-name="Group 354" transform="translate(478.6 464.595)">
      <path id="Path_2552" data-name="Path 2552" d="M595.234,553.774a1.566,1.566,0,0,1-.932-2.826c10.931-8.091,42.429-21.656,43.763-22.229A1.567,1.567,0,0,1,639.3,531.6c-.323.139-32.495,13.994-43.137,21.869A1.558,1.558,0,0,1,595.234,553.774Z" transform="translate(-593.667 -528.592)" fill="#e8eef2"/>
    </g>
    <g id="Group_355" data-name="Group 355" transform="translate(506.983 471.464)">
      <path id="Path_2553" data-name="Path 2553" d="M665.647,559.554c-24.943,0-30.759-18.818-30.815-19.008a1.566,1.566,0,0,1,3-.887h0c.205.684,5.283,16.762,27.81,16.762a1.567,1.567,0,0,1,0,3.133Z" transform="translate(-634.768 -538.539)" fill="#1c3e58"/>
    </g>
    <g id="Group_356" data-name="Group 356" transform="translate(536.295 451.634)">
      <path id="Path_2554" data-name="Path 2554" d="M678.782,531.72a1.566,1.566,0,1,1,0-3.132c7.794,0,11.511-3.433,12.594-4.664l-1.907-12.295a1.567,1.567,0,0,1,3.1-.48l2.01,12.968a1.572,1.572,0,0,1-.242,1.106C694.157,525.488,689.894,531.72,678.782,531.72Z" transform="translate(-677.216 -509.823)" fill="#e8eef2"/>
    </g>
    <g id="Group_357" data-name="Group 357" transform="translate(550.541 464.6)">
      <path id="Path_2555" data-name="Path 2555" d="M762.751,695.279a1.567,1.567,0,0,1-1.566-1.554c-.008-1.009-.836-101.007-3.09-116.367-2.17-14.765-15.2-23.2-15.333-23.288-10.736-7.94-43.645-22.323-43.975-22.467a1.566,1.566,0,1,1,1.251-2.871c1.366.595,33.567,14.669,44.5,22.757.494.309,14.285,9.244,16.659,25.414,2.288,15.573,3.092,112.672,3.125,116.8a1.566,1.566,0,0,1-1.554,1.579Z" transform="translate(-697.845 -528.599)" fill="#e8eef2"/>
    </g>
    <g id="Group_358" data-name="Group 358" transform="translate(536.295 471.469)">
      <path id="Path_2556" data-name="Path 2556" d="M678.782,559.561a1.567,1.567,0,0,1,0-3.133c22.529,0,27.605-16.078,27.81-16.762a1.566,1.566,0,0,1,3,.887C709.542,540.743,703.727,559.561,678.782,559.561Z" transform="translate(-677.216 -538.547)" fill="#1c3e58"/>
    </g>
    <g id="Group_359" data-name="Group 359" transform="translate(577.462 488.198)">
      <path id="Path_2557" data-name="Path 2557" d="M765.1,630.925a1.566,1.566,0,0,1-1.566-1.534c0-.282-.589-28.255-3.046-42.471-2.225-12.866-22.467-21.045-22.672-21.126a1.566,1.566,0,1,1,1.155-2.912c.9.357,22.079,8.906,24.6,23.5,2.5,14.452,3.069,41.785,3.092,42.942a1.567,1.567,0,0,1-1.535,1.6Z" transform="translate(-736.829 -562.771)" fill="#1c3e58"/>
    </g>
    <g id="Group_360" data-name="Group 360" transform="translate(583.863 524.91)">
      <path id="Path_2558" data-name="Path 2558" d="M751.6,720.724h-.011a1.566,1.566,0,0,1-1.556-1.577c.322-43.976-3.891-100.957-3.933-101.527a1.566,1.566,0,1,1,3.123-.233c.043.572,4.265,57.678,3.943,101.782A1.566,1.566,0,0,1,751.6,720.724Z" transform="translate(-746.098 -615.935)" fill="#1c3e58"/>
    </g>
    <g id="Group_361" data-name="Group 361" transform="translate(575.656 530.329)">
      <path id="Path_2559" data-name="Path 2559" d="M740.7,703.216a1.567,1.567,0,0,1-1.564-1.509c-1.332-36.267-4.883-75.824-4.918-76.22a1.567,1.567,0,1,1,3.12-.281c.036.4,3.593,40.033,4.929,76.386a1.566,1.566,0,0,1-1.508,1.622Z" transform="translate(-734.215 -623.782)" fill="#1c3e58"/>
    </g>
    <g id="Group_362" data-name="Group 362" transform="translate(503.26 481.921)">
      <path id="Path_2560" data-name="Path 2560" d="M663.057,573.347l-.093,0c-25.358-1.481-33.109-16.758-33.428-17.408a1.566,1.566,0,0,1,2.813-1.38c.3.594,7.375,14.293,30.8,15.66a1.566,1.566,0,0,1-.091,3.13Z" transform="translate(-629.378 -553.682)" fill="#1c3e58"/>
    </g>
    <g id="Group_363" data-name="Group 363" transform="translate(235.263 489.059)">
      <path id="Path_2561" data-name="Path 2561" d="M242.953,567.348a1.664,1.664,0,0,1-.331-3.3,1.615,1.615,0,0,1,.332-.034,1.671,1.671,0,0,1,1.631,1.333,1.664,1.664,0,0,1-1.3,1.963,1.624,1.624,0,0,1-.334.035Z" transform="translate(-241.289 -564.018)" fill="#1c3e58"/>
    </g>
    <g id="Group_367" data-name="Group 367" transform="translate(480.33 534.753)">
      <path id="Path_2565" data-name="Path 2565" d="M597.706,633.518a1.574,1.574,0,0,1-1.5-1.343,1.673,1.673,0,0,1,1.187-1.95,1.391,1.391,0,0,1,.32-.037,1.575,1.575,0,0,1,1.5,1.344,1.674,1.674,0,0,1-1.187,1.949,1.389,1.389,0,0,1-.32.037Z" transform="translate(-596.172 -630.188)" fill="#1c3e58"/>
    </g>
    <g id="left_girl" data-name="left girl">
      <g id="Group_339" data-name="Group 339" transform="translate(255.021 432.263)">
        <path id="Path_2537" data-name="Path 2537" d="M301.867,532.163A32,32,0,0,1,269.9,500.2v-8.67a1.567,1.567,0,0,1,3.133,0v8.67a28.832,28.832,0,0,0,57.663,0V483.338a1.567,1.567,0,0,1,3.133,0V500.2A32,32,0,0,1,301.867,532.163Z" transform="translate(-269.902 -481.772)" fill="#e8eef2"/>
      </g>
      <g id="Group_340" data-name="Group 340" transform="translate(221.813 373.923)">
        <path id="Path_2538" data-name="Path 2538" d="M228.8,556.085a1.568,1.568,0,0,1-1.545-1.324c-4.154-26.532-7.4-65.94-4.059-96.974,4.942-45.9,30.162-57.023,37.773-59.34,8.986-2.735,19.665.151,21.9.817,4.281-.836,38.683-6.361,53.138,28,14.417,34.274,8.977,88.621,8.738,90.916a1.566,1.566,0,1,1-3.116-.323c.057-.555,5.594-55.852-8.511-89.378C318.81,394.465,284.6,402.064,283.15,402.4a1.573,1.573,0,0,1-.84-.035c-.115-.036-11.5-3.641-20.428-.925-7.147,2.176-30.834,12.693-35.571,56.679-3.309,30.731-.083,69.82,4.04,96.153a1.567,1.567,0,0,1-1.305,1.791A1.713,1.713,0,0,1,228.8,556.085Z" transform="translate(-221.813 -397.29)" fill="#e8eef2"/>
      </g>
      <g id="Group_341" data-name="Group 341" transform="translate(247.309 388.698)">
        <path id="Path_2539" data-name="Path 2539" d="M260.3,477.527a1.567,1.567,0,0,1-.685-2.976c40.624-19.729,32.471-53.572,32.384-53.911a1.567,1.567,0,0,1,3.035-.779c.093.365,8.85,36.673-34.051,57.508A1.56,1.56,0,0,1,260.3,477.527Z" transform="translate(-258.734 -418.685)" fill="#e8eef2"/>
      </g>
      <g id="Group_342" data-name="Group 342" transform="translate(279.823 410.291)">
        <path id="Path_2540" data-name="Path 2540" d="M352.135,475.059c-27.029,0-45.2-21.62-45.959-22.541a1.566,1.566,0,0,1,2.415-2c.177.214,18.019,21.4,43.544,21.4a1.566,1.566,0,1,1,0,3.132Z" transform="translate(-305.818 -449.955)" fill="#e8eef2"/>
      </g>
      <g id="Group_344" data-name="Group 344" transform="translate(268.448 478.477)">
        <path id="Path_2542" data-name="Path 2542" d="M307.883,594.941a25.854,25.854,0,0,1-5.518-.6c-6.9-1.509-11.027-5.136-12.6-11.083-2.655-10.021,8.191-32.714,8.653-33.675a1.566,1.566,0,0,1,2.822,1.358c-3.014,6.26-10.406,24.121-8.447,31.514,1.28,4.834,4.439,7.556,10.242,8.826a22.545,22.545,0,0,0,9.7,0c5.8-1.268,8.962-3.989,10.242-8.825,1.959-7.392-5.433-25.254-8.446-31.514a1.566,1.566,0,0,1,2.822-1.358c.463.961,11.309,23.654,8.653,33.675-1.575,5.948-5.7,9.574-12.6,11.082A25.778,25.778,0,0,1,307.883,594.941Z" transform="translate(-289.345 -548.695)" fill="#e8eef2"/>
      </g>
      <g id="Group_345" data-name="Group 345" transform="translate(226.888 490.199)">
        <path id="Path_2543" data-name="Path 2543" d="M231.5,706.75a1.566,1.566,0,0,1-1.565-1.522c-.1-3.563-2.442-87.49,1.547-107.038,6.148-30.135,40.367-32.5,40.713-32.52a1.567,1.567,0,0,1,.186,3.128c-1.311.079-32.166,2.262-37.829,30.018-3.916,19.2-1.51,105.453-1.484,106.323a1.567,1.567,0,0,1-1.521,1.61Z" transform="translate(-229.162 -565.669)" fill="#e8eef2"/>
      </g>
      <g id="Group_346" data-name="Group 346" transform="translate(302.337 488.96)">
        <path id="Path_2544" data-name="Path 2544" d="M367.131,579.288a1.561,1.561,0,0,1-1.049-.4,50.161,50.161,0,0,0-26.231-11.878,1.566,1.566,0,0,1-1.425-1.7,1.545,1.545,0,0,1,1.693-1.425,52.405,52.405,0,0,1,28.061,12.674,1.566,1.566,0,0,1-1.05,2.728Z" transform="translate(-338.42 -563.875)" fill="#e8eef2"/>
      </g>
      <g id="Group_368" data-name="Group 368" transform="translate(276.876 461.906)">
        <path id="Path_2566" data-name="Path 2566" d="M313.013,531.117A19.512,19.512,0,0,1,302.15,527.5a1.566,1.566,0,0,1,1.929-2.467h0c.351.271,8.661,6.566,17.031,0a1.567,1.567,0,1,1,1.934,2.465A15.947,15.947,0,0,1,313.013,531.117Z" transform="translate(-301.55 -524.698)" fill="#e8eef2"/>
      </g>
    </g>
    <g id="Group_632" data-name="Group 632">
      <path id="Path_2514" data-name="Path 2514" d="M536.245,349.058a103.737,103.737,0,0,0-14.521-26.7,1.556,1.556,0,0,0-1.563-.544,1.584,1.584,0,0,0-1.191,1.166c-.036.142-4.011,14.21-46.062,14.21-17.94,0-29.818,3.423-36.316,10.465-6.627,7.182-5.878,16.473-5.384,22.621l.1,1.253c.78,10.449,8.823,25.532,10.229,28.1v10.426a5.922,5.922,0,0,0,5.661,5.91v2.417a35.164,35.164,0,0,0,70.328,0v-2.417a5.923,5.923,0,0,0,5.661-5.91v-10.83a5.923,5.923,0,0,0-.144-1.284C526.7,394,543.657,374.008,536.245,349.058ZM434.333,370.026c-.479-5.938-1.134-14.071,4.563-20.244,5.789-6.275,17.232-9.457,34.013-9.457,34.292,0,44.754-9.26,47.861-13.984a103.306,103.306,0,0,1,12.5,23.694c6.537,22.013-7.432,40.044-11.822,45.006a5.9,5.9,0,0,0-4.175-1.73h-1.137a35.172,35.172,0,0,0-67.547,0h-1.137a5.9,5.9,0,0,0-4.56,2.153c-2.677-5.265-7.876-16.358-8.459-24.168Zm85.723,40.03a2.786,2.786,0,0,1-2.783,2.782h-1.312a1.566,1.566,0,0,0-1.567,1.566v3.978a32.067,32.067,0,0,1-32.031,32.031h0a32.067,32.067,0,0,1-32.031-32.031V414.4a1.566,1.566,0,0,0-1.566-1.566h-1.313a2.785,2.785,0,0,1-2.781-2.782v-10.83a2.785,2.785,0,0,1,2.781-2.782h2.336a1.566,1.566,0,0,0,1.519-1.184,32.038,32.038,0,0,1,62.113,0,1.566,1.566,0,0,0,1.519,1.184h2.336a2.786,2.786,0,0,1,2.783,2.782Z" transform="translate(-64.701 0)" fill="#e8eef2"/>
      <g id="Group_317" data-name="Group 317" transform="translate(400.3 447.269)">
        <path id="Path_2515" data-name="Path 2515" d="M497.644,541.287a1.572,1.572,0,0,1-.786-.211c-2-1.162-10.828-7.022-14.2-12.407a16.2,16.2,0,0,1-2.315-9.964l1.209-13.772a1.566,1.566,0,1,1,3.121.273l-1.208,13.772a13.05,13.05,0,0,0,1.85,8.028c2.564,4.1,9.256,8.948,12.327,10.88,3.072-1.934,9.765-6.786,12.326-10.88a13.064,13.064,0,0,0,1.851-8.028l-1.208-13.772a1.566,1.566,0,1,1,3.121-.273l1.208,13.772a16.2,16.2,0,0,1-2.315,9.964c-3.367,5.381-12.191,11.244-14.2,12.407A1.572,1.572,0,0,1,497.644,541.287Z" transform="translate(-480.28 -503.502)" fill="#e8eef2"/>
      </g>
      <g id="Group_318" data-name="Group 318" transform="translate(323.943 466.895)">
        <path id="Path_2516" data-name="Path 2516" d="M374.379,694.728a1.567,1.567,0,0,1-1.557-1.411c-.343-3.432-8.266-84.379,2.568-112.465,6.1-15.807,24.431-24.953,37.818-31.632,2.422-1.208,4.709-2.35,6.631-3.393,6.821-3.706,11-4.391,13.032-4.437a17.327,17.327,0,0,1,5.928-7.266c5.23-3.813,9.62-1.837,11.211-.255a1.566,1.566,0,0,1-2.2,2.233c-.3-.28-2.929-2.536-7.168.553s-5.121,6.579-5.157,6.726a1.582,1.582,0,0,1-1.879,1.165h0c-.007,0-3.739-.6-12.273,4.035-1.97,1.07-4.281,2.222-6.729,3.444-12.927,6.451-30.633,15.283-36.293,29.956-10.566,27.391-2.456,110.193-2.373,111.027a1.567,1.567,0,0,1-1.4,1.715C374.484,694.725,374.431,694.728,374.379,694.728Z" transform="translate(-369.707 -531.923)" fill="#e8eef2"/>
      </g>
      <g id="Group_319" data-name="Group 319" transform="translate(386.632 476.424)">
        <path id="Path_2517" data-name="Path 2517" d="M477.725,572.4h-.051a1.567,1.567,0,0,1-1.253-.7l-15.672-23.547a1.566,1.566,0,1,1,2.608-1.735l14.456,21.72,12.46-16.305a1.566,1.566,0,1,1,2.489,1.9L478.97,571.786A1.564,1.564,0,0,1,477.725,572.4Z" transform="translate(-460.487 -545.722)" fill="#e8eef2"/>
      </g>
      <g id="Group_320" data-name="Group 320" transform="translate(376.17 479.129)">
        <path id="Path_2518" data-name="Path 2518" d="M486.832,601.673h-.047c-28.905-.846-40.9-48.079-41.4-50.09a1.566,1.566,0,0,1,3.041-.751c.117.469,11.92,46.933,38.45,47.711a1.566,1.566,0,0,1-.044,3.131Z" transform="translate(-445.338 -549.639)" fill="#e8eef2"/>
      </g>
      <g id="Group_321" data-name="Group 321" transform="translate(364.904 484.861)">
        <path id="Path_2519" data-name="Path 2519" d="M481.783,617.7c-41.554,0-52.625-57.327-52.732-57.906a1.566,1.566,0,0,1,3.081-.57c.1.553,10.706,55.343,49.652,55.343a1.566,1.566,0,0,1,0,3.133Z" transform="translate(-429.024 -557.939)" fill="#e8eef2"/>
      </g>
      <g id="Group_322" data-name="Group 322" transform="translate(346.375 495.445)">
        <path id="Path_2520" data-name="Path 2520" d="M421.563,707.521a1.566,1.566,0,0,1-1.564-1.51c-.029-.782-2.855-78.524-3.936-101.145-1.034-21.635-12.952-28.6-13.072-28.666a1.567,1.567,0,0,1,1.522-2.739c.553.306,13.557,7.761,14.679,31.255,1.081,22.638,3.909,100.4,3.937,101.181a1.565,1.565,0,0,1-1.508,1.622Z" transform="translate(-402.192 -573.266)" fill="#e8eef2"/>
      </g>
      <g id="Group_323" data-name="Group 323" transform="translate(393.97 522.766)">
        <path id="Path_2521" data-name="Path 2521" d="M472.68,628.047a1.566,1.566,0,0,1-1.336-2.384l7.393-12.085a1.566,1.566,0,1,1,2.672,1.635L474.018,627.3A1.565,1.565,0,0,1,472.68,628.047Z" transform="translate(-471.114 -612.829)" fill="#e8eef2"/>
      </g>
      <g id="Group_324" data-name="Group 324" transform="translate(377.155 507.487)">
        <path id="Path_2522" data-name="Path 2522" d="M448.332,601.991a1.567,1.567,0,0,1-.942-2.82l10.863-8.154a1.567,1.567,0,0,1,1.88,2.507l-10.862,8.154A1.562,1.562,0,0,1,448.332,601.991Z" transform="translate(-446.764 -590.705)" fill="#e8eef2"/>
      </g>
      <g id="Group_325" data-name="Group 325" transform="translate(368.235 491.929)">
        <path id="Path_2523" data-name="Path 2523" d="M435.415,576.388a1.567,1.567,0,0,1-.622-3l11.762-5.078a1.567,1.567,0,0,1,1.242,2.876l-11.762,5.078A1.544,1.544,0,0,1,435.415,576.388Z" transform="translate(-433.847 -568.174)" fill="#e8eef2"/>
      </g>
      <g id="Group_326" data-name="Group 326" transform="translate(430.618 466.895)">
        <path id="Path_2524" data-name="Path 2524" d="M600.277,694.728c-.053,0-.106,0-.158-.007a1.568,1.568,0,0,1-1.4-1.715c.083-.833,8.195-83.635-2.371-111.027-5.66-14.673-23.366-23.506-36.292-29.955-2.448-1.222-4.759-2.376-6.73-3.445-8.543-4.641-12.274-4.034-12.31-4.027a1.6,1.6,0,0,1-1.845-1.182c-.033-.137-.927-3.635-5.154-6.716-4.406-3.211-7.131-.59-7.158-.564a1.566,1.566,0,0,1-2.208-2.222c1.591-1.578,5.979-3.56,11.211.255a17.344,17.344,0,0,1,5.928,7.266c2.028.046,6.208.731,13.031,4.438,1.923,1.043,4.21,2.186,6.633,3.394,13.386,6.678,31.719,15.826,37.816,31.632,10.834,28.086,2.91,109.034,2.568,112.465A1.567,1.567,0,0,1,600.277,694.728Z" transform="translate(-524.184 -531.923)" fill="#e8eef2"/>
      </g>
      <g id="Group_327" data-name="Group 327" transform="translate(416.097 476.423)">
        <path id="Path_2525" data-name="Path 2525" d="M504.722,613.917a1.566,1.566,0,0,1-1.566-1.567V552.785a1.566,1.566,0,0,1,2.811-.951l12.46,16.305,14.455-21.719a1.567,1.567,0,0,1,2.61,1.735L519.818,571.7a1.568,1.568,0,0,1-1.253.7,1.533,1.533,0,0,1-1.3-.614l-10.981-14.37v53.339c37.691-1.445,47.984-54.767,48.084-55.314a1.567,1.567,0,0,1,3.082.57C557.346,556.59,546.274,613.917,504.722,613.917Z" transform="translate(-503.156 -545.721)" fill="#e8eef2"/>
      </g>
      <g id="Group_328" data-name="Group 328" transform="translate(416.097 479.131)">
        <path id="Path_2526" data-name="Path 2526" d="M504.721,601.674a1.566,1.566,0,0,1-.044-3.131c26.55-.779,38.334-47.242,38.449-47.711a1.567,1.567,0,1,1,3.043.751c-.5,2.011-12.5,49.244-41.4,50.09Z" transform="translate(-503.156 -549.642)" fill="#e8eef2"/>
      </g>
      <g id="Group_329" data-name="Group 329" transform="translate(468.01 495.444)">
        <path id="Path_2527" data-name="Path 2527" d="M579.9,707.521h-.058a1.565,1.565,0,0,1-1.509-1.621c.028-.784,2.855-78.543,3.937-101.181,1.122-23.494,14.127-30.949,14.679-31.255a1.567,1.567,0,0,1,1.523,2.739c-.142.079-12.04,7.051-13.072,28.666-1.081,22.621-3.908,100.362-3.937,101.145A1.566,1.566,0,0,1,579.9,707.521Z" transform="translate(-578.332 -573.265)" fill="#e8eef2"/>
      </g>
      <g id="Group_330" data-name="Group 330" transform="translate(430.828 522.766)">
        <path id="Path_2528" data-name="Path 2528" d="M533.449,628.048a1.565,1.565,0,0,1-1.338-.749l-7.393-12.085a1.566,1.566,0,1,1,2.672-1.635l7.393,12.085a1.566,1.566,0,0,1-1.335,2.384Z" transform="translate(-524.488 -612.831)" fill="#e8eef2"/>
      </g>
      <g id="Group_331" data-name="Group 331" transform="translate(444.174 507.487)">
        <path id="Path_2529" data-name="Path 2529" d="M556.242,601.991a1.56,1.56,0,0,1-.939-.313l-10.862-8.154a1.567,1.567,0,1,1,1.88-2.507l10.862,8.154a1.566,1.566,0,0,1-.941,2.82Z" transform="translate(-543.814 -590.705)" fill="#e8eef2"/>
      </g>
      <g id="Group_332" data-name="Group 332" transform="translate(452.193 491.928)">
        <path id="Path_2530" data-name="Path 2530" d="M568.755,576.387a1.541,1.541,0,0,1-.619-.128l-11.763-5.078a1.566,1.566,0,1,1,1.241-2.876l11.763,5.078a1.566,1.566,0,0,1-.621,3Z" transform="translate(-555.427 -568.173)" fill="#e8eef2"/>
      </g>
      <g id="Group_560" data-name="Group 560" transform="translate(409.262 427.159)">
        <path id="Path_2549-2" data-name="Path 2549" d="M676.222,494.716a12.124,12.124,0,0,1-8.243-3.083,1.566,1.566,0,0,1,2.216-2.215,9.182,9.182,0,0,0,7.3,2.087c3.96-.477,5.275-2.474,5.328-2.558a1.578,1.578,0,0,1,2.147-.508,1.554,1.554,0,0,1,.541,2.117c-.081.137-2.047,3.386-7.641,4.059A13.759,13.759,0,0,1,676.222,494.716Z" transform="translate(-667.523 -488.212)" fill="#e8eef2"/>
      </g>
    </g>
  </g>
</svg>
