<svg id="logoWhite" xmlns="http://www.w3.org/2000/svg" width="137.919" height="38" viewBox="0 0 137.919 38">
  <g id="logo_main" data-name="logo main">
    <path id="Path_15" data-name="Path 15" d="M10.42,10.62h2.63v16.5h8.41v2.29h-11Z" transform="translate(0 -0.721)" fill="#3b5061"/>
    <path id="Path_16" data-name="Path 16" d="M29.76,15.62c3.81,0,5.83,2.83,5.83,6.31,0,.35-.08,1.12-.08,1.12H25.69a4.41,4.41,0,0,0,4.63,4.44,6.44,6.44,0,0,0,4-1.57l1.06,1.89a8,8,0,0,1-5.22,1.92,6.86,6.86,0,0,1-7.13-7C23,18.39,25.93,15.62,29.76,15.62ZM33,21.11c-.08-2.32-1.52-3.44-3.25-3.44a3.86,3.86,0,0,0-3.94,3.44Z" transform="translate(-0.897 -0.865)" fill="#3b5061"/>
    <path id="Path_17" data-name="Path 17" d="M45.76,21h.58v-.24a2.61,2.61,0,0,0-3-3,6.86,6.86,0,0,0-3.76,1.3l-1.06-1.89a8.43,8.43,0,0,1,5-1.6c3.41,0,5.32,1.87,5.32,5.27v8.52H46.53V27.07h0a4.66,4.66,0,0,1-4.31,2.66c-2.32,0-4.58-1.41-4.58-4.1C37.64,21.19,43.49,21,45.76,21Zm-3,6.65c2.18,0,3.59-2.28,3.59-4.28v-.43H45.7c-1.94,0-5.45.14-5.45,2.56a2.25,2.25,0,0,0,2.53,2.15Z" transform="translate(-1.451 -0.864)" fill="#3b5061"/>
    <path id="Path_18" data-name="Path 18" d="M52.78,15.94h2.5v2.35c0,.55-.05,1-.05,1h.05a4.61,4.61,0,0,1,4.26-3.52,4.11,4.11,0,0,1,.67.06v2.55a3.78,3.78,0,0,0-.75-.08,4.08,4.08,0,0,0-3.78,3.17,8.17,8.17,0,0,0-.32,2.42V29.4H52.78Z" transform="translate(-1.978 -0.857)" fill="#3b5061"/>
    <path id="Path_19" data-name="Path 19" d="M62.76,15.94h2.5v1.79c0,.53-.05,1-.05,1h.05a5.48,5.48,0,0,1,5.06-3.09c3.17,0,4.63,1.73,4.63,5.17v8.62H72.37v-8c0-1.89-.4-3.38-2.56-3.38a4.42,4.42,0,0,0-4.26,3.3,6.43,6.43,0,0,0-.21,1.81v6.31H62.76Z" transform="translate(-2.438 -0.856)" fill="#3b5061"/>
    <path id="Path_20" data-name="Path 20" d="M79,23V13.8h3.2V23c0,2.31,1.22,4.07,3.65,4.07s3.64-1.76,3.64-4.07V13.8h3.22V23c0,4.12-2.53,7.18-6.86,7.18S79,27.08,79,23Z" transform="translate(-3.105 -0.839)" fill="#3b5061"/>
    <path id="Path_21" data-name="Path 21" d="M104.34,21.6l4.9,8.17h-3.91l-2.77-5.11-.64-1.3-.64,1.3-2.74,5.11H94.65l4.82-8.17-4.71-7.8h3.88l2.69,4.85.59,1.33.64-1.33,2.66-4.85h3.86Z" transform="translate(-3.745 -0.825)" fill="#3b5061"/>
    <path id="Path_22" data-name="Path 22" d="M114.53,29.77h-3.22v-16h3.22Z" transform="translate(-4.046 -0.824)" fill="#3b5061"/>
    <path id="Path_23" data-name="Path 23" d="M124.06,29.77h-5.88v-16h5.88c5.06,0,8.3,3.3,8.3,8S129.12,29.77,124.06,29.77ZM121.4,16.62V27h2.45A4.92,4.92,0,0,0,129,21.79a4.87,4.87,0,0,0-5.19-5.17Z" transform="translate(-5.081 -0.824)" fill="#3b5061"/>
    <circle id="Ellipse_1" data-name="Ellipse 1" cx="2.57" cy="2.57" r="2.57" transform="translate(106.244)" fill="#3b5061"/>
    <path id="Path_24" data-name="Path 24" d="M135.189,2.4H113.971c0,.962-.058.962-.145.962H135.16c.608,0,1.707.876,1.707,1.472l.087,30.722c0,.606-1.157,1.482-1.765,1.482H2.517A1.927,1.927,0,0,1,.964,35.556V4.834A1.927,1.927,0,0,1,2.517,3.362H103.892c-.087,0-.145,0-.154-.962H2.517A2.659,2.659,0,0,0,0,4.834V35.556A2.669,2.669,0,0,0,2.517,38H135.189a2.891,2.891,0,0,0,2.729-2.444V4.834A2.891,2.891,0,0,0,135.189,2.4Z" transform="translate(0 0)" fill="#3b5061"/>
  </g>
</svg>
