<svg xmlns="http://www.w3.org/2000/svg" width="168" height="110" viewBox="0 0 168 110">
    <defs>
        <clipPath id="prefix__clip-path">
            <path d="M0 0H168V110H0z" style="fill:none"/>
        </clipPath>
    </defs>
    <g id="prefix__quote-green">
        <path id="prefix__quote" d="M7.2 55.68h4.112c34.07 0 75.776-30.634 75.776-73.882 0-21.624-17.622-33.638-34.657-33.638C37.745-51.84 21.3-41.629 21.3-18.8c0 15.617 11.748 27.03 29.371 30.034C43.62 22.643 26 31.653 11.9 31.653H8.375zm88.112 0h4.112c34.07 0 75.776-30.634 75.776-73.882 0-21.624-17.622-33.638-34.657-33.638-14.685 0-31.133 10.211-31.133 33.037 0 15.617 11.748 27.03 29.371 30.034-7.049 11.413-24.671 20.423-38.769 20.423h-3.525z" transform="translate(-7.2 51.84)" style="fill:#bdffe7"/>
    </g>
</svg>
