<svg xmlns="http://www.w3.org/2000/svg" id="prefix__star_favorite_1499_" width="16.858" height="16.147" data-name="star_favorite [#1499]" viewBox="0 0 16.858 16.147">
    <g id="prefix__Dribbble-Light-Preview">
        <g id="prefix__icons">
            <path id="prefix__star_favorite-_1499_" d="M57.093 169.854a1.521 1.521 0 00-.439 1.347l.544 3.162a1.522 1.522 0 01-2.214 1.605l-2.845-1.493a1.533 1.533 0 00-1.42 0l-2.845 1.493a1.522 1.522 0 01-2.214-1.605l.54-3.163a1.521 1.521 0 00-.439-1.347l-2.3-2.239a1.522 1.522 0 01.845-2.6l3.181-.461a1.523 1.523 0 001.149-.833l1.423-2.876a1.528 1.528 0 012.737 0l1.423 2.876a1.523 1.523 0 001.149.833l3.181.461a1.522 1.522 0 01.845 2.6z" data-name="star_favorite-[#1499]" transform="translate(-43 -160)" style="fill:#ffa200;fill-rule:evenodd"/>
        </g>
    </g>
</svg>
