<svg xmlns="http://www.w3.org/2000/svg" width="34" height="30.804" viewBox="0 0 34 30.804">
  <g id="students-icon" transform="translate(1 1)">
    <g id="Group_43" data-name="Group 43">
      <path id="Path_2258" data-name="Path 2258" d="M25.593,30.8h6.444V25a2.136,2.136,0,0,0-1.627-2.07l-6.265-1.555a1.069,1.069,0,0,1-.8-.884L22.9,17.417A6.4,6.4,0,0,0,26.667,11.6V8.669A6.6,6.6,0,0,0,20.421,2,6.455,6.455,0,0,0,17,2.854" transform="translate(-0.037 -1.997)" fill="none" stroke="#e8eef2" stroke-linecap="square" stroke-miterlimit="10" stroke-width="2"/>
      <path id="Path_2259" data-name="Path 2259" d="M20.923,24.88l-5.29-1.5a1.069,1.069,0,0,1-.769-.874l-.446-3.1s4,.3,5.915-1.549a10.848,10.848,0,0,1-2.148-7.183A6.614,6.614,0,0,0,12,4.005,6.472,6.472,0,0,0,7.276,5.784,6.374,6.374,0,0,0,5.3,10.4a11.083,11.083,0,0,1-2.148,7.463c1.913,1.849,5.915,1.549,5.915,1.549l-.446,3.1a1.069,1.069,0,0,1-.769.874l-5.29,1.5A2.134,2.134,0,0,0,1,26.93v3.722H22.481V26.93a2.134,2.134,0,0,0-1.558-2.05Z" transform="translate(-1 -1.849)" fill="none" stroke="#e8eef2" stroke-linecap="square" stroke-miterlimit="10" stroke-width="2"/>
    </g>
  </g>
</svg>
