<svg xmlns="http://www.w3.org/2000/svg" width="32" height="32" viewBox="0 0 32 32">
  <g id="world-icon" transform="translate(1 1)">
    <g id="Group_44" data-name="Group 44">
      <path id="Path_2260" data-name="Path 2260" d="M7.429,3.689a8.651,8.651,0,0,1,2.7,2.436c.608,1.019,1.659,4.183.42,5.784C9.145,13.72,5.091,14.331,5.091,16c0,1.256,1.778,2.689,2.727,4.091a4.865,4.865,0,0,1,0,5.455,5.154,5.154,0,0,1-1.8,1.646" transform="translate(-1 -1)" fill="none" stroke="#e8eef2" stroke-miterlimit="10" stroke-width="2"/>
      <path id="Path_2261" data-name="Path 2261" d="M27.814,6.757c-2.944,1.411-5.4,3.16-7.032,2.743C18.93,9.028,19.09,7.408,18,5.75c-.818-1.244-3.364-2.1-3.364-3.386a4.173,4.173,0,0,1,.181-1.318" transform="translate(-1 -1)" fill="none" stroke="#e8eef2" stroke-miterlimit="10" stroke-width="2"/>
      <path id="Path_2262" data-name="Path 2262" d="M25.565,17.232c.057,4.2-5.8,10.123-8.2,8.313-2.051-1.545-.239-2.483-1.344-8.313-.421-2.22,2.137-4.091,4.773-4.091S25.534,14.973,25.565,17.232Z" transform="translate(-1 -1)" fill="none" stroke="#e8eef2" stroke-miterlimit="10" stroke-width="2"/>
      <circle id="Ellipse_74" data-name="Ellipse 74" cx="15" cy="15" r="15" fill="none" stroke="#e8eef2" stroke-linecap="square" stroke-miterlimit="10" stroke-width="2"/>
    </g>
  </g>
</svg>
